<svg viewBox="0 0 229.7 229.7"><g fill="#f59210"><path d="M84.2.1s.1 0 0 0c.1 0 0 0 0 0M91.9.1s0-.1 0 0c0-.1-.1 0 0 0-.1 0 0 0 0 0M99.5.1c.1 0 .1 0 0 0 .1-.1 0-.1 0-.1v.1M107.2.2s.1-.1 0 0c.1-.1 0-.2 0-.2-.1 0-.1 0 0 .2-.1-.1-.1 0 0 0M114.8.2c.1 0 .1-.1 0 0 .1-.1 0-.2 0-.2s-.1 0 0 .2c-.1-.1 0 0 0 0M122.5.2s.1-.1 0 0c.1-.1 0-.2 0-.2-.1 0-.1 0 0 .2-.1-.1-.1 0 0 0M130.1.1c.1 0 .1 0 0 0 .1-.1 0-.1 0-.1v.1M137.8.1s0-.1 0 0c0-.1-.1 0 0 0-.1 0 0 0 0 0M145.4.1s.1 0 0 0c.1 0 0 0 0 0M68.9 7.8c.1 0 .1 0 0 0 .1-.1.1-.1 0 0 0-.1 0-.1 0 0M76.6 7.8c.1 0 .1 0 .1-.1s0-.1-.1-.1-.1 0-.1.1 0 .1.1.1M84.2 7.9c.1 0 .2-.1.2-.2s-.1-.2-.2-.2-.2.1-.2.2c.1.1.1.2.2.2M91.9 7.9c.1 0 .2-.1.2-.2s-.1-.2-.2-.2-.2.1-.2.2.1.2.2.2M99.5 8c.1 0 .2-.1.2-.2s-.1-.2-.2-.2-.2.1-.2.2.1.2.2.2M107.2 8c.1 0 .3-.1.3-.3 0-.1-.1-.3-.3-.3-.1 0-.3.1-.3.3 0 .2.1.3.3.3M114.8 8c.1 0 .3-.1.3-.3 0-.1-.1-.3-.3-.3-.1 0-.3.1-.3.3.1.2.2.3.3.3M122.5 8c.1 0 .3-.1.3-.3 0-.1-.1-.3-.3-.3-.1 0-.3.1-.3.3 0 .2.1.3.3.3M130.1 8c.1 0 .2-.1.2-.2s-.1-.2-.2-.2-.2.1-.2.2.1.2.2.2M137.8 7.9c.1 0 .2-.1.2-.2s-.1-.2-.2-.2-.2.1-.2.2.1.2.2.2M145.4 7.9c.1 0 .2-.1.2-.2s-.1-.2-.2-.2-.2.1-.2.2c.1.1.1.2.2.2M153.1 7.8c.1 0 .1 0 .1-.1s0-.1-.1-.1-.1 0-.1.1 0 .1.1.1M160.7 7.8c.1 0 .1 0 0 0 .1-.1 0-.1 0-.1v.1M53.6 15.4c.1 0 .1 0 0 0 .1 0 .1-.1 0 0 0-.1 0 0 0 0M61.3 15.5c.1 0 .1-.1.1-.1 0-.1-.1-.1-.1-.1-.1 0-.1.1-.1.1 0 .1 0 .1.1.1M68.9 15.6c.1 0 .2-.1.2-.2s-.1-.2-.2-.2-.2.1-.2.2.1.2.2.2M76.6 15.7c.2 0 .3-.1.3-.3 0-.2-.1-.3-.3-.3-.2 0-.3.1-.3.3 0 .1.1.3.3.3M84.2 15.7c.2 0 .3-.1.3-.3 0-.2-.1-.3-.3-.3-.2 0-.3.1-.3.3 0 .2.2.3.3.3M91.9 15.8c.2 0 .4-.2.4-.4s-.2-.4-.4-.4-.4.2-.4.4.2.4.4.4M99.5 15.8c.2 0 .4-.2.4-.4s-.2-.4-.4-.4-.4.2-.4.4.2.4.4.4M107.2 15.8c.2 0 .4-.2.4-.4s-.2-.4-.4-.4-.4.2-.4.4.1.4.4.4M114.8 15.8c.2 0 .4-.2.4-.4s-.2-.4-.4-.4-.4.2-.4.4.2.4.4.4M122.5 15.8c.2 0 .4-.2.4-.4s-.2-.4-.4-.4-.4.2-.4.4.1.4.4.4M130.1 15.8c.2 0 .4-.2.4-.4s-.2-.4-.4-.4-.4.2-.4.4.2.4.4.4M137.8 15.8c.2 0 .4-.2.4-.4s-.2-.4-.4-.4-.4.2-.4.4.2.4.4.4M145.4 15.7c.2 0 .3-.2.3-.3 0-.2-.2-.3-.3-.3-.2 0-.3.2-.3.3 0 .2.1.3.3.3M153.1 15.7c.2 0 .3-.1.3-.3 0-.2-.1-.3-.3-.3-.2 0-.3.1-.3.3 0 .1.1.3.3.3M160.7 15.6c.1 0 .2-.1.2-.2s-.1-.2-.2-.2-.2.1-.2.2.1.2.2.2M168.4 15.5c.1 0 .1-.1.1-.1 0-.1-.1-.1-.1-.1-.1 0-.1.1-.1.1 0 .1 0 .1.1.1M176 15.4c.1 0 .1 0 0 0 .1 0 .1-.1 0 0 0-.1 0 0 0 0M46 23.1s.1 0 0 0c.1-.1 0-.2 0-.2-.1 0-.1.1 0 .2-.1 0-.1 0 0 0M53.6 23.2c.1 0 .2-.1.2-.2s-.1-.2-.2-.2-.2.1-.2.2.1.2.2.2M61.3 23.3c.2 0 .3-.1.3-.3 0-.2-.1-.3-.3-.3-.2 0-.3.1-.3.3 0 .2.1.3.3.3M68.9 23.4c.2 0 .4-.2.4-.4s-.2-.4-.4-.4-.4.2-.4.4c.1.2.2.4.4.4M76.6 23.5c.2 0 .4-.2.4-.4s-.2-.4-.4-.4-.4.2-.4.4.1.4.4.4M84.2 23.5c.3 0 .5-.2.5-.5s-.2-.5-.5-.5-.5.2-.5.5.3.5.5.5M91.9 23.6c.3 0 .6-.2.6-.6 0-.3-.2-.6-.6-.6-.3 0-.6.2-.6.6 0 .3.3.6.6.6M99.5 23.6c.3 0 .6-.3.6-.6s-.3-.6-.6-.6-.6.3-.6.6c.1.4.3.6.6.6M107.2 23.6c.3 0 .6-.3.6-.6s-.3-.6-.6-.6-.6.3-.6.6.3.6.6.6M114.8 23.6c.3 0 .6-.3.6-.6s-.3-.6-.6-.6-.6.3-.6.6.3.6.6.6M122.5 23.6c.3 0 .6-.3.6-.6s-.3-.6-.6-.6-.6.3-.6.6.3.6.6.6M130.1 23.6c.3 0 .6-.3.6-.6s-.3-.6-.6-.6-.6.3-.6.6.3.6.6.6M137.8 23.6c.3 0 .6-.2.6-.6 0-.3-.2-.6-.6-.6-.3 0-.6.2-.6.6 0 .3.3.6.6.6M145.4 23.5c.3 0 .5-.2.5-.5s-.2-.5-.5-.5-.5.2-.5.5.3.5.5.5M153.1 23.5c.2 0 .4-.2.4-.4s-.2-.4-.4-.4-.4.2-.4.4.1.4.4.4M160.7 23.4c.2 0 .4-.2.4-.4s-.2-.4-.4-.4-.4.2-.4.4c.1.2.2.4.4.4M168.4 23.3c.2 0 .3-.1.3-.3 0-.2-.1-.3-.3-.3-.2 0-.3.1-.3.3 0 .2.1.3.3.3M176 23.2c.1 0 .2-.1.2-.2s-.1-.2-.2-.2-.2.1-.2.2.1.2.2.2M183.7 23.1s.1 0 0 0c.1-.1 0-.2 0-.2-.1 0-.1.1 0 .2-.1 0-.1 0 0 0M191.3 23.1s0-.1 0 0c0-.1 0-.1 0 0 0-.1 0-.1 0 0 0-.1 0 0 0 0M38.3 30.8c.1 0 .1 0 .1-.1s0-.1-.1-.1-.1 0-.1.1l.1.1M46 30.9c.1 0 .2-.1.2-.2s-.1-.2-.2-.2-.2.1-.2.2.1.2.2.2M53.6 31c.2 0 .3-.1.3-.3s-.1-.3-.3-.3c-.2 0-.3.1-.3.3s.2.3.3.3M61.3 31.1c.2 0 .4-.2.4-.4s-.2-.4-.4-.4-.4.2-.4.4.1.4.4.4M68.9 31.2c.3 0 .5-.2.5-.5s-.2-.5-.5-.5-.5.2-.5.5.3.5.5.5M76.6 31.3c.3 0 .6-.3.6-.6s-.3-.6-.6-.6-.6.3-.6.6.3.6.6.6M84.2 31.3c.4 0 .7-.3.7-.7 0-.4-.3-.7-.7-.7-.4 0-.7.3-.7.7.1.4.4.7.7.7M91.9 31.4c.4 0 .7-.3.7-.7 0-.4-.3-.7-.7-.7-.4 0-.7.3-.7.7 0 .4.3.7.7.7M99.5 31.4c.4 0 .8-.3.8-.8s-.3-.8-.8-.8c-.4 0-.8.3-.8.8s.4.8.8.8M107.2 31.5c.4 0 .8-.4.8-.8s-.4-.8-.8-.8-.8.4-.8.8.3.8.8.8M114.8 31.5c.4 0 .8-.4.8-.8s-.4-.8-.8-.8-.8.4-.8.8.4.8.8.8M122.5 31.5c.4 0 .8-.4.8-.8s-.3-.8-.8-.8c-.4 0-.8.4-.8.8s.3.8.8.8M130.1 31.4c.4 0 .8-.3.8-.8s-.3-.8-.8-.8c-.4 0-.8.3-.8.8s.4.8.8.8M137.8 31.4c.4 0 .7-.3.7-.7 0-.4-.3-.7-.7-.7-.4 0-.7.3-.7.7 0 .4.3.7.7.7M145.4 31.3c.4 0 .7-.3.7-.7 0-.4-.3-.7-.7-.7-.4 0-.7.3-.7.7.1.4.4.7.7.7M153.1 31.3c.3 0 .6-.3.6-.6s-.3-.6-.6-.6-.6.3-.6.6.3.6.6.6M160.7 31.2c.3 0 .5-.2.5-.5s-.2-.5-.5-.5-.5.2-.5.5.2.5.5.5M168.4 31.1c.2 0 .4-.2.4-.4s-.2-.4-.4-.4-.4.2-.4.4.1.4.4.4M176 31c.2 0 .3-.2.3-.3 0-.2-.2-.3-.3-.3-.2 0-.3.2-.3.3 0 .2.1.3.3.3M183.7 30.9c.1 0 .2-.1.2-.2s-.1-.2-.2-.2-.2.1-.2.2c-.1.1.1.2.2.2M191.3 30.8c.1 0 .1 0 .1-.1s0-.1-.1-.1-.1 0-.1.1l.1.1M30.7 38.4c.1 0 .1 0 .1-.1s0-.1-.1-.1-.1 0-.1.1 0 .1.1.1M38.3 38.6c.1 0 .2-.1.2-.2s-.1-.2-.2-.2-.2.1-.2.2.1.2.2.2M46 38.7c.2 0 .4-.2.4-.4s-.2-.3-.4-.3-.4.2-.4.4.2.3.4.3M53.6 38.8c.3 0 .5-.2.5-.5s-.2-.5-.5-.5-.5.2-.5.5c.1.3.3.5.5.5M61.3 38.9c.3 0 .6-.3.6-.6s-.3-.6-.6-.6-.6.3-.6.6.3.6.6.6M68.9 39c.4 0 .7-.3.7-.7 0-.4-.3-.7-.7-.7-.4 0-.7.3-.7.7.1.4.4.7.7.7M76.6 39.1c.4 0 .7-.3.7-.7 0-.4-.3-.7-.7-.7-.4 0-.7.3-.7.7-.1.3.3.7.7.7M84.2 39.2c.5 0 .8-.4.8-.8 0-.5-.4-.8-.8-.8-.5 0-.8.4-.8.8s.4.8.8.8M91.9 39.2c.5 0 .9-.4.9-.9s-.4-.9-.9-.9-.9.4-.9.9.4.9.9.9M99.5 39.3c.5 0 .9-.4.9-.9s-.4-.9-.9-.9-.9.4-.9.9c0 .4.4.9.9.9M107.2 39.3c.5 0 1-.4 1-1 0-.5-.4-1-1-1-.5 0-1 .4-1 1s.5 1 1 1M114.8 39.3c.5 0 1-.4 1-1s-.4-1-1-1c-.5 0-1 .4-1 1s.5 1 1 1M122.5 39.3c.5 0 1-.4 1-1 0-.5-.4-1-1-1-.5 0-1 .4-1 1s.5 1 1 1M130.1 39.3c.5 0 .9-.4.9-.9s-.4-.9-.9-.9-.9.4-.9.9c0 .4.4.9.9.9M137.8 39.2c.5 0 .9-.4.9-.9s-.4-.9-.9-.9-.9.4-.9.9.4.9.9.9M145.4 39.2c.5 0 .8-.4.8-.8 0-.5-.4-.8-.8-.8-.5 0-.8.4-.8.8s.4.8.8.8M153.1 39.1c.4 0 .8-.3.8-.8s-.3-.8-.8-.8c-.4 0-.8.3-.8.8s.4.8.8.8M160.7 39c.4 0 .7-.3.7-.7s-.3-.7-.7-.7c-.4 0-.7.3-.7.7s.4.7.7.7M168.4 38.9c.3 0 .6-.3.6-.6s-.3-.6-.6-.6-.6.3-.6.6.3.6.6.6M176 38.8c.3 0 .5-.2.5-.5s-.2-.5-.5-.5-.5.2-.5.5c.1.3.3.5.5.5M183.7 38.7c.2 0 .4-.2.4-.4s-.2-.4-.4-.4-.4.2-.4.4.2.4.4.4M191.3 38.6c.1 0 .2-.1.2-.2s-.1-.2-.2-.2-.2.1-.2.2.1.2.2.2M199 38.5c.1 0 .1-.1.1-.1 0-.1-.1-.1-.1-.1-.1 0-.1.1-.1.1s0 .1.1.1M206.6 38.4s0-.1 0 0c0-.1 0-.1 0 0 0-.1 0-.1 0 0 0-.1 0 0 0 0M23 46.1c.1 0 .1-.1 0 0 .1-.1 0-.2 0-.2s-.1 0 0 .2c-.1-.1 0 0 0 0M30.7 46.2c.1 0 .2-.1.2-.2s-.1-.2-.2-.2-.2.1-.2.2.1.2.2.2M38.3 46.3c.2 0 .4-.2.4-.4s-.2-.4-.4-.4-.4.2-.4.4.2.4.4.4M46 46.5c.3 0 .5-.2.5-.5s-.2-.5-.5-.5-.5.2-.5.5.2.5.5.5M53.6 46.6c.3 0 .6-.3.6-.6s-.3-.6-.6-.6-.6.3-.6.6.3.6.6.6M61.3 46.7c.4 0 .7-.3.7-.7 0-.4-.3-.7-.7-.7-.4 0-.7.3-.7.7 0 .4.3.7.7.7M68.9 46.8c.4 0 .8-.4.8-.8s-.4-.8-.8-.8-.8.4-.8.8.4.8.8.8M76.6 46.9c.5 0 .9-.4.9-.9s-.4-.9-.9-.9-.9.4-.9.9.4.9.9.9M84.2 47c.6 0 1-.4 1-1s-.4-1-1-1-1 .4-1 1 .5 1 1 1M91.9 47c.6 0 1.1-.5 1.1-1.1 0-.6-.5-1.1-1.1-1.1-.6 0-1.1.5-1.1 1.1 0 .7.5 1.1 1.1 1.1M99.5 47.1c.6 0 1.1-.5 1.1-1.1 0-.6-.5-1.1-1.1-1.1-.6 0-1.1.5-1.1 1.1 0 .6.5 1.1 1.1 1.1M107.2 47.1c.6 0 1.1-.5 1.1-1.1s-.5-1.1-1.1-1.1c-.6 0-1.1.5-1.1 1.1s.5 1.1 1.1 1.1M114.8 47.1c.6 0 1.1-.5 1.1-1.1 0-.6-.5-1.1-1.1-1.1-.6 0-1.1.5-1.1 1.1 0 .6.5 1.1 1.1 1.1M122.5 47.1c.6 0 1.1-.5 1.1-1.1s-.5-1.1-1.1-1.1c-.6 0-1.1.5-1.1 1.1s.5 1.1 1.1 1.1M130.1 47.1c.6 0 1.1-.5 1.1-1.1 0-.6-.5-1.1-1.1-1.1-.6 0-1.1.5-1.1 1.1 0 .6.5 1.1 1.1 1.1M137.8 47c.6 0 1.1-.5 1.1-1.1 0-.6-.5-1.1-1.1-1.1-.6 0-1.1.5-1.1 1.1 0 .7.5 1.1 1.1 1.1M145.4 47c.6 0 1-.4 1-1s-.4-1-1-1-1 .4-1 1 .5 1 1 1M153.1 46.9c.5 0 .9-.4.9-.9s-.4-.9-.9-.9-.9.4-.9.9.4.9.9.9M160.7 46.8c.5 0 .8-.4.8-.8s-.4-.8-.8-.8c-.5 0-.8.4-.8.8s.4.8.8.8M168.4 46.7c.4 0 .7-.3.7-.7 0-.4-.3-.7-.7-.7-.4 0-.7.3-.7.7 0 .4.3.7.7.7M176 46.6c.3 0 .6-.3.6-.6s-.3-.6-.6-.6-.6.3-.6.6.3.6.6.6M183.7 46.5c.3 0 .5-.2.5-.5s-.2-.5-.5-.5-.5.2-.5.5.2.5.5.5M191.3 46.3c.2 0 .4-.2.4-.4s-.2-.4-.4-.4-.4.2-.4.4.2.4.4.4M199 46.2c.1 0 .2-.1.2-.2s-.1-.2-.2-.2-.2.1-.2.2c-.1.1 0 .2.2.2M206.6 46.1c.1 0 .1-.1 0 0 .1-.1 0-.2 0-.2s-.1 0 0 .2c-.1-.1 0 0 0 0M15.4 53.7c0-.1 0-.1 0 0 0-.1-.1-.1 0 0-.1 0 0 0 0 0M23 53.8c.1 0 .2-.1.2-.2s-.1-.2-.2-.2-.2.1-.2.2.1.2.2.2M30.7 54c.2 0 .3-.1.3-.3s-.1-.3-.3-.3c-.2 0-.3.1-.3.3s.1.3.3.3M38.3 54.1c.3 0 .5-.2.5-.5s-.2-.5-.5-.5-.5.2-.5.5c.1.3.3.5.5.5M46 54.2c.3 0 .6-.3.6-.6s-.3-.6-.6-.6-.6.3-.6.6.3.6.6.6M53.6 54.4c.4 0 .7-.3.7-.7 0-.4-.3-.7-.7-.7-.4 0-.7.3-.7.7 0 .3.3.7.7.7M61.3 54.5c.5 0 .8-.4.8-.8 0-.5-.4-.8-.8-.8-.5 0-.8.4-.8.8-.1.4.3.8.8.8M68.9 54.6c.5 0 1-.4 1-1 0-.5-.4-1-1-1-.5 0-1 .4-1 1 .1.6.5 1 1 1M76.6 54.7c.6 0 1.1-.5 1.1-1.1 0-.6-.5-1.1-1.1-1.1-.6 0-1.1.5-1.1 1.1 0 .6.5 1.1 1.1 1.1M84.2 54.8c.6 0 1.1-.5 1.1-1.1 0-.6-.5-1.1-1.1-1.1-.6 0-1.1.5-1.1 1.1 0 .6.5 1.1 1.1 1.1M91.9 54.9c.7 0 1.2-.6 1.2-1.2 0-.7-.6-1.2-1.2-1.2-.7 0-1.2.6-1.2 1.2s.5 1.2 1.2 1.2M99.5 54.9c.7 0 1.3-.6 1.3-1.3 0-.7-.6-1.3-1.3-1.3-.7 0-1.3.6-1.3 1.3.1.7.6 1.3 1.3 1.3M107.2 54.9c.7 0 1.3-.6 1.3-1.3 0-.7-.6-1.3-1.3-1.3-.7 0-1.3.6-1.3 1.3 0 .8.6 1.3 1.3 1.3M114.8 54.9c.7 0 1.3-.6 1.3-1.3 0-.7-.6-1.3-1.3-1.3-.7 0-1.3.6-1.3 1.3 0 .8.6 1.3 1.3 1.3M122.5 54.9c.7 0 1.3-.6 1.3-1.3 0-.7-.6-1.3-1.3-1.3-.7 0-1.3.6-1.3 1.3 0 .8.6 1.3 1.3 1.3M130.1 54.9c.7 0 1.3-.6 1.3-1.3 0-.7-.6-1.3-1.3-1.3-.7 0-1.3.6-1.3 1.3.1.7.6 1.3 1.3 1.3M137.8 54.9c.7 0 1.2-.6 1.2-1.2 0-.7-.6-1.2-1.2-1.2-.7 0-1.2.6-1.2 1.2s.5 1.2 1.2 1.2M145.4 54.8c.6 0 1.2-.5 1.2-1.2 0-.6-.5-1.2-1.2-1.2-.6 0-1.2.5-1.2 1.2.1.7.6 1.2 1.2 1.2M153.1 54.7c.6 0 1.1-.5 1.1-1.1 0-.6-.5-1.1-1.1-1.1-.6 0-1.1.5-1.1 1.1 0 .6.5 1.1 1.1 1.1M160.7 54.6c.5 0 1-.4 1-1s-.4-1-1-1c-.5 0-1 .4-1 1s.5 1 1 1M168.4 54.5c.5 0 .8-.4.8-.8 0-.5-.4-.8-.8-.8-.5 0-.8.4-.8.8-.1.4.3.8.8.8M176 54.4c.4 0 .7-.3.7-.7 0-.4-.3-.7-.7-.7-.4 0-.7.3-.7.7 0 .3.3.7.7.7M183.7 54.2c.3 0 .6-.3.6-.6s-.3-.6-.6-.6-.6.3-.6.6c0 .4.2.6.6.6M191.3 54.1c.3 0 .5-.2.5-.5s-.2-.5-.5-.5-.5.2-.5.5.3.5.5.5M199 54c.2 0 .3-.2.3-.3 0-.2-.2-.3-.3-.3-.2 0-.3.2-.3.3-.1.1.1.3.3.3M206.6 53.8c.1 0 .2-.1.2-.2s-.1-.2-.2-.2-.2.1-.2.2.1.2.2.2M214.3 53.7c.1-.1 0-.1 0-.1-.1 0-.1 0 0 .1-.1 0-.1 0 0 0M15.4 61.4c.1 0 .1-.1.1-.1 0-.1-.1-.1-.1-.1-.1 0-.1.1-.1.1 0 .1 0 .1.1.1M23 61.6c.2 0 .3-.1.3-.3 0-.2-.1-.3-.3-.3-.2 0-.3.1-.3.3.1.1.2.3.3.3M30.7 61.7c.2 0 .4-.2.4-.4s-.2-.4-.4-.4-.4.2-.4.4.2.4.4.4M38.3 61.9c.3 0 .6-.3.6-.6s-.3-.6-.6-.6-.6.3-.6.6c.1.3.3.6.6.6M46 62c.4 0 .7-.3.7-.7 0-.4-.3-.7-.7-.7-.4 0-.7.3-.7.7 0 .4.3.7.7.7M53.6 62.1c.5 0 .8-.4.8-.8 0-.5-.4-.8-.8-.8-.5 0-.8.4-.8.8 0 .5.4.8.8.8M61.3 62.3c.5 0 1-.4 1-1s-.4-1-1-1c-.5 0-1 .4-1 1s.4 1 1 1M68.9 62.4c.6 0 1.1-.5 1.1-1.1 0-.6-.5-1.1-1.1-1.1-.6 0-1.1.5-1.1 1.1 0 .6.5 1.1 1.1 1.1M76.6 62.5c.7 0 1.2-.5 1.2-1.2s-.5-1.2-1.2-1.2-1.2.5-1.2 1.2c0 .6.5 1.2 1.2 1.2M84.2 62.6c.7 0 1.3-.6 1.3-1.3 0-.7-.6-1.3-1.3-1.3-.7 0-1.3.6-1.3 1.3 0 .7.6 1.3 1.3 1.3M91.9 62.7c.8 0 1.4-.6 1.4-1.4 0-.8-.6-1.4-1.4-1.4-.8 0-1.4.6-1.4 1.4 0 .7.6 1.4 1.4 1.4M99.5 62.7c.8 0 1.4-.6 1.4-1.4 0-.8-.6-1.4-1.4-1.4-.8 0-1.4.6-1.4 1.4 0 .8.6 1.4 1.4 1.4M107.2 62.8c.8 0 1.5-.7 1.5-1.5s-.7-1.5-1.5-1.5-1.5.7-1.5 1.5.7 1.5 1.5 1.5M114.8 62.8c.8 0 1.5-.7 1.5-1.5s-.7-1.5-1.5-1.5-1.5.7-1.5 1.5.7 1.5 1.5 1.5M122.5 62.8c.8 0 1.5-.7 1.5-1.5s-.7-1.5-1.5-1.5-1.5.7-1.5 1.5.7 1.5 1.5 1.5M130.1 62.7c.8 0 1.4-.6 1.4-1.4 0-.8-.6-1.4-1.4-1.4-.8 0-1.4.6-1.4 1.4 0 .8.6 1.4 1.4 1.4M137.8 62.7c.8 0 1.4-.6 1.4-1.4 0-.8-.6-1.4-1.4-1.4-.8 0-1.4.6-1.4 1.4 0 .7.6 1.4 1.4 1.4M145.4 62.6c.7 0 1.3-.6 1.3-1.3 0-.7-.6-1.3-1.3-1.3-.7 0-1.3.6-1.3 1.3 0 .7.6 1.3 1.3 1.3M153.1 62.5c.7 0 1.2-.5 1.2-1.2s-.5-1.2-1.2-1.2-1.2.5-1.2 1.2c0 .6.5 1.2 1.2 1.2M160.7 62.4c.6 0 1.1-.5 1.1-1.1 0-.6-.5-1.1-1.1-1.1-.6 0-1.1.5-1.1 1.1 0 .6.5 1.1 1.1 1.1M168.4 62.3c.6 0 1-.4 1-1s-.4-1-1-1-1 .4-1 1c0 .5.4 1 1 1M176 62.1c.5 0 .8-.4.8-.8 0-.5-.4-.8-.8-.8-.5 0-.8.4-.8.8 0 .5.4.8.8.8M183.7 62c.4 0 .7-.3.7-.7 0-.4-.3-.7-.7-.7-.4 0-.7.3-.7.7 0 .4.3.7.7.7M191.3 61.9c.3 0 .6-.3.6-.6s-.3-.6-.6-.6-.6.3-.6.6c.1.3.3.6.6.6M199 61.7c.2 0 .4-.2.4-.4s-.2-.4-.4-.4-.4.2-.4.4c-.1.2.1.4.4.4M206.6 61.6c.2 0 .3-.1.3-.3s-.1-.3-.3-.3c-.2 0-.3.1-.3.3s.2.3.3.3M214.3 61.4c.1 0 .1-.1.1-.1l-.1-.1c-.1 0-.1.1-.1.1s0 .1.1.1M7.7 69c.1 0 .1 0 0 0 .1-.1.1-.1 0 0 0-.1 0-.1 0 0M15.4 69.1c.1 0 .2-.1.2-.2s-.1-.2-.2-.2-.2.1-.2.2.1.2.2.2M23 69.3c.2 0 .4-.2.4-.4s-.2-.4-.4-.4-.4.2-.4.4.2.4.4.4M30.7 69.4c.3 0 .5-.2.5-.5s-.2-.5-.5-.5-.5.2-.5.5.2.5.5.5M38.3 69.6c.4 0 .7-.3.7-.7 0-.4-.3-.7-.7-.7-.4 0-.7.3-.7.7.1.4.4.7.7.7M46 69.7c.4 0 .8-.4.8-.8s-.4-.8-.8-.8-.8.4-.8.8c0 .5.3.8.8.8M53.6 69.9c.5 0 1-.4 1-1 0-.5-.4-1-1-1-.5 0-1 .4-1 1 .1.6.5 1 1 1M61.3 70c.6 0 1.1-.5 1.1-1.1 0-.6-.5-1.1-1.1-1.1-.6 0-1.1.5-1.1 1.1 0 .6.5 1.1 1.1 1.1M68.9 70.2c.7 0 1.2-.6 1.2-1.2 0-.7-.6-1.2-1.2-1.2-.7 0-1.2.6-1.2 1.2s.6 1.2 1.2 1.2M76.6 70.3c.8 0 1.4-.6 1.4-1.4s-.6-1.4-1.4-1.4-1.4.6-1.4 1.4.6 1.4 1.4 1.4M84.2 70.4c.8 0 1.4-.6 1.4-1.4 0-.8-.6-1.4-1.4-1.4-.8 0-1.4.6-1.4 1.4 0 .7.6 1.4 1.4 1.4M91.9 70.5c.9 0 1.5-.7 1.5-1.5 0-.9-.7-1.5-1.5-1.5-.9 0-1.5.7-1.5 1.5-.1.8.6 1.5 1.5 1.5M99.5 70.5c.9 0 1.6-.7 1.6-1.6 0-.9-.7-1.6-1.6-1.6-.9 0-1.6.7-1.6 1.6 0 .9.7 1.6 1.6 1.6M107.2 70.6c.9 0 1.7-.7 1.7-1.7 0-.9-.7-1.7-1.7-1.7-.9 0-1.7.7-1.7 1.7 0 .9.8 1.7 1.7 1.7M114.8 70.6c.9 0 1.7-.8 1.7-1.7 0-.9-.8-1.7-1.7-1.7-.9 0-1.7.8-1.7 1.7.1 1 .8 1.7 1.7 1.7M122.5 70.6c.9 0 1.7-.7 1.7-1.7 0-.9-.7-1.7-1.7-1.7-.9 0-1.7.7-1.7 1.7 0 .9.8 1.7 1.7 1.7M130.1 70.5c.9 0 1.6-.7 1.6-1.6 0-.9-.7-1.6-1.6-1.6-.9 0-1.6.7-1.6 1.6 0 .9.7 1.6 1.6 1.6M137.8 70.5c.9 0 1.5-.7 1.5-1.5 0-.9-.7-1.5-1.5-1.5-.9 0-1.5.7-1.5 1.5-.1.8.6 1.5 1.5 1.5M145.4 70.4c.8 0 1.5-.7 1.5-1.5s-.7-1.5-1.5-1.5-1.5.7-1.5 1.5.7 1.5 1.5 1.5M153.1 70.3c.8 0 1.4-.6 1.4-1.4s-.6-1.4-1.4-1.4-1.4.6-1.4 1.4.6 1.4 1.4 1.4M160.7 70.2c.7 0 1.2-.6 1.2-1.2 0-.7-.6-1.2-1.2-1.2-.7 0-1.2.6-1.2 1.2s.5 1.2 1.2 1.2M168.4 70c.6 0 1.1-.5 1.1-1.1 0-.6-.5-1.1-1.1-1.1-.6 0-1.1.5-1.1 1.1 0 .6.5 1.1 1.1 1.1M176 69.9c.5 0 1-.4 1-1s-.4-1-1-1c-.5 0-1 .4-1 1s.5 1 1 1M183.7 69.8c.5 0 .8-.4.8-.8s-.4-.8-.8-.8c-.5 0-.8.4-.8.8s.3.8.8.8M191.3 69.6c.4 0 .7-.3.7-.7s-.3-.7-.7-.7-.7.3-.7.7.4.7.7.7M199 69.5c.3 0 .5-.2.5-.5s-.2-.5-.5-.5-.5.2-.5.5.2.5.5.5M206.6 69.3c.2 0 .4-.2.4-.4s-.2-.4-.4-.4-.4.2-.4.4.2.4.4.4M214.3 69.1c.1 0 .2-.1.2-.2s-.1-.2-.2-.2-.2.1-.2.2.1.2.2.2M221.9 69c.1 0 .1 0 0 0 .1-.1 0-.1 0-.1v.1M7.7 76.7c.1 0 .1 0 .1-.1s0-.1-.1-.1-.1 0-.1.1l.1.1M15.4 76.9c.2 0 .3-.1.3-.3 0-.2-.1-.3-.3-.3-.2 0-.3.1-.3.3 0 .1.1.3.3.3M23 77c.2 0 .4-.2.4-.4s-.2-.4-.4-.4-.4.2-.4.4.2.4.4.4M30.7 77.2c.3 0 .6-.3.6-.6s-.3-.6-.6-.6-.6.3-.6.6.3.6.6.6M38.3 77.3c.4 0 .7-.3.7-.7s-.3-.7-.7-.7c-.4 0-.7.3-.7.7s.3.7.7.7M46 77.5c.5 0 .9-.4.9-.9s-.4-.9-.9-.9-.9.4-.9.9.4.9.9.9M53.6 77.6c.6 0 1.1-.5 1.1-1.1 0-.6-.5-1.1-1.1-1.1-.6 0-1.1.5-1.1 1.1.1.7.5 1.1 1.1 1.1M61.3 77.8c.7 0 1.2-.5 1.2-1.2s-.5-1.2-1.2-1.2-1.2.5-1.2 1.2c0 .6.5 1.2 1.2 1.2M68.9 77.9c.8 0 1.4-.6 1.4-1.4 0-.8-.6-1.4-1.4-1.4-.7 0-1.4.6-1.4 1.4.1.8.7 1.4 1.4 1.4M76.6 78.1c.8 0 1.5-.7 1.5-1.5s-.7-1.5-1.5-1.5-1.5.7-1.5 1.5.7 1.5 1.5 1.5M84.2 78.2c.9 0 1.6-.7 1.6-1.6s-.7-1.6-1.6-1.6c-.9 0-1.6.7-1.6 1.6s.8 1.6 1.6 1.6M91.9 78.3c.9 0 1.7-.8 1.7-1.7s-.8-1.7-1.7-1.7c-.9 0-1.7.8-1.7 1.7s.7 1.7 1.7 1.7M99.5 78.4c1 0 1.8-.8 1.8-1.8s-.8-1.8-1.8-1.8-1.8.8-1.8 1.8.8 1.8 1.8 1.8M107.2 78.4c1 0 1.8-.8 1.8-1.8s-.8-1.8-1.8-1.8-1.8.8-1.8 1.8.8 1.8 1.8 1.8M114.8 78.4c1 0 1.8-.8 1.8-1.8s-.8-1.8-1.8-1.8-1.8.8-1.8 1.8.8 1.8 1.8 1.8M122.5 78.4c1 0 1.8-.8 1.8-1.8s-.8-1.8-1.8-1.8-1.8.8-1.8 1.8.8 1.8 1.8 1.8M130.1 78.4c1 0 1.8-.8 1.8-1.8s-.8-1.8-1.8-1.8-1.8.8-1.8 1.8.8 1.8 1.8 1.8M137.8 78.3c.9 0 1.7-.8 1.7-1.7s-.8-1.7-1.7-1.7c-.9 0-1.7.8-1.7 1.7s.7 1.7 1.7 1.7M145.4 78.2c.9 0 1.6-.7 1.6-1.6 0-.9-.7-1.6-1.6-1.6-.9 0-1.6.7-1.6 1.6 0 .9.7 1.6 1.6 1.6M153.1 78.1c.8 0 1.5-.7 1.5-1.5s-.7-1.5-1.5-1.5-1.5.7-1.5 1.5.7 1.5 1.5 1.5M160.7 77.9c.7 0 1.4-.6 1.4-1.4 0-.8-.6-1.4-1.4-1.4-.8 0-1.4.6-1.4 1.4.1.8.7 1.4 1.4 1.4M168.4 77.8c.7 0 1.2-.6 1.2-1.2 0-.7-.6-1.2-1.2-1.2-.7 0-1.2.6-1.2 1.2-.1.7.5 1.2 1.2 1.2M176 77.7c.6 0 1.1-.5 1.1-1.1 0-.6-.5-1.1-1.1-1.1-.6 0-1.1.5-1.1 1.1 0 .6.5 1.1 1.1 1.1M183.7 77.5c.5 0 .9-.4.9-.9s-.4-.9-.9-.9-.9.4-.9.9c-.1.5.4.9.9.9M191.3 77.3c.4 0 .8-.3.8-.8s-.3-.8-.8-.8c-.4 0-.8.3-.8.8s.4.8.8.8M199 77.2c.3 0 .6-.3.6-.6s-.3-.6-.6-.6-.6.3-.6.6.2.6.6.6M206.6 77c.2 0 .4-.2.4-.4s-.2-.4-.4-.4-.4.2-.4.4.2.4.4.4M214.3 76.9c.2 0 .3-.1.3-.3 0-.2-.1-.3-.3-.3-.2 0-.3.1-.3.3 0 .1.1.3.3.3M221.9 76.7c.1 0 .1-.1.1-.1 0-.1-.1-.1-.1-.1-.1 0-.1.1-.1.1 0 .1.1.1.1.1M.1 84.3s0-.1 0 0c0-.1 0-.1 0 0 0-.1 0-.1 0 0 0-.1 0 0 0 0M7.7 84.4c.1 0 .2-.1.2-.2s-.1-.2-.2-.2-.2.1-.2.2c.1.1.1.2.2.2M15.4 84.5c.2 0 .3-.1.3-.3 0-.2-.1-.3-.3-.3-.2 0-.3.1-.3.3 0 .2.1.3.3.3M23 84.7c.3 0 .5-.2.5-.5s-.2-.5-.5-.5-.5.2-.5.5.3.5.5.5M30.7 84.9c.4 0 .7-.3.7-.7 0-.4-.3-.7-.7-.7-.4 0-.7.3-.7.7 0 .4.3.7.7.7M38.3 85.1c.5 0 .8-.4.8-.8 0-.5-.4-.8-.8-.8-.5 0-.8.4-.8.8s.4.8.8.8M46 85.2c.6 0 1-.4 1-1s-.4-1-1-1-1 .4-1 1 .4 1 1 1M53.6 85.4c.6 0 1.1-.5 1.1-1.1 0-.6-.5-1.1-1.1-1.1-.6 0-1.1.5-1.1 1.1 0 .6.5 1.1 1.1 1.1M61.3 85.5c.7 0 1.3-.6 1.3-1.3 0-.7-.6-1.3-1.3-1.3-.7 0-1.3.6-1.3 1.3 0 .7.6 1.3 1.3 1.3M68.9 85.7c.8 0 1.4-.6 1.4-1.4 0-.8-.6-1.4-1.4-1.4-.8 0-1.4.6-1.4 1.4 0 .7.6 1.4 1.4 1.4M76.6 85.8c.9 0 1.6-.7 1.6-1.6s-.7-1.6-1.6-1.6c-.9 0-1.6.7-1.6 1.6s.7 1.6 1.6 1.6M84.2 85.9c.9 0 1.7-.8 1.7-1.7 0-.9-.8-1.7-1.7-1.7-.9 0-1.7.8-1.7 1.7 0 1 .8 1.7 1.7 1.7M91.9 86.1c1 0 1.8-.8 1.8-1.8s-.8-1.8-1.8-1.8-1.8.8-1.8 1.8c-.1 1 .8 1.8 1.8 1.8M99.5 86.2c1.1 0 2-.9 2-2s-.9-2-2-2-2 .9-2 2c.1 1.1 1 2 2 2M107.2 86.2c1.1 0 2-.9 2-2s-.9-2-2-2-2 .9-2 2 .9 2 2 2M114.8 86.2c1.1 0 2-.9 2-2s-.9-2-2-2-2 .9-2 2 .9 2 2 2M122.5 86.2c1.1 0 2-.9 2-2s-.9-2-2-2-2 .9-2 2 .9 2 2 2M130.1 86.2c1.1 0 2-.9 2-2s-.9-2-2-2-2 .9-2 2c.1 1.1 1 2 2 2M137.8 86.1c1 0 1.8-.8 1.8-1.8s-.8-1.8-1.8-1.8-1.8.8-1.8 1.8c-.1 1 .8 1.8 1.8 1.8M145.4 86c1 0 1.7-.8 1.7-1.7 0-1-.8-1.7-1.7-1.7-1 0-1.7.8-1.7 1.7 0 .9.8 1.7 1.7 1.7M153.1 85.8c.9 0 1.6-.7 1.6-1.6 0-.9-.7-1.6-1.6-1.6-.9 0-1.6.7-1.6 1.6 0 .9.7 1.6 1.6 1.6M160.7 85.7c.8 0 1.5-.7 1.5-1.5s-.7-1.5-1.5-1.5-1.5.7-1.5 1.5c.1.8.7 1.5 1.5 1.5M168.4 85.5c.7 0 1.3-.6 1.3-1.3 0-.7-.6-1.3-1.3-1.3-.7 0-1.3.6-1.3 1.3 0 .8.6 1.3 1.3 1.3M176 85.4c.6 0 1.2-.5 1.2-1.2 0-.6-.5-1.2-1.2-1.2-.6 0-1.2.5-1.2 1.2.1.7.6 1.2 1.2 1.2M183.7 85.2c.5 0 1-.4 1-1s-.4-1-1-1-1 .4-1 1 .4 1 1 1M191.3 85.1c.5 0 .8-.4.8-.8 0-.5-.4-.8-.8-.8-.5 0-.8.4-.8.8s.4.8.8.8M199 84.9c.4 0 .7-.3.7-.7s-.3-.7-.7-.7-.7.3-.7.7.3.7.7.7M206.6 84.7c.3 0 .5-.2.5-.5s-.2-.5-.5-.5-.5.2-.5.5.2.5.5.5M214.3 84.6c.2 0 .3-.2.3-.3 0-.2-.2-.3-.3-.3-.2 0-.3.2-.3.3-.1.1.1.3.3.3M221.9 84.4c.1 0 .2-.1.2-.2s-.1-.2-.2-.2-.2.1-.2.2c.1.1.1.2.2.2M229.6 84.3s0-.1 0 0c0-.1 0-.1 0 0 0-.1 0-.1 0 0 0-.1 0 0 0 0M.1 91.9s0-.1 0 0c0-.1-.1 0 0 0-.1 0 0 0 0 0M7.7 92.1c.1 0 .2-.1.2-.2s-.1-.2-.2-.2-.2.1-.2.2.1.2.2.2M15.4 92.3c.2 0 .4-.2.4-.4s-.2-.4-.4-.4-.4.2-.4.4.2.4.4.4M23 92.4c.3 0 .6-.2.6-.6 0-.3-.2-.6-.6-.6-.3 0-.6.2-.6.6.1.4.3.6.6.6M30.7 92.6c.4 0 .7-.3.7-.7 0-.4-.3-.7-.7-.7-.4 0-.7.3-.7.7 0 .4.3.7.7.7M38.3 92.8c.5 0 .9-.4.9-.9s-.4-.9-.9-.9-.9.4-.9.9.4.9.9.9M46 92.9c.6 0 1.1-.5 1.1-1.1 0-.6-.5-1.1-1.1-1.1-.6 0-1.1.5-1.1 1.1 0 .7.5 1.1 1.1 1.1M53.6 93.1c.7 0 1.2-.6 1.2-1.2 0-.7-.6-1.2-1.2-1.2-.7 0-1.2.6-1.2 1.2 0 .7.6 1.2 1.2 1.2M61.3 93.3c.8 0 1.4-.6 1.4-1.4 0-.8-.6-1.4-1.4-1.4-.8 0-1.4.6-1.4 1.4 0 .7.6 1.4 1.4 1.4M68.9 93.4c.9 0 1.5-.7 1.5-1.5 0-.9-.7-1.5-1.5-1.5-.9 0-1.5.7-1.5 1.5s.7 1.5 1.5 1.5M76.6 93.6c.9 0 1.7-.8 1.7-1.7 0-.9-.8-1.7-1.7-1.7-.9 0-1.7.8-1.7 1.7 0 .9.7 1.7 1.7 1.7M84.2 93.7c1 0 1.8-.8 1.8-1.8s-.8-1.8-1.8-1.8-1.8.8-1.8 1.8.8 1.8 1.8 1.8M91.9 93.9c1.1 0 2-.9 2-2s-.9-2-2-2-2 .9-2 2 .9 2 2 2M99.5 94c1.1 0 2.1-.9 2.1-2.1s-.9-2.1-2.1-2.1c-1.1 0-2.1.9-2.1 2.1s1 2.1 2.1 2.1M107.2 94c1.2 0 2.2-1 2.2-2.2 0-1.2-1-2.2-2.2-2.2-1.2 0-2.2 1-2.2 2.2 0 1.3 1 2.2 2.2 2.2M114.8 94.1c1.2 0 2.2-1 2.2-2.2s-1-2.2-2.2-2.2c-1.2 0-2.2 1-2.2 2.2s1 2.2 2.2 2.2M122.5 94c1.2 0 2.2-1 2.2-2.2 0-1.2-1-2.2-2.2-2.2-1.2 0-2.2 1-2.2 2.2 0 1.3 1 2.2 2.2 2.2M130.1 94c1.2 0 2.1-.9 2.1-2.1s-.9-2.1-2.1-2.1c-1.2 0-2.1.9-2.1 2.1s1 2.1 2.1 2.1M137.8 93.9c1.1 0 2-.9 2-2s-.9-2-2-2-2 .9-2 2 .9 2 2 2M145.4 93.7c1 0 1.8-.8 1.8-1.8s-.8-1.8-1.8-1.8-1.8.8-1.8 1.8.8 1.8 1.8 1.8M153.1 93.6c.9 0 1.7-.8 1.7-1.7 0-.9-.8-1.7-1.7-1.7-.9 0-1.7.8-1.7 1.7 0 .9.7 1.7 1.7 1.7M160.7 93.4c.9 0 1.5-.7 1.5-1.5 0-.9-.7-1.5-1.5-1.5-.9 0-1.5.7-1.5 1.5s.7 1.5 1.5 1.5M168.4 93.3c.8 0 1.4-.6 1.4-1.4 0-.8-.6-1.4-1.4-1.4-.8 0-1.4.6-1.4 1.4 0 .8.6 1.4 1.4 1.4M176 93.1c.7 0 1.2-.6 1.2-1.2 0-.7-.6-1.2-1.2-1.2-.7 0-1.2.6-1.2 1.2 0 .7.5 1.2 1.2 1.2M183.7 92.9c.6 0 1.1-.5 1.1-1.1 0-.6-.5-1.1-1.1-1.1-.6 0-1.1.5-1.1 1.1 0 .7.5 1.1 1.1 1.1M191.3 92.8c.5 0 .9-.4.9-.9s-.4-.9-.9-.9-.9.4-.9.9.4.9.9.9M199 92.6c.4 0 .7-.3.7-.7 0-.4-.3-.7-.7-.7-.4 0-.7.3-.7.7 0 .4.3.7.7.7M206.6 92.4c.3 0 .6-.2.6-.6 0-.3-.2-.6-.6-.6-.3 0-.6.2-.6.6.1.4.3.6.6.6M214.3 92.3c.2 0 .4-.2.4-.4s-.2-.4-.4-.4-.4.2-.4.4.2.4.4.4M221.9 92.1c.1 0 .2-.1.2-.2s-.1-.2-.2-.2-.2.1-.2.2.1.2.2.2M229.6 91.9s0-.1 0 0c0-.1-.1 0 0 0-.1 0 0 0 0 0M.1 99.6c.1-.1 0-.1 0-.1s-.1 0 0 .1c-.1 0-.1 0 0 0M7.7 99.8c.1 0 .2-.1.2-.2s-.1-.2-.2-.2-.2.1-.2.2.1.2.2.2M15.4 99.9c.2 0 .4-.2.4-.4s-.2-.4-.4-.4-.4.2-.4.4c0 .3.2.4.4.4M23 100.1c.3 0 .6-.3.6-.6s-.3-.6-.6-.6-.6.3-.6.6c.1.3.3.6.6.6M30.7 100.3c.4 0 .8-.3.8-.8s-.3-.8-.8-.8c-.4 0-.8.3-.8.8s.4.8.8.8M38.3 100.5c.5 0 .9-.4.9-.9s-.4-.9-.9-.9-.9.4-.9.9c0 .4.4.9.9.9M46 100.6c.6 0 1.1-.5 1.1-1.1 0-.6-.5-1.1-1.1-1.1-.6 0-1.1.5-1.1 1.1 0 .6.5 1.1 1.1 1.1M53.6 100.8c.7 0 1.3-.6 1.3-1.3 0-.7-.6-1.3-1.3-1.3-.7 0-1.3.6-1.3 1.3.1.7.6 1.3 1.3 1.3M61.3 101c.8 0 1.4-.6 1.4-1.4 0-.8-.6-1.4-1.4-1.4-.8 0-1.4.6-1.4 1.4-.1.7.6 1.4 1.4 1.4M68.9 101.1c.9 0 1.6-.7 1.6-1.6 0-.9-.7-1.6-1.6-1.6-.9 0-1.6.7-1.6 1.6 0 .9.7 1.6 1.6 1.6M76.6 101.3c1 0 1.8-.8 1.8-1.8s-.8-1.8-1.8-1.8-1.8.8-1.8 1.8.8 1.8 1.8 1.8M84.2 101.5c1.1 0 2-.9 2-2s-.9-2-2-2-2 .9-2 2c.1 1.1 1 2 2 2M91.9 101.6c1.1 0 2.1-.9 2.1-2.1s-.9-2.1-2.1-2.1c-1.1 0-2.1.9-2.1 2.1s.9 2.1 2.1 2.1M99.5 101.8c1.2 0 2.2-1 2.2-2.2 0-1.2-1-2.2-2.2-2.2-1.2 0-2.2 1-2.2 2.2 0 1.2 1 2.2 2.2 2.2M107.2 101.9c1.3 0 2.3-1 2.3-2.3s-1-2.3-2.3-2.3c-1.3 0-2.3 1-2.3 2.3s1 2.3 2.3 2.3M114.8 101.9c1.3 0 2.4-1.1 2.4-2.4 0-1.3-1.1-2.4-2.4-2.4-1.3 0-2.4 1.1-2.4 2.4.1 1.3 1.1 2.4 2.4 2.4M122.5 101.9c1.3 0 2.3-1 2.3-2.3s-1-2.3-2.3-2.3c-1.3 0-2.3 1-2.3 2.3s1 2.3 2.3 2.3M130.1 101.8c1.2 0 2.2-1 2.2-2.2 0-1.2-1-2.2-2.2-2.2-1.2 0-2.2 1-2.2 2.2 0 1.2 1 2.2 2.2 2.2M137.8 101.6c1.2 0 2.1-.9 2.1-2.1s-.9-2.1-2.1-2.1c-1.2 0-2.1.9-2.1 2.1s.9 2.1 2.1 2.1M145.4 101.5c1.1 0 2-.9 2-2s-.9-2-2-2-2 .9-2 2c.1 1.1 1 2 2 2M153.1 101.3c1 0 1.8-.8 1.8-1.8s-.8-1.8-1.8-1.8-1.8.8-1.8 1.8.8 1.8 1.8 1.8M160.7 101.1c.9 0 1.6-.7 1.6-1.6 0-.9-.7-1.6-1.6-1.6-.9 0-1.6.7-1.6 1.6 0 .9.7 1.6 1.6 1.6M168.4 101c.8 0 1.5-.7 1.5-1.5s-.7-1.5-1.5-1.5-1.5.7-1.5 1.5.7 1.5 1.5 1.5M176 100.8c.7 0 1.3-.6 1.3-1.3 0-.7-.6-1.3-1.3-1.3-.7 0-1.3.6-1.3 1.3 0 .7.6 1.3 1.3 1.3M183.7 100.7c.6 0 1.1-.5 1.1-1.1s-.5-1.1-1.1-1.1c-.6 0-1.1.5-1.1 1.1s.5 1.1 1.1 1.1M191.3 100.5c.5 0 .9-.4.9-.9s-.4-.9-.9-.9-.9.4-.9.9c0 .4.4.9.9.9M199 100.3c.4 0 .8-.3.8-.8s-.3-.8-.8-.8c-.4 0-.8.3-.8.8s.4.8.8.8M206.6 100.1c.3 0 .6-.3.6-.6s-.3-.6-.6-.6-.6.3-.6.6.3.6.6.6M214.3 100c.2 0 .4-.2.4-.4s-.2-.4-.4-.4-.4.2-.4.4.1.4.4.4M221.9 99.8c.1 0 .3-.1.3-.3 0-.1-.1-.3-.3-.3-.1 0-.3.1-.3.3.1.2.2.3.3.3M229.6 99.6s.1 0 0 0c.1-.1 0-.2 0-.2-.1 0-.1.1 0 .2-.1 0-.1 0 0 0M.1 107.3s.1-.1 0 0c.1-.1 0-.2 0-.2s-.1 0 0 .2c-.1-.1-.1 0 0 0M7.7 107.4c.1 0 .3-.1.3-.3s-.1-.3-.3-.3c-.1 0-.3.1-.3.3s.2.3.3.3M15.4 107.6c.2 0 .4-.2.4-.4s-.2-.4-.4-.4-.4.2-.4.4.2.4.4.4M23 107.8c.3 0 .6-.3.6-.6s-.3-.6-.6-.6-.6.3-.6.6.3.6.6.6M30.7 108c.4 0 .8-.4.8-.8s-.4-.8-.8-.8-.8.4-.8.8.4.8.8.8M38.3 108.1c.5 0 1-.4 1-1 0-.5-.4-1-1-1-.5 0-1 .4-1 1 .1.6.5 1 1 1M46 108.3c.6 0 1.1-.5 1.1-1.1 0-.6-.5-1.1-1.1-1.1-.6 0-1.1.5-1.1 1.1 0 .6.5 1.1 1.1 1.1M53.6 108.5c.7 0 1.3-.6 1.3-1.3 0-.7-.6-1.3-1.3-1.3-.7 0-1.3.6-1.3 1.3 0 .7.6 1.3 1.3 1.3M61.3 108.7c.8 0 1.5-.7 1.5-1.5s-.7-1.5-1.5-1.5-1.5.7-1.5 1.5.7 1.5 1.5 1.5M68.9 108.8c.9 0 1.7-.7 1.7-1.7 0-.9-.7-1.7-1.7-1.7-.9 0-1.7.7-1.7 1.7.1 1 .8 1.7 1.7 1.7M76.6 109c1 0 1.8-.8 1.8-1.8s-.8-1.8-1.8-1.8-1.8.8-1.8 1.8.8 1.8 1.8 1.8M84.2 109.2c1.1 0 2-.9 2-2s-.9-2-2-2-2 .9-2 2 .9 2 2 2M91.9 109.3c1.2 0 2.2-1 2.2-2.2s-1-2.2-2.2-2.2c-1.2 0-2.2 1-2.2 2.2s1 2.2 2.2 2.2M99.5 109.5c1.3 0 2.3-1 2.3-2.3 0-1.3-1-2.3-2.3-2.3-1.3 0-2.3 1-2.3 2.3 0 1.3 1 2.3 2.3 2.3M107.2 109.7c1.4 0 2.5-1.1 2.5-2.5s-1.1-2.5-2.5-2.5-2.5 1.1-2.5 2.5 1.1 2.5 2.5 2.5M114.8 109.7c1.4 0 2.5-1.1 2.5-2.5s-1.1-2.5-2.5-2.5-2.5 1.1-2.5 2.5 1.1 2.5 2.5 2.5M122.5 109.7c1.4 0 2.5-1.1 2.5-2.5s-1.1-2.5-2.5-2.5-2.5 1.1-2.5 2.5 1.1 2.5 2.5 2.5M130.1 109.5c1.3 0 2.3-1 2.3-2.3 0-1.3-1-2.3-2.3-2.3-1.3 0-2.3 1-2.3 2.3 0 1.3 1 2.3 2.3 2.3M137.8 109.4c1.2 0 2.2-1 2.2-2.2s-1-2.2-2.2-2.2c-1.2 0-2.2 1-2.2 2.2s1 2.2 2.2 2.2M145.4 109.2c1.1 0 2-.9 2-2s-.9-2-2-2-2 .9-2 2 .9 2 2 2M153.1 109c1 0 1.8-.8 1.8-1.8s-.8-1.8-1.8-1.8-1.8.8-1.8 1.8c-.1 1 .8 1.8 1.8 1.8M160.7 108.9c.9 0 1.7-.8 1.7-1.7 0-.9-.8-1.7-1.7-1.7-.9 0-1.7.8-1.7 1.7.1.9.8 1.7 1.7 1.7M168.4 108.7c.8 0 1.5-.7 1.5-1.5s-.7-1.5-1.5-1.5-1.5.7-1.5 1.5.7 1.5 1.5 1.5M176 108.5c.7 0 1.3-.6 1.3-1.3 0-.7-.6-1.3-1.3-1.3-.7 0-1.3.6-1.3 1.3 0 .7.6 1.3 1.3 1.3M183.7 108.3c.6 0 1.1-.5 1.1-1.1 0-.6-.5-1.1-1.1-1.1-.6 0-1.1.5-1.1 1.1-.1.6.4 1.1 1.1 1.1M191.3 108.2c.5 0 1-.4 1-1s-.4-1-1-1c-.5 0-1 .4-1 1s.5 1 1 1M199 108c.4 0 .8-.4.8-.8s-.4-.8-.8-.8-.8.4-.8.8.3.8.8.8M206.6 107.8c.3 0 .6-.3.6-.6s-.3-.6-.6-.6-.6.3-.6.6.3.6.6.6M214.3 107.6c.2 0 .4-.2.4-.4s-.2-.4-.4-.4-.4.2-.4.4c-.1.2.1.4.4.4M221.9 107.5c.2 0 .3-.1.3-.3s-.1-.3-.3-.3c-.2 0-.3.1-.3.3s.2.3.3.3M229.6 107.3s.1-.1 0 0c.1-.1 0-.2 0-.2-.1 0-.1 0 0 .2-.1-.1-.1 0 0 0M.1 114.9s.1 0 0 0c.1-.1 0-.2 0-.2s-.1.1 0 .2c-.1 0-.1 0 0 0M7.7 115.1c.1 0 .3-.1.3-.3 0-.1-.1-.3-.3-.3-.1 0-.3.1-.3.3.1.2.2.3.3.3M15.4 115.3c.2 0 .4-.2.4-.4s-.2-.4-.4-.4-.4.2-.4.4.2.4.4.4M23 115.4c.3 0 .6-.3.6-.6s-.3-.6-.6-.6-.6.3-.6.6c0 .4.3.6.6.6M30.7 115.6c.4 0 .8-.4.8-.8s-.4-.8-.8-.8-.8.4-.8.8c0 .5.4.8.8.8M38.3 115.8c.5 0 1-.4 1-1 0-.5-.4-1-1-1-.5 0-1 .4-1 1 .1.6.5 1 1 1M46 116c.6 0 1.1-.5 1.1-1.1 0-.6-.5-1.1-1.1-1.1-.6 0-1.1.5-1.1 1.1-.1.6.5 1.1 1.1 1.1M53.6 116.1c.7 0 1.3-.6 1.3-1.3 0-.7-.6-1.3-1.3-1.3-.7 0-1.3.6-1.3 1.3 0 .8.6 1.3 1.3 1.3M61.3 116.3c.8 0 1.5-.7 1.5-1.5s-.7-1.5-1.5-1.5-1.5.7-1.5 1.5.7 1.5 1.5 1.5M68.9 116.5c.9 0 1.7-.8 1.7-1.7 0-.9-.8-1.7-1.7-1.7-.9 0-1.7.8-1.7 1.7.1 1 .8 1.7 1.7 1.7M76.6 116.7c1 0 1.8-.8 1.8-1.8s-.8-1.8-1.8-1.8-1.8.8-1.8 1.8c-.1 1 .8 1.8 1.8 1.8M84.2 116.8c1.1 0 2-.9 2-2s-.9-2-2-2-2 .9-2 2 .9 2 2 2M91.9 117c1.2 0 2.2-1 2.2-2.2 0-1.2-1-2.2-2.2-2.2-1.2 0-2.2 1-2.2 2.2 0 1.2 1 2.2 2.2 2.2M99.5 117.2c1.3 0 2.4-1.1 2.4-2.4 0-1.3-1.1-2.4-2.4-2.4-1.3 0-2.4 1.1-2.4 2.4.1 1.3 1.1 2.4 2.4 2.4M107.2 117.4c1.4 0 2.5-1.1 2.5-2.5s-1.1-2.5-2.5-2.5-2.5 1.1-2.5 2.5c-.1 1.3 1.1 2.5 2.5 2.5M114.8 117.5c1.5 0 2.7-1.2 2.7-2.7s-1.2-2.7-2.7-2.7c-1.5 0-2.7 1.2-2.7 2.7s1.3 2.7 2.7 2.7M122.5 117.4c1.4 0 2.6-1.1 2.6-2.6 0-1.4-1.1-2.6-2.6-2.6-1.4 0-2.6 1.1-2.6 2.6 0 1.4 1.2 2.6 2.6 2.6M130.1 117.2c1.3 0 2.4-1.1 2.4-2.4s-1.1-2.4-2.4-2.4c-1.3 0-2.4 1.1-2.4 2.4s1.1 2.4 2.4 2.4M137.8 117c1.2 0 2.2-1 2.2-2.2 0-1.2-1-2.2-2.2-2.2-1.2 0-2.2 1-2.2 2.2 0 1.2 1 2.2 2.2 2.2M145.4 116.9c1.1 0 2-.9 2-2s-.9-2-2-2-2 .9-2 2 .9 2 2 2M153.1 116.7c1 0 1.9-.8 1.9-1.9 0-1-.8-1.9-1.9-1.9-1 0-1.9.8-1.9 1.9 0 1.1.8 1.9 1.9 1.9M160.7 116.5c.9 0 1.7-.8 1.7-1.7 0-.9-.8-1.7-1.7-1.7-.9 0-1.7.8-1.7 1.7.1 1 .8 1.7 1.7 1.7M168.4 116.3c.8 0 1.5-.7 1.5-1.5s-.7-1.5-1.5-1.5-1.5.7-1.5 1.5.6 1.5 1.5 1.5M176 116.2c.7 0 1.3-.6 1.3-1.3s-.6-1.3-1.3-1.3c-.7 0-1.3.6-1.3 1.3s.6 1.3 1.3 1.3M183.7 116c.6 0 1.2-.5 1.2-1.2 0-.6-.5-1.2-1.2-1.2-.6 0-1.2.5-1.2 1.2s.5 1.2 1.2 1.2M191.3 115.8c.5 0 1-.4 1-1 0-.5-.4-1-1-1-.5 0-1 .4-1 1 .1.6.5 1 1 1M199 115.6c.4 0 .8-.4.8-.8s-.4-.8-.8-.8-.8.4-.8.8c0 .5.3.8.8.8M206.6 115.4c.3 0 .6-.3.6-.6s-.3-.6-.6-.6-.6.3-.6.6c0 .4.3.6.6.6M214.3 115.3c.2 0 .4-.2.4-.4s-.2-.4-.4-.4-.4.2-.4.4c-.1.2.1.4.4.4M221.9 115.1c.2 0 .3-.1.3-.3s-.1-.3-.3-.3c-.2 0-.3.1-.3.3s.2.3.3.3M229.6 114.9c.1 0 .1 0 .1-.1s0-.1-.1-.1-.1 0-.1.1 0 .1.1.1M.1 122.6s.1-.1 0 0c.1-.1 0-.2 0-.2s-.1 0 0 .2c-.1-.1-.1 0 0 0M7.7 122.7c.1 0 .3-.1.3-.3 0-.1-.1-.3-.3-.3-.1 0-.3.1-.3.3.1.2.2.3.3.3M15.4 122.9c.2 0 .4-.2.4-.4s-.2-.4-.4-.4-.4.2-.4.4.2.4.4.4M23 123.1c.3 0 .6-.3.6-.6s-.3-.6-.6-.6-.6.3-.6.6.3.6.6.6M30.7 123.3c.4 0 .8-.4.8-.8s-.4-.8-.8-.8-.8.4-.8.8.4.8.8.8M38.3 123.4c.5 0 1-.4 1-1s-.4-1-1-1c-.5 0-1 .4-1 1s.5 1 1 1M46 123.6c.6 0 1.1-.5 1.1-1.1 0-.6-.5-1.1-1.1-1.1-.6 0-1.1.5-1.1 1.1 0 .6.5 1.1 1.1 1.1M53.6 123.8c.7 0 1.3-.6 1.3-1.3 0-.7-.6-1.3-1.3-1.3-.7 0-1.3.6-1.3 1.3 0 .7.6 1.3 1.3 1.3M61.3 124c.8 0 1.5-.7 1.5-1.5s-.7-1.5-1.5-1.5-1.5.7-1.5 1.5.7 1.5 1.5 1.5M68.9 124.1c.9 0 1.7-.7 1.7-1.7 0-.9-.7-1.7-1.7-1.7-.9 0-1.7.7-1.7 1.7.1 1 .8 1.7 1.7 1.7M76.6 124.3c1 0 1.8-.8 1.8-1.8s-.8-1.8-1.8-1.8-1.8.8-1.8 1.8.8 1.8 1.8 1.8M84.2 124.5c1.1 0 2-.9 2-2s-.9-2-2-2-2 .9-2 2 .9 2 2 2M91.9 124.6c1.2 0 2.2-1 2.2-2.2s-1-2.2-2.2-2.2c-1.2 0-2.2 1-2.2 2.2s1 2.2 2.2 2.2M99.5 124.8c1.3 0 2.3-1 2.3-2.3 0-1.3-1-2.3-2.3-2.3-1.3 0-2.3 1-2.3 2.3 0 1.3 1 2.3 2.3 2.3M107.2 125c1.4 0 2.5-1.1 2.5-2.5s-1.1-2.5-2.5-2.5-2.5 1.1-2.5 2.5 1.1 2.5 2.5 2.5M114.8 125c1.4 0 2.6-1.1 2.6-2.6 0-1.4-1.1-2.6-2.6-2.6-1.4 0-2.6 1.1-2.6 2.6.1 1.5 1.2 2.6 2.6 2.6M122.5 125c1.4 0 2.5-1.1 2.5-2.5s-1.1-2.5-2.5-2.5-2.5 1.1-2.5 2.5 1.1 2.5 2.5 2.5M130.1 124.8c1.3 0 2.4-1.1 2.4-2.4 0-1.3-1.1-2.4-2.4-2.4-1.3 0-2.4 1.1-2.4 2.4.1 1.4 1.1 2.4 2.4 2.4M137.8 124.7c1.2 0 2.2-1 2.2-2.2s-1-2.2-2.2-2.2c-1.2 0-2.2 1-2.2 2.2s1 2.2 2.2 2.2M145.4 124.5c1.1 0 2-.9 2-2s-.9-2-2-2-2 .9-2 2 .9 2 2 2M153.1 124.3c1 0 1.8-.8 1.8-1.8s-.8-1.8-1.8-1.8-1.8.8-1.8 1.8c-.1 1 .8 1.8 1.8 1.8M160.7 124.2c.9 0 1.7-.8 1.7-1.7 0-.9-.8-1.7-1.7-1.7-.9 0-1.7.8-1.7 1.7.1.9.8 1.7 1.7 1.7M168.4 124c.8 0 1.5-.7 1.5-1.5s-.7-1.5-1.5-1.5-1.5.7-1.5 1.5.6 1.5 1.5 1.5M176 123.8c.7 0 1.3-.6 1.3-1.3 0-.7-.6-1.3-1.3-1.3-.7 0-1.3.6-1.3 1.3 0 .7.6 1.3 1.3 1.3M183.7 123.6c.6 0 1.1-.5 1.1-1.1 0-.6-.5-1.1-1.1-1.1-.6 0-1.1.5-1.1 1.1-.1.6.4 1.1 1.1 1.1M191.3 123.5c.5 0 1-.4 1-1s-.4-1-1-1c-.5 0-1 .4-1 1s.5 1 1 1M199 123.3c.4 0 .8-.4.8-.8s-.4-.8-.8-.8-.8.4-.8.8.3.8.8.8M206.6 123.1c.3 0 .6-.3.6-.6s-.3-.6-.6-.6-.6.3-.6.6.3.6.6.6M214.3 122.9c.2 0 .4-.2.4-.4s-.2-.4-.4-.4-.4.2-.4.4c-.1.2.1.4.4.4M221.9 122.8c.2 0 .3-.1.3-.3s-.1-.3-.3-.3c-.2 0-.3.1-.3.3s.2.3.3.3M229.6 122.6s.1-.1 0 0c.1-.1 0-.2 0-.2-.1 0-.1 0 0 .2-.1-.1-.1 0 0 0M.1 130.2c.1-.1 0-.1 0-.1s-.1 0 0 .1c-.1 0-.1 0 0 0M7.7 130.4c.1 0 .2-.1.2-.2s-.1-.2-.2-.2-.2.1-.2.2.1.2.2.2M15.4 130.5c.2 0 .4-.2.4-.4s-.2-.4-.4-.4-.4.2-.4.4c0 .3.2.4.4.4M23 130.7c.3 0 .6-.3.6-.6s-.3-.6-.6-.6-.6.3-.6.6c0 .4.3.6.6.6M30.7 130.9c.4 0 .8-.3.8-.8 0-.4-.3-.8-.8-.8-.4 0-.8.3-.8.8s.4.8.8.8M38.3 131.1c.5 0 .9-.4.9-.9s-.4-.9-.9-.9-.9.4-.9.9c0 .4.4.9.9.9M46 131.2c.6 0 1.1-.5 1.1-1.1 0-.6-.5-1.1-1.1-1.1-.6 0-1.1.5-1.1 1.1 0 .6.5 1.1 1.1 1.1M53.6 131.4c.7 0 1.3-.6 1.3-1.3 0-.7-.6-1.3-1.3-1.3-.7 0-1.3.6-1.3 1.3.1.7.6 1.3 1.3 1.3M61.3 131.6c.8 0 1.4-.6 1.4-1.4 0-.8-.6-1.4-1.4-1.4-.8 0-1.4.6-1.4 1.4-.1.7.6 1.4 1.4 1.4M68.9 131.7c.9 0 1.6-.7 1.6-1.6 0-.9-.7-1.6-1.6-1.6-.9 0-1.6.7-1.6 1.6 0 .9.7 1.6 1.6 1.6M76.6 131.9c1 0 1.8-.8 1.8-1.8s-.8-1.8-1.8-1.8-1.8.8-1.8 1.8.8 1.8 1.8 1.8M84.2 132.1c1.1 0 2-.9 2-2s-.9-2-2-2-2 .9-2 2c.1 1.1 1 2 2 2M91.9 132.2c1.2 0 2.1-.9 2.1-2.1s-1-2.1-2.1-2.1c-1.2 0-2.1.9-2.1 2.1s.9 2.1 2.1 2.1M99.5 132.4c1.2 0 2.2-1 2.2-2.2 0-1.2-1-2.2-2.2-2.2-1.2 0-2.2 1-2.2 2.2 0 1.2 1 2.2 2.2 2.2M107.2 132.5c1.3 0 2.3-1 2.3-2.3 0-1.3-1-2.3-2.3-2.3-1.3 0-2.3 1-2.3 2.3-.1 1.2 1 2.3 2.3 2.3M114.8 132.5c1.3 0 2.4-1.1 2.4-2.4 0-1.3-1.1-2.4-2.4-2.4-1.3 0-2.4 1.1-2.4 2.4 0 1.4 1.1 2.4 2.4 2.4M122.5 132.5c1.3 0 2.4-1.1 2.4-2.4 0-1.3-1.1-2.4-2.4-2.4-1.3 0-2.4 1.1-2.4 2.4 0 1.3 1.1 2.4 2.4 2.4M130.1 132.4c1.2 0 2.2-1 2.2-2.2 0-1.2-1-2.2-2.2-2.2-1.2 0-2.2 1-2.2 2.2 0 1.2 1 2.2 2.2 2.2M137.8 132.2c1.2 0 2.1-.9 2.1-2.1s-.9-2.1-2.1-2.1c-1.2 0-2.1.9-2.1 2.1s.9 2.1 2.1 2.1M145.4 132.1c1.1 0 2-.9 2-2s-.9-2-2-2-2 .9-2 2c.1 1.1.9 2 2 2M153.1 131.9c1 0 1.8-.8 1.8-1.8s-.8-1.8-1.8-1.8-1.8.8-1.8 1.8.8 1.8 1.8 1.8M160.7 131.8c.9 0 1.6-.7 1.6-1.6 0-.9-.7-1.6-1.6-1.6-.9 0-1.6.7-1.6 1.6 0 .8.7 1.6 1.6 1.6M168.4 131.6c.8 0 1.5-.7 1.5-1.5s-.7-1.5-1.5-1.5-1.5.7-1.5 1.5.7 1.5 1.5 1.5M176 131.4c.7 0 1.3-.6 1.3-1.3 0-.7-.6-1.3-1.3-1.3-.7 0-1.3.6-1.3 1.3 0 .7.6 1.3 1.3 1.3M183.7 131.3c.6 0 1.1-.5 1.1-1.1 0-.6-.5-1.1-1.1-1.1-.6 0-1.1.5-1.1 1.1 0 .6.5 1.1 1.1 1.1M191.3 131.1c.5 0 1-.4 1-1 0-.5-.4-1-1-1-.5 0-1 .4-1 1 .1.6.5 1 1 1M199 130.9c.4 0 .8-.3.8-.8 0-.4-.3-.8-.8-.8-.4 0-.8.3-.8.8s.4.8.8.8M206.6 130.7c.3 0 .6-.3.6-.6s-.3-.6-.6-.6-.6.3-.6.6c0 .4.3.6.6.6M214.3 130.6c.2 0 .4-.2.4-.4s-.2-.4-.4-.4-.4.2-.4.4.1.4.4.4M221.9 130.4c.1 0 .3-.1.3-.3 0-.1-.1-.3-.3-.3-.1 0-.3.1-.3.3.1.2.2.3.3.3M229.6 130.2s.1 0 0 0c.1-.1 0-.2 0-.2-.1 0-.1.1 0 .2-.1 0-.1 0 0 0M.1 137.8s0-.1 0 0c0-.1-.1 0 0 0-.1 0 0 0 0 0M7.7 138c.1 0 .2-.1.2-.2s-.1-.2-.2-.2-.2.1-.2.2.1.2.2.2M15.4 138.2c.2 0 .4-.2.4-.4s-.2-.4-.4-.4-.4.2-.4.4.2.4.4.4M23 138.3c.3 0 .6-.2.6-.6 0-.3-.2-.6-.6-.6-.3 0-.6.2-.6.6.1.4.3.6.6.6M30.7 138.5c.4 0 .7-.3.7-.7 0-.4-.3-.7-.7-.7-.4 0-.7.3-.7.7 0 .4.3.7.7.7M38.3 138.7c.5 0 .9-.4.9-.9s-.4-.9-.9-.9-.9.4-.9.9.4.9.9.9M46 138.8c.6 0 1.1-.5 1.1-1.1 0-.6-.5-1.1-1.1-1.1-.6 0-1.1.5-1.1 1.1 0 .7.5 1.1 1.1 1.1M53.6 139c.7 0 1.2-.6 1.2-1.2 0-.7-.6-1.2-1.2-1.2-.7 0-1.2.6-1.2 1.2 0 .7.6 1.2 1.2 1.2M61.3 139.2c.8 0 1.4-.6 1.4-1.4 0-.8-.6-1.4-1.4-1.4-.8 0-1.4.6-1.4 1.4 0 .7.6 1.4 1.4 1.4M68.9 139.3c.9 0 1.5-.7 1.5-1.5s-.7-1.5-1.5-1.5c-.9 0-1.5.7-1.5 1.5s.7 1.5 1.5 1.5M76.6 139.5c.9 0 1.7-.8 1.7-1.7s-.8-1.7-1.7-1.7c-.9 0-1.7.8-1.7 1.7s.7 1.7 1.7 1.7M84.2 139.6c1 0 1.8-.8 1.8-1.8s-.8-1.8-1.8-1.8-1.8.8-1.8 1.8.8 1.8 1.8 1.8M91.9 139.8c1.1 0 2-.9 2-2s-.9-2-2-2-2 .9-2 2 .9 2 2 2M99.5 139.9c1.2 0 2.1-.9 2.1-2.1s-.9-2.1-2.1-2.1c-1.2 0-2.1.9-2.1 2.1s1 2.1 2.1 2.1M107.2 140c1.2 0 2.2-1 2.2-2.2 0-1.2-1-2.2-2.2-2.2-1.2 0-2.2 1-2.2 2.2 0 1.2 1 2.2 2.2 2.2M114.8 140c1.2 0 2.2-1 2.2-2.2 0-1.2-1-2.2-2.2-2.2-1.2 0-2.2 1-2.2 2.2 0 1.2 1 2.2 2.2 2.2M122.5 140c1.2 0 2.2-1 2.2-2.2 0-1.2-1-2.2-2.2-2.2-1.2 0-2.2 1-2.2 2.2 0 1.2 1 2.2 2.2 2.2M130.1 139.9c1.2 0 2.1-.9 2.1-2.1s-.9-2.1-2.1-2.1c-1.2 0-2.1.9-2.1 2.1s1 2.1 2.1 2.1M137.8 139.8c1.1 0 2-.9 2-2s-.9-2-2-2-2 .9-2 2 .9 2 2 2M145.4 139.6c1 0 1.9-.8 1.9-1.9 0-1-.8-1.9-1.9-1.9-1 0-1.9.8-1.9 1.9.1 1.1.9 1.9 1.9 1.9M153.1 139.5c.9 0 1.7-.8 1.7-1.7 0-.9-.8-1.7-1.7-1.7-.9 0-1.7.8-1.7 1.7 0 .9.7 1.7 1.7 1.7M160.7 139.3c.9 0 1.6-.7 1.6-1.6 0-.9-.7-1.6-1.6-1.6-.9 0-1.6.7-1.6 1.6.1.9.8 1.6 1.6 1.6M168.4 139.2c.8 0 1.4-.6 1.4-1.4 0-.8-.6-1.4-1.4-1.4-.8 0-1.4.6-1.4 1.4 0 .8.6 1.4 1.4 1.4M176 139c.7 0 1.2-.6 1.2-1.2 0-.7-.6-1.2-1.2-1.2-.7 0-1.2.6-1.2 1.2 0 .7.5 1.2 1.2 1.2M183.7 138.9c.6 0 1.1-.5 1.1-1.1 0-.6-.5-1.1-1.1-1.1-.6 0-1.1.5-1.1 1.1 0 .6.5 1.1 1.1 1.1M191.3 138.7c.5 0 .9-.4.9-.9s-.4-.9-.9-.9-.9.4-.9.9.4.9.9.9M199 138.5c.4 0 .7-.3.7-.7 0-.4-.3-.7-.7-.7-.4 0-.7.3-.7.7 0 .4.3.7.7.7M206.6 138.4c.3 0 .6-.3.6-.6s-.3-.6-.6-.6-.6.3-.6.6c.1.3.3.6.6.6M214.3 138.2c.2 0 .4-.2.4-.4s-.2-.4-.4-.4-.4.2-.4.4.2.4.4.4M221.9 138c.1 0 .2-.1.2-.2s-.1-.2-.2-.2-.2.1-.2.2.1.2.2.2M229.6 137.8c.1-.1 0-.1 0-.1-.1 0-.1 0 0 .1-.1 0-.1 0 0 0M.1 145.5s0-.1 0 0c0-.1 0-.1 0 0 0-.1 0-.1 0 0 0-.1 0 0 0 0M7.7 145.6c.1 0 .2-.1.2-.2s-.1-.2-.2-.2-.2.1-.2.2c.1.1.1.2.2.2M15.4 145.8c.2 0 .3-.2.3-.3 0-.2-.2-.3-.3-.3-.2 0-.3.2-.3.3-.1.1.1.3.3.3M23 145.9c.3 0 .5-.2.5-.5s-.2-.5-.5-.5-.5.2-.5.5.3.5.5.5M30.7 146.1c.4 0 .7-.3.7-.7 0-.4-.3-.7-.7-.7-.4 0-.7.3-.7.7 0 .4.3.7.7.7M38.3 146.3c.5 0 .8-.4.8-.8s-.4-.8-.8-.8c-.5 0-.8.4-.8.8s.4.8.8.8M46 146.4c.6 0 1-.4 1-1s-.4-1-1-1-1 .4-1 1 .4 1 1 1M53.6 146.6c.6 0 1.2-.5 1.2-1.2 0-.6-.5-1.2-1.2-1.2-.6 0-1.2.5-1.2 1.2.1.7.6 1.2 1.2 1.2M61.3 146.7c.7 0 1.3-.6 1.3-1.3 0-.7-.6-1.3-1.3-1.3-.7 0-1.3.6-1.3 1.3 0 .8.6 1.3 1.3 1.3M68.9 146.9c.8 0 1.5-.7 1.5-1.5s-.7-1.5-1.5-1.5-1.5.7-1.5 1.5c.1.8.7 1.5 1.5 1.5M76.6 147c.9 0 1.6-.7 1.6-1.6 0-.9-.7-1.6-1.6-1.6-.9 0-1.6.7-1.6 1.6 0 .9.7 1.6 1.6 1.6M84.2 147.2c1 0 1.7-.8 1.7-1.7 0-1-.8-1.7-1.7-1.7-1 0-1.7.8-1.7 1.7 0 .9.8 1.7 1.7 1.7M91.9 147.3c1 0 1.8-.8 1.8-1.8s-.8-1.8-1.8-1.8-1.8.8-1.8 1.8c-.1.9.8 1.8 1.8 1.8M99.5 147.4c1.1 0 2-.9 2-2s-.9-2-2-2-2 .9-2 2 1 2 2 2M107.2 147.4c1.1 0 2-.9 2-2s-.9-2-2-2-2 .9-2 2 .9 2 2 2M114.8 147.5c1.1 0 2-.9 2-2s-.9-2-2-2-2 .9-2 2 .9 2 2 2M122.5 147.4c1.1 0 2-.9 2-2s-.9-2-2-2-2 .9-2 2 .9 2 2 2M130.1 147.4c1.1 0 2-.9 2-2s-.9-2-2-2-2 .9-2 2 .9 2 2 2M137.8 147.3c1 0 1.9-.8 1.9-1.9s-.8-1.9-1.9-1.9c-1 0-1.9.8-1.9 1.9s.8 1.9 1.9 1.9M145.4 147.2c1 0 1.7-.8 1.7-1.7 0-1-.8-1.7-1.7-1.7-1 0-1.7.8-1.7 1.7 0 .9.8 1.7 1.7 1.7M153.1 147c.9 0 1.6-.7 1.6-1.6 0-.9-.7-1.6-1.6-1.6-.9 0-1.6.7-1.6 1.6 0 .9.7 1.6 1.6 1.6M160.7 146.9c.8 0 1.5-.7 1.5-1.5s-.7-1.5-1.5-1.5-1.5.7-1.5 1.5c.1.8.7 1.5 1.5 1.5M168.4 146.7c.7 0 1.3-.6 1.3-1.3 0-.7-.6-1.3-1.3-1.3-.7 0-1.3.6-1.3 1.3 0 .8.6 1.3 1.3 1.3M176 146.6c.6 0 1.2-.5 1.2-1.2 0-.6-.5-1.2-1.2-1.2-.6 0-1.2.5-1.2 1.2.1.7.6 1.2 1.2 1.2M183.7 146.4c.6 0 1-.5 1-1 0-.6-.5-1-1-1-.6 0-1 .5-1 1 0 .6.4 1 1 1M191.3 146.3c.5 0 .8-.4.8-.8 0-.5-.4-.8-.8-.8-.5 0-.8.4-.8.8s.4.8.8.8M199 146.1c.4 0 .7-.3.7-.7s-.3-.7-.7-.7-.7.3-.7.7.3.7.7.7M206.6 145.9c.3 0 .5-.2.5-.5s-.2-.5-.5-.5-.5.2-.5.5.2.5.5.5M214.3 145.8c.2 0 .3-.2.3-.3 0-.2-.2-.3-.3-.3-.2 0-.3.2-.3.3-.1.1.1.3.3.3M221.9 145.6c.1 0 .2-.1.2-.2s-.1-.2-.2-.2-.2.1-.2.2c.1.1.1.2.2.2M229.6 145.5s0-.1 0 0c0-.1 0-.1 0 0 0-.1 0-.1 0 0 0-.1 0 0 0 0M7.7 153.2c.1 0 .1 0 .1-.1s0-.1-.1-.1-.1 0-.1.1l.1.1M15.4 153.4c.2 0 .3-.1.3-.3 0-.2-.1-.3-.3-.3-.2 0-.3.1-.3.3 0 .1.1.3.3.3M23 153.5c.2 0 .4-.2.4-.4s-.2-.4-.4-.4-.4.2-.4.4.2.4.4.4M30.7 153.7c.3 0 .6-.3.6-.6s-.3-.6-.6-.6-.6.3-.6.6.3.6.6.6M38.3 153.8c.4 0 .8-.3.8-.8s-.3-.8-.8-.8c-.4 0-.8.3-.8.8s.4.8.8.8M46 154c.5 0 .9-.4.9-.9s-.4-.9-.9-.9-.9.4-.9.9.4.9.9.9M53.6 154.1c.6 0 1.1-.5 1.1-1.1 0-.6-.5-1.1-1.1-1.1-.6 0-1.1.5-1.1 1.1.1.7.5 1.1 1.1 1.1M61.3 154.3c.7 0 1.2-.5 1.2-1.2s-.5-1.2-1.2-1.2-1.2.5-1.2 1.2c0 .6.5 1.2 1.2 1.2M68.9 154.4c.8 0 1.4-.6 1.4-1.4 0-.8-.6-1.4-1.4-1.4-.7 0-1.4.6-1.4 1.4.1.8.7 1.4 1.4 1.4M76.6 154.6c.8 0 1.5-.7 1.5-1.5s-.7-1.5-1.5-1.5-1.5.7-1.5 1.5.7 1.5 1.5 1.5M84.2 154.7c.9 0 1.6-.7 1.6-1.6 0-.9-.7-1.6-1.6-1.6-.9 0-1.6.7-1.6 1.6 0 .9.7 1.6 1.6 1.6M91.9 154.8c.9 0 1.7-.8 1.7-1.7 0-.9-.8-1.7-1.7-1.7-.9 0-1.7.8-1.7 1.7 0 .9.7 1.7 1.7 1.7M99.5 154.9c1 0 1.8-.8 1.8-1.8s-.8-1.8-1.8-1.8-1.8.8-1.8 1.8.8 1.8 1.8 1.8M107.2 154.9c1 0 1.8-.8 1.8-1.8s-.8-1.8-1.8-1.8-1.8.8-1.8 1.8c-.1 1 .8 1.8 1.8 1.8M114.8 154.9c1 0 1.9-.8 1.9-1.9 0-1-.8-1.9-1.9-1.9-1 0-1.9.8-1.9 1.9.1 1.1.9 1.9 1.9 1.9M122.5 154.9c1 0 1.8-.8 1.8-1.8s-.8-1.8-1.8-1.8-1.8.8-1.8 1.8c-.1 1 .8 1.8 1.8 1.8M130.1 154.9c1 0 1.8-.8 1.8-1.8s-.8-1.8-1.8-1.8-1.8.8-1.8 1.8.8 1.8 1.8 1.8M137.8 154.8c.9 0 1.7-.8 1.7-1.7s-.8-1.7-1.7-1.7c-.9 0-1.7.8-1.7 1.7s.7 1.7 1.7 1.7M145.4 154.7c.9 0 1.6-.7 1.6-1.6 0-.9-.7-1.6-1.6-1.6-.9 0-1.6.7-1.6 1.6 0 .9.7 1.6 1.6 1.6M153.1 154.6c.8 0 1.5-.7 1.5-1.5s-.7-1.5-1.5-1.5-1.5.7-1.5 1.5.6 1.5 1.5 1.5M160.7 154.5c.8 0 1.4-.6 1.4-1.4 0-.8-.6-1.4-1.4-1.4-.8 0-1.4.6-1.4 1.4.1.7.7 1.4 1.4 1.4M168.4 154.3c.7 0 1.2-.6 1.2-1.2 0-.7-.6-1.2-1.2-1.2-.7 0-1.2.6-1.2 1.2-.1.7.5 1.2 1.2 1.2M176 154.2c.6 0 1.1-.5 1.1-1.1 0-.6-.5-1.1-1.1-1.1-.6 0-1.1.5-1.1 1.1 0 .6.5 1.1 1.1 1.1M183.7 154c.5 0 .9-.4.9-.9s-.4-.9-.9-.9-.9.4-.9.9c-.1.5.4.9.9.9M191.3 153.8c.4 0 .8-.3.8-.8s-.3-.8-.8-.8c-.4 0-.8.3-.8.8s.4.8.8.8M199 153.7c.3 0 .6-.3.6-.6s-.3-.6-.6-.6-.6.3-.6.6.2.6.6.6M206.6 153.5c.2 0 .4-.2.4-.4s-.2-.4-.4-.4-.4.2-.4.4.2.4.4.4M214.3 153.4c.2 0 .3-.1.3-.3s-.1-.3-.3-.3c-.2 0-.3.1-.3.3s.1.3.3.3M221.9 153.2c.1 0 .1-.1.1-.1l-.1-.1c-.1 0-.1.1-.1.1l.1.1M7.7 160.8c.1 0 .1 0 0 0 .1-.1 0-.1 0-.1v.1M15.4 160.9c.1 0 .2-.1.2-.2s-.1-.2-.2-.2-.2.1-.2.2.1.2.2.2M23 161.1c.2 0 .4-.2.4-.4s-.2-.4-.4-.4-.4.2-.4.4.2.4.4.4M30.7 161.3c.3 0 .5-.2.5-.5s-.2-.5-.5-.5-.5.2-.5.5.2.5.5.5M38.3 161.4c.4 0 .7-.3.7-.7s-.3-.7-.7-.7-.7.3-.7.7.4.7.7.7M46 161.6c.5 0 .8-.4.8-.8s-.4-.8-.8-.8c-.5 0-.8.4-.8.8s.3.8.8.8M53.6 161.7c.5 0 1-.4 1-1s-.4-1-1-1c-.5 0-1 .4-1 1s.5 1 1 1M61.3 161.8c.6 0 1.1-.5 1.1-1.1s-.5-1.1-1.1-1.1c-.6 0-1.1.5-1.1 1.1s.5 1.1 1.1 1.1M68.9 162c.7 0 1.2-.6 1.2-1.2 0-.7-.6-1.2-1.2-1.2-.7 0-1.2.6-1.2 1.2s.6 1.2 1.2 1.2M76.6 162.1c.8 0 1.4-.6 1.4-1.4s-.6-1.4-1.4-1.4-1.4.6-1.4 1.4.6 1.4 1.4 1.4M84.2 162.2c.8 0 1.5-.7 1.5-1.5s-.7-1.5-1.5-1.5-1.5.7-1.5 1.5c.1.8.7 1.5 1.5 1.5M91.9 162.3c.9 0 1.5-.7 1.5-1.5 0-.9-.7-1.5-1.5-1.5-.9 0-1.5.7-1.5 1.5-.1.8.6 1.5 1.5 1.5M99.5 162.3c.9 0 1.6-.7 1.6-1.6 0-.9-.7-1.6-1.6-1.6-.9 0-1.6.7-1.6 1.6 0 .9.7 1.6 1.6 1.6M107.2 162.4c.9 0 1.7-.8 1.7-1.7 0-.9-.8-1.7-1.7-1.7-.9 0-1.7.8-1.7 1.7 0 1 .8 1.7 1.7 1.7M114.8 162.4c.9 0 1.7-.8 1.7-1.7 0-.9-.8-1.7-1.7-1.7-.9 0-1.7.8-1.7 1.7.1 1 .8 1.7 1.7 1.7M122.5 162.4c.9 0 1.7-.8 1.7-1.7 0-.9-.8-1.7-1.7-1.7-.9 0-1.7.8-1.7 1.7 0 1 .8 1.7 1.7 1.7M130.1 162.4c.9 0 1.6-.7 1.6-1.6s-.7-1.6-1.6-1.6c-.9 0-1.6.7-1.6 1.6s.7 1.6 1.6 1.6M137.8 162.3c.9 0 1.6-.7 1.6-1.6s-.7-1.6-1.6-1.6c-.9 0-1.6.7-1.6 1.6s.7 1.6 1.6 1.6M145.4 162.2c.8 0 1.5-.7 1.5-1.5s-.7-1.5-1.5-1.5-1.5.7-1.5 1.5c.1.8.7 1.5 1.5 1.5M153.1 162.1c.8 0 1.4-.6 1.4-1.4 0-.8-.6-1.4-1.4-1.4-.8 0-1.4.6-1.4 1.4 0 .8.6 1.4 1.4 1.4M160.7 162c.7 0 1.3-.6 1.3-1.3s-.6-1.3-1.3-1.3c-.7 0-1.3.6-1.3 1.3s.6 1.3 1.3 1.3M168.4 161.9c.6 0 1.1-.5 1.1-1.1 0-.6-.5-1.1-1.1-1.1-.6 0-1.1.5-1.1 1.1 0 .6.5 1.1 1.1 1.1M176 161.7c.5 0 1-.4 1-1s-.4-1-1-1c-.5 0-1 .4-1 1s.5 1 1 1M183.7 161.6c.5 0 .8-.4.8-.8s-.4-.8-.8-.8c-.5 0-.8.4-.8.8s.3.8.8.8M191.3 161.4c.4 0 .7-.3.7-.7s-.3-.7-.7-.7-.7.3-.7.7.4.7.7.7M199 161.3c.3 0 .5-.2.5-.5s-.2-.5-.5-.5-.5.2-.5.5.2.5.5.5M206.6 161.1c.2 0 .4-.2.4-.4s-.2-.4-.4-.4-.4.2-.4.4.2.4.4.4M214.3 161c.1 0 .2-.1.2-.2s-.1-.2-.2-.2-.2.1-.2.2c-.1.1 0 .2.2.2M221.9 160.8c.1 0 .1 0 0 0 .1-.1 0-.1 0-.1v.1M15.4 168.5c.1 0 .1-.1.1-.1 0-.1-.1-.1-.1-.1-.1 0-.1.1-.1.1s0 .1.1.1M23 168.7c.2 0 .3-.1.3-.3 0-.2-.1-.3-.3-.3-.2 0-.3.1-.3.3.1.1.2.3.3.3M30.7 168.8c.2 0 .4-.2.4-.4s-.2-.4-.4-.4-.4.2-.4.4.2.4.4.4M38.3 169c.3 0 .6-.3.6-.6s-.3-.6-.6-.6-.6.3-.6.6c.1.3.3.6.6.6M46 169.1c.4 0 .7-.3.7-.7 0-.4-.3-.7-.7-.7-.4 0-.7.3-.7.7 0 .4.3.7.7.7M53.6 169.2c.5 0 .8-.4.8-.8 0-.5-.4-.8-.8-.8-.5 0-.8.4-.8.8s.4.8.8.8M61.3 169.4c.6 0 1-.4 1-1s-.4-1-1-1-1 .4-1 1c0 .5.4 1 1 1M68.9 169.5c.6 0 1.1-.5 1.1-1.1 0-.6-.5-1.1-1.1-1.1-.6 0-1.1.5-1.1 1.1 0 .6.5 1.1 1.1 1.1M76.6 169.6c.7 0 1.2-.6 1.2-1.2 0-.7-.6-1.2-1.2-1.2-.7 0-1.2.6-1.2 1.2 0 .7.5 1.2 1.2 1.2M84.2 169.7c.7 0 1.3-.6 1.3-1.3 0-.7-.6-1.3-1.3-1.3-.7 0-1.3.6-1.3 1.3 0 .7.6 1.3 1.3 1.3M91.9 169.8c.8 0 1.4-.6 1.4-1.4 0-.8-.6-1.4-1.4-1.4-.8 0-1.4.6-1.4 1.4 0 .8.6 1.4 1.4 1.4M99.5 169.8c.8 0 1.5-.7 1.5-1.5s-.7-1.5-1.5-1.5-1.5.7-1.5 1.5c.1.9.7 1.5 1.5 1.5M107.2 169.9c.8 0 1.5-.7 1.5-1.5s-.7-1.5-1.5-1.5-1.5.7-1.5 1.5.7 1.5 1.5 1.5M114.8 169.9c.8 0 1.5-.7 1.5-1.5s-.7-1.5-1.5-1.5-1.5.7-1.5 1.5.7 1.5 1.5 1.5M122.5 169.9c.8 0 1.5-.7 1.5-1.5s-.7-1.5-1.5-1.5-1.5.7-1.5 1.5.6 1.5 1.5 1.5M130.1 169.8c.8 0 1.5-.7 1.5-1.5s-.7-1.5-1.5-1.5-1.5.7-1.5 1.5c.1.9.7 1.5 1.5 1.5M137.8 169.8c.8 0 1.4-.6 1.4-1.4 0-.8-.6-1.4-1.4-1.4-.8 0-1.4.6-1.4 1.4 0 .8.6 1.4 1.4 1.4M145.4 169.7c.7 0 1.3-.6 1.3-1.3 0-.7-.6-1.3-1.3-1.3-.7 0-1.3.6-1.3 1.3 0 .7.6 1.3 1.3 1.3M153.1 169.6c.7 0 1.2-.6 1.2-1.2 0-.7-.6-1.2-1.2-1.2-.7 0-1.2.6-1.2 1.2-.1.7.5 1.2 1.2 1.2M160.7 169.5c.6 0 1.1-.5 1.1-1.1 0-.6-.5-1.1-1.1-1.1-.6 0-1.1.5-1.1 1.1 0 .6.5 1.1 1.1 1.1M168.4 169.4c.6 0 1-.4 1-1s-.4-1-1-1-1 .4-1 1c0 .5.4 1 1 1M176 169.2c.5 0 .9-.4.9-.9s-.4-.9-.9-.9-.9.4-.9.9c.1.6.4.9.9.9M183.7 169.1c.4 0 .7-.3.7-.7 0-.4-.3-.7-.7-.7-.4 0-.7.3-.7.7 0 .4.3.7.7.7M191.3 169c.3 0 .6-.3.6-.6s-.3-.6-.6-.6-.6.3-.6.6.3.6.6.6M199 168.8c.2 0 .4-.2.4-.4s-.2-.4-.4-.4-.4.2-.4.4.1.4.4.4M206.6 168.7c.2 0 .3-.1.3-.3s-.1-.3-.3-.3c-.2 0-.3.1-.3.3s.2.3.3.3M214.3 168.5c.1 0 .1-.1.1-.1l-.1-.1c-.1 0-.1.1-.1.1s0 .1.1.1M15.4 176.1c0-.1 0-.1 0 0 0-.1-.1-.1 0 0-.1 0 0 0 0 0M23 176.2c.1 0 .2-.1.2-.2s-.1-.2-.2-.2-.2.1-.2.2.1.2.2.2M30.7 176.4c.2 0 .3-.2.3-.3 0-.2-.2-.3-.3-.3-.2 0-.3.2-.3.3-.1.1.1.3.3.3M38.3 176.5c.3 0 .5-.2.5-.5s-.2-.5-.5-.5-.5.2-.5.5c.1.3.3.5.5.5M46 176.6c.3 0 .6-.3.6-.6s-.3-.6-.6-.6-.6.3-.6.6.2.6.6.6M53.6 176.8c.4 0 .7-.3.7-.7 0-.4-.3-.7-.7-.7-.4 0-.7.3-.7.7 0 .3.3.7.7.7M61.3 176.9c.5 0 .8-.4.8-.8 0-.5-.4-.8-.8-.8-.5 0-.8.4-.8.8-.1.4.3.8.8.8M68.9 177c.5 0 1-.4 1-1s-.4-1-1-1c-.5 0-1 .4-1 1s.5 1 1 1M76.6 177.1c.6 0 1.1-.5 1.1-1.1 0-.6-.5-1.1-1.1-1.1-.6 0-1.1.5-1.1 1.1 0 .6.5 1.1 1.1 1.1M84.2 177.2c.6 0 1.2-.5 1.2-1.2 0-.6-.5-1.2-1.2-1.2-.6 0-1.2.5-1.2 1.2.1.7.6 1.2 1.2 1.2M91.9 177.3c.7 0 1.2-.6 1.2-1.2 0-.7-.6-1.2-1.2-1.2-.7 0-1.2.6-1.2 1.2s.5 1.2 1.2 1.2M99.5 177.3c.7 0 1.3-.6 1.3-1.3 0-.7-.6-1.3-1.3-1.3-.7 0-1.3.6-1.3 1.3 0 .7.6 1.3 1.3 1.3M107.2 177.3c.7 0 1.3-.6 1.3-1.3 0-.7-.6-1.3-1.3-1.3-.7 0-1.3.6-1.3 1.3 0 .8.6 1.3 1.3 1.3M114.8 177.4c.7 0 1.3-.6 1.3-1.3s-.6-1.3-1.3-1.3c-.7 0-1.3.6-1.3 1.3s.6 1.3 1.3 1.3M122.5 177.3c.7 0 1.3-.6 1.3-1.3 0-.7-.6-1.3-1.3-1.3-.7 0-1.3.6-1.3 1.3 0 .8.6 1.3 1.3 1.3M130.1 177.3c.7 0 1.3-.6 1.3-1.3 0-.7-.6-1.3-1.3-1.3-.7 0-1.3.6-1.3 1.3 0 .7.6 1.3 1.3 1.3M137.8 177.3c.7 0 1.2-.6 1.2-1.2 0-.7-.6-1.2-1.2-1.2-.7 0-1.2.6-1.2 1.2s.5 1.2 1.2 1.2M145.4 177.2c.6 0 1.2-.5 1.2-1.2 0-.6-.5-1.2-1.2-1.2-.6 0-1.2.5-1.2 1.2.1.7.6 1.2 1.2 1.2M153.1 177.1c.6 0 1.1-.5 1.1-1.1 0-.6-.5-1.1-1.1-1.1-.6 0-1.1.5-1.1 1.1 0 .6.5 1.1 1.1 1.1M160.7 177c.5 0 1-.4 1-1s-.4-1-1-1c-.5 0-1 .4-1 1s.5 1 1 1M168.4 176.9c.5 0 .9-.4.9-.9s-.4-.9-.9-.9-.9.4-.9.9.4.9.9.9M176 176.8c.4 0 .7-.3.7-.7 0-.4-.3-.7-.7-.7-.4 0-.7.3-.7.7 0 .3.3.7.7.7M183.7 176.6c.3 0 .6-.3.6-.6s-.3-.6-.6-.6-.6.3-.6.6.2.6.6.6M191.3 176.5c.3 0 .5-.2.5-.5s-.2-.5-.5-.5-.5.2-.5.5.3.5.5.5M199 176.4c.2 0 .3-.2.3-.3 0-.2-.2-.3-.3-.3-.2 0-.3.2-.3.3-.1.1.1.3.3.3M206.6 176.2c.1 0 .2-.1.2-.2s-.1-.2-.2-.2-.2.1-.2.2.1.2.2.2M214.3 176.1c.1-.1 0-.1 0-.1-.1 0-.1 0 0 .1-.1 0-.1 0 0 0M23 183.8c.1 0 .1-.1 0 0 .1-.1 0-.2 0-.2s-.1 0 0 .2c-.1-.1 0 0 0 0M30.7 183.9c.1 0 .2-.1.2-.2s-.1-.2-.2-.2-.2.1-.2.2.1.2.2.2M38.3 184c.2 0 .4-.2.4-.4s-.2-.4-.4-.4-.4.2-.4.4c.1.3.2.4.4.4M46 184.2c.3 0 .5-.2.5-.5s-.2-.5-.5-.5-.5.2-.5.5c0 .2.2.5.5.5M53.6 184.3c.3 0 .6-.3.6-.6s-.3-.6-.6-.6-.6.3-.6.6.3.6.6.6M61.3 184.4c.4 0 .7-.3.7-.7 0-.4-.3-.7-.7-.7-.4 0-.7.3-.7.7 0 .4.3.7.7.7M68.9 184.5c.5 0 .8-.4.8-.8 0-.5-.4-.8-.8-.8-.5 0-.8.4-.8.8s.4.8.8.8M76.6 184.6c.5 0 .9-.4.9-.9s-.4-.9-.9-.9-.9.4-.9.9c-.1.5.4.9.9.9M84.2 184.7c.6 0 1-.4 1-1s-.4-1-1-1-1 .4-1 1c0 .5.5 1 1 1M91.9 184.7c.6 0 1.1-.5 1.1-1.1 0-.6-.5-1.1-1.1-1.1-.6 0-1.1.5-1.1 1.1 0 .7.5 1.1 1.1 1.1M99.5 184.8c.6 0 1.1-.5 1.1-1.1 0-.6-.5-1.1-1.1-1.1-.6 0-1.1.5-1.1 1.1 0 .6.5 1.1 1.1 1.1M107.2 184.8c.6 0 1.1-.5 1.1-1.1 0-.6-.5-1.1-1.1-1.1-.6 0-1.1.5-1.1 1.1-.1.6.4 1.1 1.1 1.1M114.8 184.8c.6 0 1.2-.5 1.2-1.2 0-.6-.5-1.2-1.2-1.2-.6 0-1.2.5-1.2 1.2.1.7.6 1.2 1.2 1.2M122.5 184.8c.6 0 1.1-.5 1.1-1.1 0-.6-.5-1.1-1.1-1.1-.6 0-1.1.5-1.1 1.1-.1.6.4 1.1 1.1 1.1M130.1 184.8c.6 0 1.1-.5 1.1-1.1 0-.6-.5-1.1-1.1-1.1-.6 0-1.1.5-1.1 1.1 0 .6.5 1.1 1.1 1.1M137.8 184.8c.6 0 1.1-.5 1.1-1.1 0-.6-.5-1.1-1.1-1.1-.6 0-1.1.5-1.1 1.1 0 .6.5 1.1 1.1 1.1M145.4 184.7c.6 0 1-.5 1-1 0-.6-.5-1-1-1-.6 0-1 .5-1 1s.5 1 1 1M153.1 184.6c.5 0 .9-.4.9-.9s-.4-.9-.9-.9-.9.4-.9.9c-.1.5.4.9.9.9M160.7 184.5c.5 0 .8-.4.8-.8 0-.5-.4-.8-.8-.8-.5 0-.8.4-.8.8s.4.8.8.8M168.4 184.4c.4 0 .7-.3.7-.7 0-.4-.3-.7-.7-.7-.4 0-.7.3-.7.7 0 .4.3.7.7.7M176 184.3c.3 0 .6-.3.6-.6s-.3-.6-.6-.6-.6.3-.6.6.3.6.6.6M183.7 184.2c.3 0 .5-.2.5-.5s-.2-.5-.5-.5-.5.2-.5.5.2.5.5.5M191.3 184.1c.2 0 .4-.2.4-.4s-.2-.4-.4-.4-.4.2-.4.4.2.4.4.4M199 183.9c.1 0 .2-.1.2-.2s-.1-.2-.2-.2-.2.1-.2.2 0 .2.2.2M206.6 183.8c.1 0 .1 0 .1-.1s0-.1-.1-.1-.1 0-.1.1l.1.1M23 191.3s.1 0 0 0c.1 0 0 0 0 0M30.7 191.4c.1 0 .1 0 .1-.1s0-.1-.1-.1-.1 0-.1.1 0 .1.1.1M38.3 191.6c.1 0 .2-.1.2-.2s-.1-.2-.2-.2-.2.1-.2.2.1.2.2.2M46 191.7c.2 0 .4-.2.4-.4s-.2-.4-.4-.4-.4.2-.4.4.2.4.4.4M53.6 191.8c.3 0 .5-.2.5-.5s-.2-.5-.5-.5-.5.2-.5.5.3.5.5.5M61.3 191.9c.3 0 .6-.3.6-.6s-.3-.6-.6-.6-.6.3-.6.6.3.6.6.6M68.9 192c.4 0 .7-.3.7-.7s-.3-.7-.7-.7c-.4 0-.7.3-.7.7s.4.7.7.7M76.6 192.1c.4 0 .8-.3.8-.8 0-.4-.3-.8-.8-.8-.4 0-.8.3-.8.8 0 .4.4.8.8.8M84.2 192.2c.5 0 .8-.4.8-.8s-.4-.8-.8-.8c-.5 0-.8.4-.8.8s.4.8.8.8M91.9 192.2c.5 0 .9-.4.9-.9s-.4-.9-.9-.9-.9.4-.9.9.4.9.9.9M99.5 192.3c.5 0 .9-.4.9-.9s-.4-.9-.9-.9-.9.4-.9.9.4.9.9.9M107.2 192.3c.5 0 1-.4 1-1s-.4-1-1-1c-.5 0-1 .4-1 1s.4 1 1 1M114.8 192.3c.5 0 1-.4 1-1s-.4-1-1-1c-.5 0-1 .4-1 1s.5 1 1 1M122.5 192.3c.5 0 1-.4 1-1s-.4-1-1-1c-.5 0-1 .4-1 1s.4 1 1 1M130.1 192.3c.5 0 1-.4 1-1 0-.5-.4-1-1-1-.5 0-1 .4-1 1 .1.6.5 1 1 1M137.8 192.2c.5 0 .9-.4.9-.9s-.4-.9-.9-.9-.9.4-.9.9.4.9.9.9M145.4 192.2c.5 0 .8-.4.8-.8 0-.5-.4-.8-.8-.8-.5 0-.8.4-.8.8s.4.8.8.8M153.1 192.1c.4 0 .8-.3.8-.8 0-.4-.3-.8-.8-.8-.4 0-.8.3-.8.8 0 .4.4.8.8.8M160.7 192c.4 0 .7-.3.7-.7s-.3-.7-.7-.7c-.4 0-.7.3-.7.7s.4.7.7.7M168.4 191.9c.3 0 .6-.3.6-.6s-.3-.6-.6-.6-.6.3-.6.6.3.6.6.6M176 191.8c.3 0 .5-.2.5-.5s-.2-.5-.5-.5-.5.2-.5.5.3.5.5.5M183.7 191.7c.2 0 .4-.2.4-.4s-.2-.4-.4-.4-.4.2-.4.4.2.4.4.4M191.3 191.6c.1 0 .3-.1.3-.3 0-.1-.1-.3-.3-.3-.1 0-.3.1-.3.3.1.2.2.3.3.3M199 191.5c.1 0 .1-.1.1-.1 0-.1-.1-.1-.1-.1-.1 0-.1.1-.1.1s0 .1.1.1M38.3 199.1c.1 0 .1-.1.1-.1 0-.1-.1-.1-.1-.1-.1 0-.1.1-.1.1l.1.1M46 199.2c.1 0 .2-.1.2-.2s-.1-.2-.2-.2-.2.1-.2.2c-.1.1.1.2.2.2M53.6 199.3c.2 0 .3-.2.3-.3 0-.2-.2-.3-.3-.3-.2 0-.3.2-.3.3 0 .2.1.3.3.3M61.3 199.4c.2 0 .4-.2.4-.4s-.2-.4-.4-.4-.4.2-.4.4c-.1.2.1.4.4.4M68.9 199.5c.3 0 .5-.2.5-.5s-.2-.5-.5-.5-.5.2-.5.5.2.5.5.5M76.6 199.6c.3 0 .6-.3.6-.6s-.3-.6-.6-.6-.6.3-.6.6.2.6.6.6M84.2 199.7c.4 0 .7-.3.7-.7s-.3-.7-.7-.7-.7.3-.7.7.4.7.7.7M91.9 199.7c.4 0 .7-.3.7-.7 0-.4-.3-.7-.7-.7-.4 0-.7.3-.7.7 0 .4.3.7.7.7M99.5 199.7c.4 0 .8-.3.8-.8s-.3-.8-.8-.8c-.4 0-.8.3-.8.8s.4.8.8.8M107.2 199.8c.4 0 .8-.4.8-.8s-.4-.8-.8-.8-.8.4-.8.8.3.8.8.8M114.8 199.8c.4 0 .8-.4.8-.8s-.4-.8-.8-.8-.8.4-.8.8.4.8.8.8M122.5 199.8c.4 0 .8-.4.8-.8s-.3-.8-.8-.8c-.4 0-.8.4-.8.8s.3.8.8.8M130.1 199.7c.4 0 .8-.3.8-.8s-.3-.8-.8-.8c-.4 0-.8.3-.8.8s.4.8.8.8M137.8 199.7c.4 0 .7-.3.7-.7 0-.4-.3-.7-.7-.7-.4 0-.7.3-.7.7 0 .4.3.7.7.7M145.4 199.7c.4 0 .7-.3.7-.7s-.3-.7-.7-.7-.7.3-.7.7.4.7.7.7M153.1 199.6c.3 0 .6-.3.6-.6s-.3-.6-.6-.6-.6.3-.6.6.2.6.6.6M160.7 199.5c.3 0 .5-.2.5-.5s-.2-.5-.5-.5-.5.2-.5.5.2.5.5.5M168.4 199.4c.2 0 .4-.2.4-.4s-.2-.4-.4-.4-.4.2-.4.4c-.1.2.1.4.4.4M176 199.3c.2 0 .3-.2.3-.3 0-.2-.2-.3-.3-.3-.2 0-.3.2-.3.3 0 .2.1.3.3.3M183.7 199.2c.1 0 .2-.1.2-.2s-.1-.2-.2-.2-.2.1-.2.2c-.1.1.1.2.2.2M191.3 199.1c.1 0 .1-.1.1-.1 0-.1-.1-.1-.1-.1-.1 0-.1.1-.1.1l.1.1M38.3 206.6s.1 0 0 0c.1 0 0 0 0 0M46 206.7s.1 0 0 0c.1-.1 0-.2 0-.2-.1 0-.1.1 0 .2-.1 0-.1 0 0 0M53.6 206.8c.1 0 .2-.1.2-.2s-.1-.2-.2-.2-.2.1-.2.2.1.2.2.2M61.3 206.9c.2 0 .3-.1.3-.3s-.1-.3-.3-.3c-.2 0-.3.1-.3.3s.1.3.3.3M68.9 207c.2 0 .4-.2.4-.4s-.2-.4-.4-.4-.4.2-.4.4c.1.2.2.4.4.4M76.6 207.1c.2 0 .4-.2.4-.4s-.2-.4-.4-.4-.4.2-.4.4.1.4.4.4M84.2 207.1c.3 0 .5-.2.5-.5s-.2-.5-.5-.5-.5.2-.5.5.3.5.5.5M91.9 207.2c.3 0 .6-.2.6-.6 0-.3-.2-.6-.6-.6-.3 0-.6.2-.6.6 0 .3.3.6.6.6M99.5 207.2c.3 0 .6-.3.6-.6s-.3-.6-.6-.6-.6.3-.6.6c0 .4.3.6.6.6M107.2 207.2c.3 0 .6-.3.6-.6s-.3-.6-.6-.6-.6.3-.6.6c0 .4.2.6.6.6M114.8 207.2c.3 0 .6-.3.6-.6s-.3-.6-.6-.6-.6.3-.6.6c0 .4.3.6.6.6M122.5 207.2c.3 0 .6-.3.6-.6s-.3-.6-.6-.6-.6.3-.6.6c0 .4.2.6.6.6M130.1 207.2c.3 0 .6-.3.6-.6s-.3-.6-.6-.6-.6.3-.6.6c0 .4.3.6.6.6M137.8 207.2c.3 0 .6-.3.6-.6s-.3-.6-.6-.6-.6.3-.6.6.3.6.6.6M145.4 207.1c.3 0 .5-.2.5-.5s-.2-.5-.5-.5-.5.2-.5.5.2.5.5.5M153.1 207.1c.2 0 .4-.2.4-.4s-.2-.4-.4-.4-.4.2-.4.4.1.4.4.4M160.7 207c.2 0 .4-.2.4-.4s-.2-.4-.4-.4-.4.2-.4.4.2.4.4.4M168.4 206.9c.2 0 .3-.1.3-.3s-.1-.3-.3-.3c-.2 0-.3.1-.3.3s.1.3.3.3M176 206.8c.1 0 .2-.1.2-.2s-.1-.2-.2-.2-.2.1-.2.2.1.2.2.2M183.7 206.7c.1 0 .1 0 .1-.1s0-.1-.1-.1-.1 0-.1.1 0 .1.1.1M53.6 214.3c.1 0 .1 0 0 0 .1-.1 0-.1 0-.1v.1M61.3 214.4c.1 0 .1-.1.1-.1l-.1-.1c-.1 0-.1.1-.1.1s0 .1.1.1M68.9 214.5c.1 0 .2-.1.2-.2s-.1-.2-.2-.2-.2.1-.2.2.1.2.2.2M76.6 214.6c.2 0 .3-.1.3-.3 0-.2-.1-.3-.3-.3-.2 0-.3.1-.3.3 0 .1.1.3.3.3M84.2 214.6c.2 0 .3-.2.3-.3 0-.2-.2-.3-.3-.3-.2 0-.3.2-.3.3 0 .2.1.3.3.3M91.9 214.7c.2 0 .4-.2.4-.4s-.2-.4-.4-.4-.4.2-.4.4.2.4.4.4M99.5 214.7c.2 0 .4-.2.4-.4s-.2-.4-.4-.4-.4.2-.4.4.2.4.4.4M107.2 214.7c.2 0 .4-.2.4-.4s-.2-.4-.4-.4-.4.2-.4.4.1.4.4.4M114.8 214.7c.2 0 .4-.2.4-.4s-.2-.4-.4-.4-.4.2-.4.4.2.4.4.4M122.5 214.7c.2 0 .4-.2.4-.4s-.2-.4-.4-.4-.4.2-.4.4.1.4.4.4M130.1 214.7c.2 0 .4-.2.4-.4s-.2-.4-.4-.4-.4.2-.4.4.2.4.4.4M137.8 214.7c.2 0 .4-.2.4-.4s-.2-.4-.4-.4-.4.2-.4.4.2.4.4.4M145.4 214.6c.2 0 .3-.2.3-.3 0-.2-.2-.3-.3-.3-.2 0-.3.2-.3.3 0 .2.1.3.3.3M153.1 214.6c.2 0 .3-.1.3-.3s-.1-.3-.3-.3c-.2 0-.3.1-.3.3s.1.3.3.3M160.7 214.5c.1 0 .2-.1.2-.2s-.1-.2-.2-.2-.2.1-.2.2.1.2.2.2M168.4 214.4c.1 0 .1-.1.1-.1l-.1-.1c-.1 0-.1.1-.1.1s0 .1.1.1M176 214.3c.1 0 .1 0 0 0 .1-.1 0-.1 0-.1v.1M68.9 222c.1 0 .1 0 0 0 .1-.1 0-.1 0-.1v.1M76.6 222.1c.1 0 .1-.1.1-.1 0-.1-.1-.1-.1-.1-.1 0-.1.1-.1.1s0 .1.1.1M84.2 222.1c.1 0 .2-.1.2-.2s-.1-.2-.2-.2-.2.1-.2.2c.1.1.1.2.2.2M91.9 222.1c.1 0 .2-.1.2-.2s-.1-.2-.2-.2-.2.1-.2.2.1.2.2.2M99.5 222.2c.1 0 .3-.1.3-.3 0-.1-.1-.3-.3-.3-.1 0-.3.1-.3.3.1.2.2.3.3.3M107.2 222.2c.2 0 .3-.1.3-.3 0-.2-.1-.3-.3-.3-.2 0-.3.1-.3.3 0 .2.1.3.3.3M114.8 222.2c.2 0 .3-.1.3-.3 0-.2-.1-.3-.3-.3-.2 0-.3.1-.3.3.1.2.2.3.3.3M122.5 222.2c.2 0 .3-.1.3-.3 0-.2-.1-.3-.3-.3-.2 0-.3.1-.3.3 0 .2.1.3.3.3M130.1 222.2c.1 0 .3-.1.3-.3 0-.1-.1-.3-.3-.3-.1 0-.3.1-.3.3.1.2.2.3.3.3M137.8 222.2c.1 0 .2-.1.2-.2s-.1-.2-.2-.2-.2.1-.2.2c-.1.1.1.2.2.2M145.4 222.1c.1 0 .2-.1.2-.2s-.1-.2-.2-.2-.2.1-.2.2c.1.1.1.2.2.2M153.1 222.1c.1 0 .1-.1.1-.1 0-.1-.1-.1-.1-.1-.1 0-.1.1-.1.1s0 .1.1.1M160.7 222c.1 0 .1 0 0 0 .1-.1 0-.1 0-.1v.1M84.2 229.6s.1 0 0 0c.1 0 0 0 0 0M91.9 229.6s0-.1 0 0c0-.1-.1 0 0 0-.1 0 0 0 0 0M99.5 229.7c.1 0 .1-.1 0 0 .1-.1 0-.2 0-.2s-.1 0 0 .2c-.1-.1 0 0 0 0M107.2 229.7s.1-.1 0 0c.1-.1 0-.2 0-.2-.1 0-.1 0 0 .2-.1-.1-.1 0 0 0M114.8 229.7c.1 0 .1 0 .1-.1s0-.1-.1-.1-.1 0-.1.1l.1.1M122.5 229.7s.1-.1 0 0c.1-.1 0-.2 0-.2-.1 0-.1 0 0 .2-.1-.1-.1 0 0 0M130.1 229.7c.1 0 .1-.1 0 0 .1-.1 0-.2 0-.2s-.1 0 0 .2c-.1-.1 0 0 0 0M137.8 229.6c.1-.1 0-.1 0-.1-.1 0-.1 0 0 .1-.1 0-.1 0 0 0M145.4 229.6s.1 0 0 0c.1 0 0 0 0 0"></path></g></svg>
