<svg width="1400" height="1404" viewBox="0 0 1400 1404" fill="none" xmlns="http://www.w3.org/2000/svg">
<g opacity="0.1">
<path fill-rule="evenodd" clip-rule="evenodd" d="M432.798 1347.01C475.123 1364.29 519.018 1377.46 563.872 1386.33C699.294 1412.91 839.543 1399.24 967.272 1347.01C1049.84 1313.32 1127.16 1263.04 1194.95 1196.85C1130.53 1262.6 1053.58 1314.79 968.644 1350.32C797.854 1421.91 602.412 1421.9 431.426 1350.25C346.464 1314.79 269.492 1262.65 205.073 1196.9C221.434 1212.92 238.527 1228.14 256.352 1242.56C274.178 1256.97 292.638 1270.47 311.733 1283.03C349.882 1308.29 390.434 1329.72 432.798 1347.01ZM703.15 1360.47C629.458 1358.88 562.766 1345.8 497.362 1323.29C475.3 1315.67 453.629 1306.87 432.154 1297.59C416.041 1290.63 400.031 1283.34 384.017 1276.03L384.015 1276.03C378.686 1273.6 373.357 1271.18 368.024 1268.76C357.338 1263.92 346.605 1259.14 335.826 1254.43L303.516 1240.53C281.999 1231.25 260.706 1221.5 240.114 1210.36C229.792 1204.82 219.722 1198.86 209.903 1192.48C200.049 1186.14 190.522 1179.3 181.359 1171.99C199.331 1187.11 218.7 1200.5 239.204 1211.97C259.628 1223.6 280.781 1233.88 302.2 1243.65C308.688 1246.62 315.223 1249.52 321.751 1252.42C325.942 1254.28 330.129 1256.14 334.3 1258.01C343.385 1262.1 352.449 1266.33 361.484 1270.54L361.494 1270.55L361.505 1270.55C363.072 1271.29 364.638 1272.02 366.204 1272.75C371.11 1275.05 376.013 1277.37 380.915 1279.68L380.917 1279.68C397.223 1287.38 413.535 1295.08 430.012 1302.49C451.445 1312.13 473.144 1321.26 495.374 1329.07C561.17 1352.25 627.54 1365.67 703.052 1367.46C853.417 1370.36 980.879 1332.11 1105.3 1255.26C1145.15 1230.41 1183.06 1202.58 1218.7 1172C1061.61 1296.31 900.972 1364.75 703.15 1360.47ZM1024.6 1269.79C1033.6 1265.8 1041.84 1262.15 1054.44 1256.14C1076.17 1245.74 1097.49 1234.54 1118.5 1222.73C1166.56 1195.94 1205.02 1170.48 1241.11 1145.99C1169.74 1197.46 1115.79 1231.29 1040.05 1267.98C1039.38 1268.29 1038.66 1268.62 1037.89 1268.97C1030.18 1272.53 1018 1278.16 1006.93 1282.81C956.58 1304.04 903.661 1318.6 849.525 1326.09C825.516 1329.5 801.343 1331.63 777.107 1332.48C718.101 1335 653.565 1332.5 596.518 1316.82C587.545 1314.59 571.082 1309.37 561.716 1305.93C516.303 1289.44 470.988 1272.27 427.324 1251.37C420.923 1248.33 415.09 1245.55 409.703 1242.98C363.447 1220.9 350.146 1214.56 293.156 1198.79C289.423 1197.75 285.686 1196.72 281.948 1195.69C262.407 1190.31 242.85 1184.91 223.706 1178.1C218.908 1176.5 214.225 1174.65 209.562 1172.81L209.56 1172.81C208.62 1172.43 207.68 1172.06 206.74 1171.69C204.955 1170.99 203.215 1170.21 201.466 1169.43L201.465 1169.43C200.458 1168.98 199.447 1168.52 198.424 1168.08C184.58 1162 171.352 1154.6 158.918 1145.99C179.203 1159.12 201.448 1168.7 224.308 1176.3C243.431 1182.65 262.985 1187.59 282.559 1192.53C286.386 1193.49 290.213 1194.46 294.038 1195.44C353.067 1210.75 374.87 1220.96 407.291 1236.15C437.458 1250.29 476.818 1268.73 563.914 1299.59C586.491 1307.6 609.692 1313.73 633.28 1317.92C674.046 1325.01 704.676 1325.88 740.794 1326.32C767.644 1326.15 804.154 1325 830.752 1321.67C883.893 1315.57 934.486 1304.56 988.159 1284.61C998.534 1280.9 1015.15 1273.85 1020.21 1271.7C1020.9 1271.42 1021.37 1271.21 1021.59 1271.12C1022.61 1270.67 1023.61 1270.23 1024.6 1269.79ZM704.956 1292.46C650.765 1287.06 612.813 1275.35 561.8 1254.68C518.48 1237.04 486.189 1221.03 457.64 1206.87L457.639 1206.87L457.638 1206.87L457.637 1206.87C422.807 1189.6 393.548 1175.09 356.629 1163.75C327.919 1154.99 297.244 1151.91 266.34 1148.8C222.273 1144.38 177.739 1139.9 137.766 1118.85C171.056 1137.6 207.048 1144.23 245.237 1149.28C255.902 1150.7 265.567 1151.85 274.57 1152.93C325.355 1158.99 355.058 1162.53 424.063 1196.4C434.83 1201.65 445.491 1207.1 456.16 1212.54C467.685 1218.43 479.219 1224.32 490.909 1229.98C623.509 1294.24 684.615 1305.29 807.5 1301.92C807.751 1301.92 807.971 1301.92 808.19 1301.91C809.715 1301.9 811.24 1301.81 823.345 1301.08L823.347 1301.08L823.351 1301.08L826.272 1300.91C989.993 1289.88 1108.12 1217.89 1262.26 1118.94C1258.5 1121.2 1254.77 1123.46 1251.05 1125.7C1113.8 1208.48 1003.42 1275.06 853.599 1291.66C803.342 1297.19 745.609 1296.49 704.956 1292.46ZM1178.33 1148.78L1178.34 1148.77C1189.48 1142.47 1201.39 1135.72 1214.22 1128.48L1248.08 1109.48C1259.4 1103.22 1270.75 1097.02 1282.11 1090.89C1270.9 1097.37 1259.73 1103.87 1248.6 1110.4L1215.18 1130.09C1207.72 1134.5 1200.59 1138.72 1193.75 1142.77C1102.66 1196.7 1064.13 1219.51 1010.07 1240.2C961.384 1258.72 910.266 1270.06 858.317 1273.88C808.284 1277.98 751.629 1278.66 702.814 1268.06C631.749 1252.61 558.657 1213.92 492.553 1178.92C437.683 1149.88 387.628 1123.38 347.543 1114.84C317.103 1108.78 285.487 1109.25 253.875 1109.71C207.301 1110.39 160.736 1111.07 117.957 1090.91C160.92 1109.75 207.303 1108.21 253.421 1106.68C292.372 1105.39 331.136 1104.1 367.492 1115.1C383.563 1119.96 402.952 1128.27 421.837 1136.75C449.89 1149.44 477.114 1163.72 504.294 1177.97C522.905 1187.73 541.495 1197.48 560.317 1206.7C664.05 1257.51 716.365 1267.95 780.607 1269.65C812.793 1270.19 844.982 1268.83 877.006 1265.57C913.823 1261.54 945.63 1255.68 989.909 1241.44C1047.88 1222.67 1086.36 1200.87 1178.33 1148.78L1178.33 1148.78ZM1228.97 1098.9C1197.81 1115.87 1170.98 1132.18 1146.06 1147.34C1079.5 1187.81 1026.48 1220.05 940.478 1234.61L930.594 1236.22C873.912 1244.82 789.385 1244.61 770.752 1242.82C764.176 1242.32 757.634 1241.45 751.153 1240.23C750.932 1240.2 750.724 1240.16 750.528 1240.13C750.371 1240.11 750.221 1240.08 750.078 1240.06C749.632 1239.99 749.25 1239.93 748.91 1239.88L748.905 1239.88L748.902 1239.87L748.898 1239.87L748.891 1239.87C748.213 1239.77 747.704 1239.69 747.196 1239.6C745.672 1239.34 744.16 1239 738.135 1237.68L738.128 1237.68L738.126 1237.68L735.794 1237.16C734.576 1236.9 733.213 1236.6 731.68 1236.26C671.489 1219.92 628.768 1196.2 574.133 1165.87L574.114 1165.86C569.199 1163.13 564.187 1160.34 559.057 1157.51C546.994 1150.77 535.007 1143.98 523.202 1137.3L523.144 1137.27L523.129 1137.26L523.119 1137.25C467.646 1105.84 416.182 1076.7 379.629 1065.86C337.298 1053.72 295.977 1058.66 249.666 1064.2C227.441 1066.86 204.068 1069.66 178.881 1070.77C139.292 1072.6 116.725 1067.97 99.5481 1061.9C142.606 1078.43 199.18 1072.64 253.608 1067.07L256.85 1066.74L259.293 1066.49C353.605 1056.55 377.04 1064.08 450.773 1103.9C477.331 1118.19 503.545 1133.27 529.314 1148.08C589.282 1182.57 646.84 1215.67 700.714 1234.36C722.91 1241.43 726.658 1242.24 742.513 1245.66L742.523 1245.67L744.053 1246L744.895 1246.18C754.93 1248.02 765.057 1249.32 775.232 1250.08C815.297 1251.41 881.625 1249.75 921.523 1243.7C924.839 1243.23 926.564 1243 927.738 1242.84C928.079 1242.79 928.373 1242.75 928.647 1242.72C928.87 1242.69 929.079 1242.66 929.288 1242.63C930.706 1242.42 932.118 1242.19 937.829 1241.22L937.837 1241.22L937.841 1241.22L937.843 1241.22L937.865 1241.21C938.925 1241.03 940.132 1240.83 941.514 1240.6C1027.93 1225.95 1085.97 1189.43 1154.18 1146.52C1177.68 1131.73 1202.4 1116.19 1229.9 1100.51C1241.53 1093.86 1253.25 1087.33 1265.03 1080.92C1276.82 1074.52 1288.64 1068.17 1300.48 1061.9C1288.41 1067.83 1276.43 1073.85 1264.53 1079.95C1252.63 1086.05 1240.78 1092.36 1228.97 1098.9ZM731.792 1201.44C779.963 1218.7 815.171 1227.57 905.172 1220.48C983.819 1214.42 1041.72 1193.99 1101.24 1158.4C1118.78 1147.97 1135.61 1136.79 1153.41 1124.95L1153.41 1124.95L1153.41 1124.95L1153.42 1124.94L1153.42 1124.94C1195.3 1097.09 1242.61 1065.63 1317.43 1031.93C1304.88 1038.01 1292.46 1044.32 1280.17 1050.85C1225.83 1079.58 1192.22 1102.73 1160.17 1124.8L1160.17 1124.8L1160.16 1124.8C1141.95 1137.34 1124.25 1149.52 1103.54 1162.19C1032.58 1205.59 966.39 1226.13 863.776 1229.25C842.703 1230.06 821.599 1229.17 800.668 1226.59C715.789 1214.45 638.224 1164.9 564.772 1117.98C561.576 1115.94 558.388 1113.9 555.207 1111.87C546.262 1106.19 537.649 1100.66 529.318 1095.31C468.402 1056.19 422.525 1026.73 371.664 1016.82C332.177 1008.87 285.474 1017.57 238.182 1026.37C183.72 1036.51 128.475 1046.8 82.5672 1031.97C128.176 1045.45 182.026 1034.5 235.602 1023.61C283.507 1013.87 331.192 1004.18 372.574 1012.02C425.259 1021.65 471.8 1051.18 532.084 1089.44C540.678 1094.9 549.552 1100.53 558.763 1106.3C563.207 1109.1 567.9 1112.08 572.806 1115.19C616.73 1143.07 677.795 1181.82 731.792 1201.44ZM1112.26 1137.7C1076.03 1161.2 1036.03 1178.31 993.996 1188.27C943.025 1200.21 875.451 1206.68 823.277 1196.3C821.338 1195.88 819.4 1195.48 817.464 1195.08L817.464 1195.08L817.463 1195.08L817.463 1195.08L817.462 1195.08L817.462 1195.08C812.408 1194.04 807.373 1193.01 802.404 1191.49C728.682 1171.2 665.725 1127.2 602.335 1082.91L602.327 1082.9L602.307 1082.89C588.186 1073.02 574.044 1063.14 559.756 1053.5C521.539 1027.62 460.782 986.798 408.496 968.163C394.734 963.266 380.315 959.629 365.546 958.873C328.137 956.899 287.297 967.724 241.173 979.949C213.751 987.217 184.461 994.981 152.913 1000.84C123.892 1006.01 95.6282 1008.57 67.0419 1001.49C95.8661 1009.38 123.837 1007.35 153.221 1002.66C187.179 997.001 217.841 989.352 246.053 982.314C290.834 971.143 329.444 961.512 365.266 963.812C393.264 965.533 420.843 978.222 445.845 990.953C458.654 997.459 471.226 1004.48 483.643 1011.85C508.365 1026.59 532.276 1042.75 556.089 1059.07C570.174 1068.67 583.951 1078.33 597.576 1087.9C659.905 1131.63 719.065 1173.15 790.141 1195.28L793.34 1196.16C804.82 1199.3 807.267 1199.96 809.745 1200.49C810.416 1200.64 811.089 1200.77 811.944 1200.94L811.945 1200.94L811.946 1200.94C813.821 1201.31 816.57 1201.85 822.087 1203.05C875.143 1213.44 943.879 1206.6 995.438 1194.08C1037.89 1183.51 1078.22 1165.73 1114.66 1141.52C1137.83 1126.36 1156.26 1112.11 1174.6 1097.95C1206.51 1073.3 1238.12 1048.88 1293.84 1020.26C1306.69 1013.64 1319.71 1007.38 1332.9 1001.49C1319.57 1007.08 1306.4 1013.03 1293.37 1019.33C1236.04 1047.3 1202.04 1072.77 1168.77 1097.69L1168.77 1097.69C1150.89 1111.08 1133.22 1124.32 1112.26 1137.7ZM1038.63 1158.91C1040.23 1158.36 1041.84 1157.81 1043.44 1157.27C1109.02 1132.99 1144.59 1103.12 1182.27 1071.47C1214.89 1044.07 1249.09 1015.35 1305.72 987.749C1319.2 981.23 1332.94 975.288 1346.94 969.925C1333.07 975.615 1319.49 981.873 1306.19 988.7C1251.52 1016.61 1218 1045.44 1185.83 1073.11C1164.01 1091.86 1142.81 1110.09 1116.07 1127.13C1114.9 1127.87 1113.73 1128.62 1112.57 1129.36C1110.56 1130.65 1108.55 1131.94 1106.51 1133.16C1104.67 1134.19 1102.85 1135.24 1101.03 1136.29C1096.32 1139 1091.61 1141.7 1086.71 1144.06C1052.01 1162.45 1003.81 1178.16 957.613 1183.43C942.62 1185.27 927.529 1186.21 912.423 1186.23C906.874 1186.06 903.966 1186.01 901.963 1185.98C897.634 1185.9 897.53 1185.9 884.131 1184.94C883.222 1184.87 882.632 1184.83 882.17 1184.8C881.856 1184.78 881.602 1184.76 881.349 1184.74C880.261 1184.66 879.178 1184.53 873.457 1183.82L873.452 1183.82C871.802 1183.62 869.767 1183.37 867.234 1183.05C864.672 1182.8 863.118 1182.51 853.37 1180.68L853.368 1180.68C852.463 1180.51 851.488 1180.33 850.435 1180.13C848.55 1179.83 846.681 1179.43 844.836 1178.94C843.518 1178.6 842.197 1178.27 840.876 1177.94C834.847 1176.43 828.809 1174.91 822.941 1172.87C808.537 1168.26 794.452 1162.71 780.775 1156.26C726.857 1129.73 692.196 1104.11 640.068 1065.57C636.772 1063.14 633.407 1060.65 629.963 1058.11C624.09 1053.79 618.223 1049.47 612.357 1045.14L612.326 1045.12C594.108 1031.69 575.895 1018.27 557.531 1005.11C545.38 996.381 533.116 987.889 520.727 979.593C508.338 971.296 495.627 963.294 483.027 955.431C461.595 942.378 434.52 927.031 407.978 919.476C399.151 916.868 390.102 915.079 380.945 914.132L380.014 914.036L378.781 913.91L378.781 913.91L378.78 913.91L378.78 913.91L378.779 913.909L378.778 913.909L378.778 913.909L378.777 913.909L378.777 913.909C373.997 913.418 373.997 913.418 372.686 913.418L372.204 913.402L371.638 913.384L371.612 913.383C362.191 913.067 344.403 912.471 314.771 918.623C290.778 923.612 270.795 930.166 245.199 938.561C228.665 943.984 209.79 950.175 185.979 957.208C143.002 969.799 96.9024 980.474 53.169 970.037C96.8604 979.341 143.072 967.799 185.223 954.648C201.846 949.42 217.632 944.029 232.786 938.855L232.804 938.849L232.808 938.847L232.812 938.846L232.82 938.843L232.835 938.838L232.838 938.837L232.844 938.835L232.85 938.833C296.008 917.265 348.16 899.455 403.988 912.789C424.581 918.147 445.258 925.632 486.177 950.227C499 958.062 511.67 966.008 524.199 974.304C536.714 982.615 549.089 991.097 561.325 999.753C578.773 1012.1 595.98 1024.74 613.183 1037.38C620.106 1042.47 627.029 1047.56 633.966 1052.62C637.387 1055.14 640.884 1057.72 644.451 1060.35L644.478 1060.37C696.077 1098.46 762.286 1147.33 824.957 1166.45C830.304 1168.32 835.782 1169.72 841.266 1171.12L841.267 1171.12L841.268 1171.12L841.269 1171.12C842.948 1171.55 844.628 1171.98 846.306 1172.42C848.307 1172.99 849.469 1173.22 857.155 1174.62C860.676 1175.24 861.958 1175.51 862.804 1175.69L862.805 1175.69L862.809 1175.69L862.816 1175.69L862.828 1175.69L862.834 1175.7L862.841 1175.7C862.935 1175.72 863.024 1175.74 863.111 1175.75C863.201 1175.77 863.288 1175.79 863.375 1175.81C864.633 1176.06 865.91 1176.23 876.027 1177.54L876.03 1177.54L876.035 1177.54L876.037 1177.54L876.043 1177.54L879.092 1177.93C880.443 1178.13 881.139 1178.18 886.143 1178.57L886.145 1178.57C887.255 1178.66 888.577 1178.76 890.165 1178.88C895.503 1179.42 900.871 1179.56 906.236 1179.69L906.237 1179.69L906.239 1179.69L906.24 1179.69L906.242 1179.69L906.243 1179.69L906.245 1179.69L906.246 1179.69L906.248 1179.69C908.293 1179.74 910.338 1179.79 912.382 1179.86C942.485 1179.69 955.053 1177.82 974.555 1174.91L976.418 1174.63C977.216 1174.51 978.026 1174.39 978.849 1174.27C981.209 1173.88 983.551 1173.4 985.891 1172.92L985.891 1172.92L985.891 1172.92L985.891 1172.92L985.892 1172.92L985.892 1172.92L985.892 1172.92L985.893 1172.92L985.893 1172.92L985.894 1172.92L985.895 1172.92L985.896 1172.92L985.897 1172.92C987.192 1172.66 988.486 1172.39 989.783 1172.14C991.194 1171.86 992.259 1171.64 993.122 1171.47C994.318 1171.23 995.127 1171.07 995.935 1170.9C997.628 1170.54 999.31 1170.12 1004.52 1168.85L1004.52 1168.85L1004.53 1168.85L1004.53 1168.85C1005.47 1168.62 1006.54 1168.36 1007.74 1168.06C1008.86 1167.79 1010.11 1167.48 1011.5 1167.15C1013.87 1166.56 1016.22 1165.86 1018.57 1165.17C1019.78 1164.81 1021 1164.46 1022.22 1164.11C1027.79 1162.62 1033.22 1160.76 1038.63 1158.91ZM1275.81 978.613C1243.78 999.162 1219.25 1021.97 1195.18 1044.36C1156.06 1080.73 1118.15 1115.99 1051.21 1138.61C1029.37 1145.9 1006.86 1151.02 984.015 1153.88C901.258 1163.54 853.995 1141.84 831.671 1131.59C830.132 1130.89 828.712 1130.24 827.407 1129.65C826.617 1129.26 825.809 1128.86 824.982 1128.44C803.584 1117.79 769.782 1100.96 710.22 1056.06C686.226 1037.99 662.868 1019.03 639.48 1000.04L639.478 1000.04L639.476 1000.04L639.475 1000.04C614.79 980.004 590.07 959.94 564.53 940.854C539.668 922.302 514.036 904.563 486.821 889.355C390.437 835.534 354.725 847.09 219.899 899.148C205.48 904.744 191.033 910.341 176.502 915.461C148.993 925.114 129.829 931.536 101.368 936.922C81.6154 939.986 74.1258 940.308 58.1108 939.874C52.5037 939.542 46.9178 938.918 41.3755 938.007L46.5475 938.867C95.8525 947.093 155.741 926.597 221.145 902.338C224.968 900.913 228.755 899.497 232.507 898.093L232.55 898.077C297.48 873.791 351.909 853.433 398.934 860.759C451.557 868.845 517.927 913.922 560.527 946.1C586.839 965.909 611.511 986.028 635.782 1005.82L635.79 1005.83L635.791 1005.83L635.792 1005.83C692.187 1051.82 746.417 1096.04 814.023 1130.51C843.086 1144.94 856.021 1149.14 868.27 1152.65C924.827 1168.67 991.463 1164.85 1052.91 1143.66C1121.4 1119.75 1159.61 1083.23 1198.75 1045.82L1198.75 1045.82C1222.19 1023.41 1245.97 1000.69 1276.78 980.166C1289.66 971.619 1303.03 963.827 1316.82 956.831C1330.58 949.767 1344.74 943.489 1359.22 938.028C1344.61 943.174 1330.29 949.134 1316.34 955.879C1302.41 962.671 1288.87 970.262 1275.81 978.613ZM1210.14 1013.99L1210.14 1013.99C1221.97 1001.44 1233.71 988.989 1246.46 977.215C1258.19 966.278 1270.69 956.193 1283.86 947.037C1310.31 928.873 1339.38 914.843 1370.06 905.43C1339.72 915.557 1311.06 930.116 1285 948.632C1256.67 968.844 1235.07 992.223 1213.42 1015.65C1175 1057.24 1136.41 1099 1059.79 1123.51C997.636 1143.06 929.18 1143.28 870.062 1116.88C811.517 1090.52 758.852 1051 710.331 1010.18C693.597 996.08 677.131 981.711 660.683 967.356C653.051 960.696 645.423 954.04 637.774 947.415L619.575 931.816L601.236 916.427C555.389 878.611 466.242 806.938 395.308 805.008C346.282 803.659 287.315 829.235 227.547 855.158C176.348 877.365 124.561 899.826 77.9333 905.836C62.0324 907.868 45.9274 907.708 30.0701 905.36C45.9291 907.353 61.9869 907.16 77.7934 904.787C123.264 898.109 173.756 875.443 224.072 852.856C284.44 825.757 344.553 798.772 395.434 799.649C452.621 800.643 522.687 846.769 567.946 881.269C580.713 890.978 593.172 901.065 605.534 911.222L623.971 926.612L642.169 942.211C649.913 948.894 657.628 955.604 665.339 962.311C681.746 976.581 698.137 990.837 714.755 1004.79C720.831 1009.97 726.976 1015.04 733.164 1020.07C738.786 1024.63 744.454 1029.14 750.116 1033.64L750.117 1033.64L750.117 1033.64L750.118 1033.64L750.119 1033.64L750.119 1033.64L750.12 1033.64L750.12 1033.64L750.121 1033.64L750.146 1033.66L750.161 1033.67L751.825 1034.99C751.972 1035.11 752.153 1035.25 752.366 1035.41L752.969 1035.87C758.204 1039.9 775.093 1052.87 785.339 1059.94C785.956 1060.36 786.597 1060.8 787.261 1061.26C803.46 1072.36 833.44 1092.91 872.708 1110.81C930.132 1136.8 996.46 1136.89 1058.13 1118.38C1133.73 1095.05 1172.41 1054.02 1210.14 1013.99ZM1015.23 1103.46C999.428 1105.31 982.503 1106.01 966.698 1104.04C881.625 1093.74 783.197 1010.5 719.305 952.508C706.878 941.239 694.592 929.91 682.399 918.667L682.398 918.666L682.397 918.665L682.395 918.664L682.394 918.663L682.393 918.661L682.392 918.66L682.391 918.659L682.39 918.658L682.389 918.657L682.388 918.656L682.387 918.655L682.386 918.655C617.374 858.706 554.979 801.17 487.731 768.115C476.538 762.611 465.024 757.786 453.251 753.663C444.817 750.775 436.147 748.631 427.338 747.256C425.435 747.027 423.915 746.844 422.688 746.695C417.98 746.127 417.593 746.08 416.405 746.024C408.06 745.377 399.678 745.377 391.333 746.024C389.457 746.094 380.427 747.102 378.887 747.423C366.55 749.245 354.378 752.052 342.49 755.818C307.336 766.855 267.656 786.72 227.149 807L227.148 807C173.337 833.94 118.067 861.61 70.0099 870.286C53.8289 873.28 37.3085 873.996 20.929 872.413C37.316 874.345 53.8926 873.978 70.1779 871.322C119.363 863.309 175.236 836.202 230.184 809.543L230.187 809.542C253.138 798.407 275.927 787.351 298 777.796C336.05 761.19 357.049 756.111 379.629 752.614C381.127 752.376 389.947 751.481 391.739 751.439C402.839 750.702 413.987 751.172 424.987 752.838C429.974 753.604 434.918 754.631 439.798 755.916C441.832 756.476 442.787 756.716 443.428 756.876C443.687 756.941 443.895 756.994 444.102 757.049C444.939 757.272 445.762 757.546 449.91 758.925C451.07 759.31 452.491 759.783 454.245 760.364C454.572 760.492 454.964 760.644 455.415 760.819L455.426 760.823L455.428 760.824L455.429 760.824C460.48 762.781 472.938 767.607 485.043 773.739C541.264 801.72 595.286 848.671 641.974 890.992C654.066 901.985 666.065 913.091 678.072 924.206C690.21 935.441 702.356 946.684 714.615 957.824C739.002 979.985 763.934 1001.61 790.043 1021.86C826.441 1050.06 874.486 1082.18 917.435 1098.19C961.112 1114.5 994.64 1114.12 1040.46 1105.53C1048.57 1103.98 1056.7 1102.33 1064.75 1100.23C1097.08 1092.14 1127.54 1077.89 1154.47 1058.26C1167.75 1048.33 1180.13 1037.25 1191.47 1025.16C1204.67 1011.33 1216.19 997.356 1227.5 983.631C1256.08 948.943 1283.37 915.833 1333.35 890.573C1348.04 883.172 1363.35 877.086 1379.11 872.385C1298.57 894.632 1260.62 939.311 1222.88 983.752C1177.67 1036.99 1132.75 1089.88 1015.23 1103.46ZM1169.9 1022.86C1176.48 1017.7 1182.76 1012.17 1188.72 1006.3C1207.8 986.934 1222.64 967.034 1236.94 947.868C1272 900.853 1303.77 858.258 1386.63 838.808C1353.87 846.853 1322.56 861.473 1296.78 883.144C1290.32 888.511 1284.2 894.277 1278.46 900.408C1275.34 903.569 1267.93 912.089 1262.09 919.588C1253.94 929.78 1246.29 940.377 1238.63 950.998C1236.42 954.053 1234.22 957.11 1232 960.16C1203.07 999.655 1189.9 1011.74 1172.56 1026.24C1171.78 1026.83 1171.01 1027.42 1170.24 1028.02C1167.65 1030.03 1165.05 1032.05 1162.34 1033.92C1134.58 1053.76 1102.36 1067.09 1069.02 1074.01C1027.92 1082.48 988.621 1083.26 948.625 1070.36C936.388 1066.48 924.48 1061.63 913.011 1055.87C910.932 1054.76 909.076 1053.77 907.409 1052.88L907.391 1052.87L907.086 1052.71L907.079 1052.71L907.029 1052.68L906.999 1052.66L906.994 1052.66L906.991 1052.66C898.635 1048.21 895.122 1046.34 891.67 1044.36C889.167 1042.93 886.695 1041.44 882.433 1038.87L882.432 1038.87C880.238 1037.55 877.569 1035.94 874.178 1033.9C845.311 1015.95 818.419 995.08 792.703 973.031C766.986 950.983 742.432 927.661 718.213 904.101C711.887 897.928 705.614 891.785 699.389 885.689C625.136 812.973 557.564 746.801 484.833 713.511C457.479 701.031 443.48 698.373 425.281 696.568C367.247 690.064 298.435 727.379 228.056 765.544C172.786 795.515 116.55 826.01 63.8084 836.22C47.1777 839.416 30.1807 840.268 13.3134 838.752C72.0678 843.145 130.346 815.416 202.47 775.53C210.683 771.014 218.77 766.517 226.743 762.084C307.099 717.4 375.827 679.182 444.88 693.463C449.135 694.238 453.342 695.261 457.479 696.527C459.567 697.043 461.623 697.678 463.638 698.429C467.729 699.723 471.752 701.222 475.692 702.92C555.917 735.7 627.085 805.26 701.729 878.218L701.729 878.218L701.735 878.223L701.74 878.228C708.838 885.167 715.969 892.135 723.141 899.106C747.303 922.652 771.69 945.918 797.196 967.869C834.308 999.781 860.179 1017.63 888.499 1034.84C888.843 1035.05 889.165 1035.25 889.469 1035.43L889.906 1035.7C890.261 1035.91 890.589 1036.11 890.894 1036.3L891.339 1036.57L891.347 1036.58L891.368 1036.59L891.38 1036.6C892.654 1037.37 893.514 1037.9 894.383 1038.41C896.184 1039.47 898.022 1040.47 903.67 1043.53L903.673 1043.53C905.485 1044.51 907.688 1045.7 910.407 1047.18C961.98 1075.03 1010.77 1079.95 1067.94 1068.75C1100.9 1062.44 1132.18 1049.35 1159.8 1030.31C1162.46 1028.52 1165 1026.59 1167.54 1024.65C1168.33 1024.05 1169.11 1023.46 1169.9 1022.86ZM1185.53 987.736C1184.88 988.299 1184.22 988.863 1183.57 989.425C1180.99 991.654 1178.43 993.864 1175.73 995.976C1175.15 996.431 1174.57 996.893 1173.99 997.355L1173.99 997.355L1173.99 997.355L1173.99 997.355L1173.99 997.356L1173.99 997.356L1173.99 997.356L1173.99 997.356L1173.99 997.357L1173.99 997.357L1173.99 997.357L1173.98 997.358L1173.98 997.358L1173.98 997.358C1172.89 998.229 1171.8 999.099 1170.67 999.921L1169.15 1001.01L1168.1 1001.77L1168.1 1001.77C1164.72 1004.2 1163.9 1004.79 1163.06 1005.35C1162.79 1005.52 1162.51 1005.7 1162.15 1005.93C1161.69 1006.23 1161.08 1006.62 1160.14 1007.24C1149.43 1014.28 1138.02 1020.2 1126.09 1024.91C1100.14 1035.11 1072.74 1041.14 1044.9 1042.75C1044.09 1042.77 1043.28 1042.8 1042.47 1042.83C1039.04 1042.96 1035.55 1043.09 1032.1 1043C1019.31 1042.94 1006.55 1041.65 993.997 1039.16C993.544 1039.08 993.165 1039 992.836 1038.94L992.835 1038.94L992.831 1038.94C992.143 1038.81 991.675 1038.72 991.21 1038.62C990.231 1038.42 989.259 1038.17 986.246 1037.41C985.056 1037.11 983.547 1036.73 981.593 1036.24C924.785 1018.75 882.899 985.959 839.838 949.976C837.796 948.253 835.796 946.531 833.796 944.808C833.098 944.208 832.4 943.607 831.701 943.006C831.148 942.531 830.595 942.056 830.039 941.581C826.763 938.783 823.543 935.985 820.337 933.047C818.26 931.154 816.17 929.272 814.081 927.39L814.078 927.388L814.076 927.386L814.074 927.384L814.071 927.381L814.069 927.379L814.067 927.377L814.064 927.375L814.062 927.373L814.059 927.37L814.057 927.368L814.055 927.366L814.052 927.364L814.05 927.362C809.743 923.483 805.435 919.603 801.228 915.615C776.135 892.244 750.069 866.138 723.535 839.563L723.533 839.562C674.556 790.51 623.983 739.86 574.988 701.857C547.592 680.55 518.207 661.285 485.981 647.575C446.504 630.912 417.959 629.569 382.947 638.187C334.921 650.242 279.724 683.988 227.017 716.212L227.016 716.213L226.988 716.23C217.436 722.07 207.965 727.86 198.634 733.461L197.26 734.287C138.544 769.553 73.5961 808.561 7.54595 804.924C59.5948 808.841 109.404 786.569 155.125 761.848C181.411 747.538 206.641 732.576 230.869 718.209C308.496 672.174 375.837 632.239 434.688 639.404C482.061 644.847 533.424 677.64 570.914 707.062C620.757 746.385 666.95 792.715 713.472 839.375L713.474 839.378L713.481 839.385L713.482 839.386C740.809 866.793 768.249 894.314 796.609 920.596C800.678 924.437 804.84 928.178 809.002 931.918L809.003 931.918L809.004 931.919L809.004 931.92L809.005 931.92L809.008 931.923L809.011 931.925L809.013 931.928L809.016 931.93L809.019 931.933L809.022 931.935L809.024 931.938L809.027 931.941L809.03 931.943C811.302 933.985 813.573 936.027 815.829 938.084C817.924 939.96 820.048 941.8 822.171 943.64L822.177 943.645L822.181 943.648L822.185 943.652L822.188 943.655C823.337 944.65 824.486 945.646 825.629 946.646C826.294 947.228 826.958 947.811 827.622 948.394L827.654 948.422C830.234 950.688 832.809 952.95 835.428 955.124C836.193 955.767 836.958 956.409 837.722 957.052C843.612 962.003 849.479 966.935 855.489 971.703C862.279 977.089 869.152 982.419 876.138 987.596C890.123 997.977 904.702 1007.53 919.801 1016.22C934.971 1024.94 950.902 1032.27 967.398 1038.11C1019.06 1056.44 1077.33 1049.46 1127.8 1029.4C1137.93 1025.26 1147.7 1020.3 1157.02 1014.56C1158.22 1013.83 1159.38 1013.05 1160.54 1012.27C1161.19 1011.84 1161.85 1011.4 1162.5 1010.97C1171.59 1004.92 1180.2 998.19 1188.28 990.841C1217.5 963.8 1234.98 936.555 1251.34 911.033C1265.92 888.294 1279.63 866.922 1299.99 848.28C1325.85 824.496 1358.21 811.583 1392.38 804.91C1308.77 819.458 1280.26 862.162 1248.12 910.293C1231.15 935.709 1213.17 962.639 1185.53 987.736ZM922.503 965.924C969.792 996.241 1012.36 1011.84 1070.59 1006.03C1182.53 994.195 1218.33 934.328 1251.79 878.387C1266.44 853.882 1280.65 830.131 1300.61 811.499C1326.97 786.652 1360.96 774.872 1396.67 770.843C1361.33 775.516 1327.44 787.995 1301.88 812.814C1282.92 831.065 1269.29 854.503 1255.11 878.891C1221.93 935.956 1185.73 998.22 1071.15 1011.39C1003.47 1018.74 952.755 996.605 897.081 956.243C889.969 950.983 882.857 945.652 875.97 940.056C862.139 928.962 848.825 917.266 835.778 905.332C830.137 900.155 824.558 894.904 818.979 889.652C818.121 888.844 817.262 888.036 816.403 887.229C776.949 848.796 747.713 818.015 720.451 789.311L720.445 789.305L720.444 789.304L720.442 789.302C697.213 764.845 675.417 741.896 649.953 717.008C624.976 692.268 598.74 668.831 571.348 646.791C543.812 625.008 514.441 605.352 481.879 592.97C480.312 592.327 470.946 589.193 469.546 588.773L460.139 586.157L459.822 586.088C451.089 584.201 449.817 583.926 448.53 583.751C448.311 583.721 448.091 583.694 447.834 583.663C447.142 583.578 446.178 583.46 444.222 583.163C439.962 582.561 435.671 582.211 431.37 582.114C429.216 582.002 427.057 582.002 424.903 582.114C424.104 582.15 423.306 582.167 422.507 582.184L422.505 582.184C421.148 582.213 419.792 582.242 418.435 582.366C418.223 582.389 417.425 582.472 416.371 582.583C413.675 582.864 409.305 583.32 408.762 583.401C403.394 584.168 398.071 585.224 392.817 586.563C389.81 587.191 386.885 588.068 383.957 588.946L383.955 588.946C382.712 589.319 381.469 589.692 380.218 590.046C335.154 604.219 283.487 638.231 231.574 672.405C220.252 679.857 208.919 687.318 197.64 694.582C123.753 742.079 64.1025 773.599 3.36016 770.801C56.1369 772.144 105.554 747.311 151.149 720.016C166.268 710.992 181.094 701.521 195.779 691.728C204.545 685.95 214 679.596 223.88 672.956L223.881 672.955C257.732 650.204 296.565 624.104 329.779 606.387C363.083 588.717 380.652 583.862 397.982 579.665C404.573 578.258 411.245 577.263 417.959 576.685C419.425 576.539 420.896 576.494 422.37 576.45C422.661 576.441 422.951 576.432 423.242 576.422C423.73 576.406 424.219 576.388 424.707 576.364C426.958 576.212 429.214 576.179 431.468 576.266L432.633 576.315L433.616 576.356L434.618 576.399L434.618 576.399L434.619 576.399L434.62 576.399L434.621 576.399L434.624 576.399C439.581 576.608 440.32 576.639 441.048 576.744C441.176 576.763 441.303 576.784 441.452 576.808C441.988 576.895 442.811 577.03 444.964 577.273C449.44 577.747 453.879 578.527 458.249 579.609C460.455 580.017 462.638 580.545 464.786 581.19C465.602 581.414 466.325 581.611 466.967 581.787C470.894 582.86 471.827 583.116 472.746 583.413C472.926 583.471 473.105 583.531 473.306 583.599C473.419 583.637 473.538 583.677 473.668 583.721L473.685 583.727L473.691 583.729C474.43 583.98 475.518 584.349 477.652 585.038C478.354 585.282 479.058 585.512 479.76 585.741C481.185 586.205 482.601 586.667 483.979 587.248C517.255 599.714 547.2 619.496 575.422 641.601C603.076 663.702 629.548 687.243 654.727 712.126C681.933 738.615 704.485 762.374 728.472 787.644L728.473 787.645C754.894 815.479 783.055 845.147 821.093 882.318L822.588 883.73L823.535 884.626L823.544 884.634L823.546 884.636C829.113 889.898 834.689 895.167 840.328 900.352C853.277 912.257 866.492 923.841 880.114 934.894C886.903 940.448 893.903 945.778 900.902 950.997C907.986 956.164 915.186 961.14 922.503 965.924ZM1352.3 745.413C1348.9 746.573 1348.28 746.786 1347.67 747.037C1347.53 747.092 1347.4 747.149 1347.24 747.219L1347.23 747.223L1347.06 747.296L1346.95 747.343L1346.74 747.432L1346.59 747.493C1338.88 750.75 1338.85 750.764 1337.86 751.299C1337.35 751.578 1336.57 751.997 1334.32 753.089C1331.38 754.454 1328.62 756.128 1325.85 757.801L1325.85 757.802C1324.76 758.462 1323.67 759.122 1322.57 759.763C1321.54 760.449 1320.52 761.156 1319.49 761.866C1318.66 762.444 1317.82 763.024 1316.97 763.596C1315.09 764.841 1313.28 766.196 1311.55 767.653C1307.96 770.382 1304.54 773.32 1301.29 776.453C1299.44 778.048 1293.02 784.693 1291.81 786.093C1282.81 796.202 1274.84 807.183 1268.02 818.872C1264.24 825.277 1260.48 831.868 1256.68 838.518L1256.68 838.519C1242.49 863.388 1227.82 889.077 1210.13 908.914C1204.28 915.575 1197.96 921.803 1191.2 927.549C1186.09 931.784 1180.74 935.713 1175.16 939.314C1173.99 940.055 1172.78 940.751 1171.57 941.448C1170.86 941.857 1170.15 942.267 1169.45 942.686C1108.8 977.34 1028.41 981.132 965.243 948.674C949.339 940.706 934.084 931.505 919.619 921.155C905.113 910.817 891.156 899.731 877.804 887.942C864.393 876.176 851.401 863.893 838.69 851.315C801.004 813.982 770.232 779.395 740.215 745.655C712.932 714.988 686.272 685.021 655.609 654.332C630.201 628.883 603.56 604.512 574.848 582.673C571.443 579.961 567.867 577.421 564.298 574.885L563.957 574.643L552.953 566.766C447.442 494.016 388.407 511.099 280.74 586.632C263.305 598.837 246.166 611.47 229.036 624.096L229.027 624.103L229.016 624.111L229.005 624.119L228.994 624.127L228.983 624.135L228.972 624.143L228.961 624.151L228.95 624.159L228.939 624.167L228.928 624.175L228.917 624.183L228.906 624.192L228.895 624.2L228.884 624.208L228.873 624.216L228.862 624.224C217.165 632.845 205.473 641.464 193.693 649.939C179.19 660.445 164.491 670.7 149.469 680.451C142.003 685.339 134.406 690.077 126.679 694.666C118.951 699.254 111.149 703.633 103.272 707.802C87.4781 716.231 70.9289 723.163 53.8414 728.508C36.7195 733.908 18.8644 736.626 0.910459 736.567C55.7451 737.616 109.474 713.217 195.681 652.723C209.815 642.793 223.608 632.832 237.076 623.105L237.077 623.103L237.079 623.102L237.08 623.101L237.082 623.1L237.083 623.099C287.641 586.583 333.638 553.362 376.074 537.498C381.03 535.596 387.273 533.539 388.673 533.105C397.065 530.392 405.66 528.352 414.376 527.006C415.754 526.838 417.131 526.709 418.506 526.581L418.51 526.58C419.312 526.505 420.114 526.431 420.913 526.348C423.086 526.075 425.275 525.949 427.465 525.97C431.848 525.769 436.24 525.862 440.61 526.25C443.41 526.25 452.271 527.509 453.671 527.803C458.011 528.508 462.31 529.442 466.55 530.601C479.01 533.497 501.758 542.059 526.971 557.491C534.586 562.065 542.006 566.99 549.37 572.082L560.023 579.931L560.386 580.191L560.765 580.463L561.042 580.662C564.329 583.018 567.612 585.371 570.746 587.919C598.944 609.861 625.648 633.656 650.681 659.144C679.335 687.884 705.302 717.022 732.139 747.138L732.143 747.143L732.144 747.144L732.145 747.144C763.088 781.868 795.189 817.891 833.903 856.1C846.712 868.691 859.787 881.101 873.422 892.909C887.013 904.789 901.213 915.954 915.966 926.359C930.74 936.82 946.308 946.114 962.527 954.158C974.715 960.304 987.485 965.225 1000.65 968.848C1059.9 984.769 1123.2 974.766 1171.7 946.464C1173.3 945.49 1174.25 944.933 1174.95 944.518C1175.36 944.28 1175.69 944.089 1176.01 943.893C1177.32 943.095 1178.58 942.216 1184.96 937.762L1185.93 937.09C1204.8 921.994 1217.27 909.585 1236.99 878.638C1243.36 868.775 1251.7 853.683 1259.55 839.455C1263.34 832.594 1267.02 825.935 1270.31 820.159C1279.93 803.972 1283.5 799.355 1293.37 787.422C1294.54 786.023 1300.83 779.321 1302.59 777.754C1306.58 773.853 1310.78 770.186 1315.19 766.772C1325.41 758.991 1336.62 752.594 1348.51 747.745L1357.98 744.345C1360.4 743.642 1362.2 743.118 1363.56 742.724L1363.61 742.709L1363.61 742.707L1363.62 742.705C1366.93 741.742 1367.54 741.564 1368.17 741.424C1368.31 741.392 1368.45 741.362 1368.62 741.326C1368.8 741.289 1369.01 741.244 1369.29 741.184C1379.09 738.814 1389.08 737.27 1399.15 736.567C1388.49 737.115 1377.9 738.575 1367.49 740.932C1357.81 743.513 1357.59 743.591 1356.62 743.935L1356.62 743.936L1356.6 743.941C1356.47 743.989 1356.32 744.042 1356.13 744.108C1354.64 744.614 1353.44 745.023 1352.47 745.357L1352.3 745.413ZM1181.76 899.918C1184.72 897.874 1187.68 895.828 1190.49 893.594C1220.11 871.893 1236.72 840.081 1253.17 808.597C1281.27 754.794 1308.87 701.948 1400 702.151C1350.72 702.962 1311.4 719.863 1283.4 760.658C1273.28 775.579 1265.1 791.826 1256.82 808.263C1248.69 824.423 1240.46 840.766 1230.2 856.212C1219.77 871.378 1215.42 876.288 1203.61 887.872C1202.49 888.845 1201.54 889.691 1200.67 890.464C1195.9 894.693 1193.63 896.702 1181.88 904.982C1180.52 905.833 1179.37 906.559 1178.34 907.209L1178.34 907.21L1178.34 907.211L1178.33 907.215L1178.33 907.217L1178.32 907.22C1172.87 910.667 1170.79 911.985 1157.76 918.525C1156.04 919.273 1154.64 919.893 1153.42 920.439L1153.41 920.443L1153.39 920.449L1153.39 920.45C1147.83 922.92 1145.65 923.893 1131.96 928.472C1123.13 931.16 1114.15 933.313 1105.07 934.922C1095.98 936.471 1086.81 937.499 1077.6 938C1076.45 938.035 1075.3 938.077 1074.15 938.12L1074.15 938.12L1074.15 938.12L1074.15 938.12L1074.15 938.12L1074.14 938.12L1074.14 938.12L1074.14 938.12L1074.14 938.12L1074.14 938.12L1074.14 938.12L1074.14 938.12L1074.14 938.12L1074.14 938.12L1074.14 938.12L1074.14 938.12L1074.14 938.12C1070.68 938.249 1067.23 938.377 1063.77 938.293C1026.92 938.07 989.909 929.521 957.221 912.062C924.757 894.49 896.002 871.252 869.18 846.321C825.136 805.09 776.759 748.751 737.154 702.627L737.141 702.612L737.078 702.539C731.744 696.327 726.57 690.301 721.587 684.523C697.704 656.948 673.822 629.429 648.791 603.071C623.967 576.554 597.343 551.779 569.108 528.923C555.081 517.475 540.348 506.92 524.997 497.318C513.538 490.172 501.487 484.022 488.977 478.935C487.577 478.347 478.981 475.158 476.378 474.472C472.131 473.08 467.801 471.954 463.414 471.101C461.256 470.545 459.063 470.138 456.849 469.883C456.459 469.829 456.07 469.773 455.68 469.715C455.295 469.659 454.91 469.601 454.525 469.544L454.503 469.541L454.481 469.537L454.48 469.537L454.48 469.537C453.07 469.327 451.659 469.116 450.241 468.946C448.624 468.866 447.251 468.768 445.953 468.676C441.813 468.381 438.431 468.14 430.278 468.694C392.607 471.618 357.329 491.205 325.131 511.854C309.914 521.69 295.06 532.252 280.515 543.179C265.97 554.105 251.649 565.367 237.314 576.657L215.867 593.586L194.462 610.626C137.108 655.745 72.9776 702.612 6.13466e-05 702.277C72.6137 701.213 135.946 653.646 192.321 607.954C206.46 596.468 220.655 584.982 234.878 573.58L235.092 573.408C249.244 562.063 263.411 550.706 277.855 539.681C292.372 528.601 307.17 517.828 322.471 507.769C352.723 487.959 387.035 468.386 422.887 463.56C426.348 463.046 429.834 462.71 433.33 462.552C434.492 462.468 435.668 462.468 436.83 462.468C440.126 462.31 443.429 462.523 446.729 462.735C448.096 462.823 449.463 462.911 450.829 462.972C462.433 464.211 473.848 466.827 484.833 470.765C485.55 471.027 486.271 471.278 486.991 471.529L486.992 471.53L486.994 471.53L486.995 471.531L486.997 471.532C488.466 472.044 489.934 472.557 491.371 473.157L491.568 473.24L491.742 473.313L491.931 473.392C492.331 473.559 492.757 473.735 493.209 473.923L493.219 473.927C504.155 478.458 530.28 489.282 573.35 523.718C602.048 546.466 628.618 571.831 653.845 598.315C679.071 624.798 703.052 652.331 726.934 679.892C732.999 686.922 739.26 694.225 745.686 701.72L745.728 701.769L745.728 701.769C784.649 747.166 829.617 799.617 873.772 841.438C899.39 865.712 928.998 889.789 960.132 906.745C986.042 920.476 1014.39 929.002 1043.58 931.844C1054.8 932.999 1066.08 933.331 1077.35 932.837C1086.35 932.422 1095.33 931.487 1104.23 930.039C1113.12 928.559 1121.91 926.532 1130.56 923.967C1139.19 921.356 1147.64 918.188 1155.85 914.482C1168.68 908.169 1170.73 906.899 1175.87 903.712C1176.92 903.063 1178.09 902.336 1179.51 901.471C1180.26 900.951 1181.01 900.435 1181.76 899.918ZM146.963 610.08C161.634 600.175 175.998 589.85 190.179 579.302C202.032 570.457 213.762 561.471 225.487 552.489L225.488 552.487C241.805 539.988 258.111 527.496 274.72 515.408C301.934 495.611 334.412 473.437 363.978 459.446C396.177 444.253 430.181 436.181 464.94 443.679C471.29 445.07 477.535 446.903 483.629 449.164C511.208 458.957 534.908 472.332 558.805 488.854C573.224 498.815 587.083 509.658 600.564 520.948C607.326 526.544 613.947 532.364 620.555 538.184L630.354 547.054C631.2 547.826 632.048 548.595 632.896 549.364L632.897 549.365C635.308 551.551 637.72 553.738 640.07 555.994C665.814 580.043 690.467 605.226 714.909 630.73C722.911 639.07 730.887 647.447 738.867 655.829L738.869 655.83C779.615 698.625 820.476 741.54 865.428 780.287C892.223 803.427 920.347 825.475 951.593 842.809C967.246 851.504 983.766 858.537 1000.88 863.795C1045.11 876.904 1105.95 874.833 1158.46 853.036C1166.69 849.554 1174.67 845.501 1182.34 840.907C1205.37 827.532 1223.81 806.463 1238.8 784.722C1247.16 772.668 1253.81 762.031 1259.83 752.385C1272.78 731.659 1282.87 715.512 1300.98 699.73C1328.81 675.625 1362.05 667.777 1399.16 667.972C1361.82 667.035 1328.51 674.198 1299.77 698.317C1281.63 713.247 1269.35 732.235 1255.52 753.605C1249.5 762.914 1243.19 772.675 1235.97 782.749C1207.42 823.568 1183.29 836.033 1171.05 842.351C1170.21 842.787 1169.42 843.194 1168.69 843.579C1167.29 844.32 1158.23 848.42 1156.74 848.951C1104.94 869.937 1045.19 871.238 1002.55 858.171C953.161 843.089 909.288 809.82 869.754 775.334C824.894 736.402 783.898 693.231 742.868 650.026L742.868 650.025L742.867 650.025L742.867 650.024L742.866 650.024L742.866 650.023L742.865 650.022L742.865 650.022L742.864 650.021L742.864 650.021L742.863 650.02L742.862 650.02L742.862 650.019L742.861 650.019L742.861 650.018L742.86 650.018L742.86 650.017L742.859 650.016C735.237 641.99 727.613 633.962 719.963 625.959C695.479 600.455 670.658 575.202 644.732 551.055C642.362 548.791 639.932 546.595 637.503 544.401L637.498 544.396C637.041 543.984 636.584 543.571 636.128 543.158C635.729 542.797 635.33 542.436 634.932 542.073L625.133 533.161C618.483 527.314 611.806 521.494 604.974 515.828C591.353 504.453 577.34 493.443 562.641 483.468C548.001 473.291 532.625 464.214 516.639 456.313C506.634 451.336 496.319 447.009 485.757 443.358C479.407 441.049 472.905 439.18 466.298 437.761C411.884 426.303 361.879 450.968 315.639 481.383C300.842 491.176 286.409 501.417 272.242 511.952C255.204 524.616 238.483 537.662 221.771 550.701L221.756 550.713L221.75 550.717L221.745 550.722L221.739 550.726L221.734 550.73L221.728 550.734L221.723 550.738L221.717 550.743L221.712 550.747L221.706 550.751L221.701 550.755L221.695 550.759L221.69 550.764L221.684 550.768L221.679 550.772L221.673 550.776L221.668 550.78L221.662 550.785C210.55 559.455 199.442 568.123 188.247 576.671C166.716 593.194 146.109 608.192 123.627 622.728C120.665 624.554 119.647 625.214 118.844 625.735C117.409 626.667 116.659 627.153 106.702 633.066C90.6169 642.118 74.8116 650.568 52.8189 657.997C50.8311 658.739 41.6197 661.467 40.2197 661.844C39.2137 662.081 38.1736 662.342 37.054 662.623L37.0406 662.627C33.1923 663.594 28.4031 664.797 20.8309 666.042C20.6412 666.066 20.0916 666.14 19.3427 666.239L19.3106 666.244C16.6789 666.594 11.6496 667.264 11.0316 667.329L1.12018 668.028C37.21 666.993 70.206 655.213 101.914 637.977C117.406 629.468 132.443 620.156 146.963 610.08ZM357.035 433.215C341.902 440.981 327.174 449.512 312.909 458.775C298.504 468.009 284.407 477.662 270.394 487.595C253.086 499.911 236.446 512.206 220.295 524.14C143.444 580.923 77.6253 629.554 3.28986 633.612C76.4916 628.106 139.97 580.138 215.861 522.79C232.522 510.2 249.782 497.158 267.874 484.014C314.421 450.213 360.674 420.288 402.98 409.473C404.184 409.208 405.383 408.924 406.582 408.64L406.59 408.638C409.628 407.918 412.666 407.198 415.775 406.787C420.072 405.973 424.415 405.43 428.78 405.164C430.954 404.903 433.143 404.786 435.332 404.814C439.715 404.59 444.109 404.693 448.477 405.122C450.671 405.207 452.858 405.413 455.029 405.738C472.247 408.363 489.093 413.017 505.216 419.602C521.234 426.144 536.75 433.855 551.637 442.672C566.546 451.458 580.909 460.916 594.81 471.045C608.712 481.174 622.459 491.512 635.772 502.383C662.496 523.928 688.129 546.816 713.327 570.096C727.141 582.885 740.562 595.471 753.67 607.763C842.518 691.079 916.969 760.895 1001.58 788.863C1041.82 799.971 1076.94 800.181 1118.07 793.703C1127.5 792.051 1136.85 789.927 1146.07 787.338C1162.87 782.119 1168.16 779.545 1181.07 772.774C1182.47 772.018 1189.8 767.597 1191.86 766.1C1221.26 745.876 1239.97 722.362 1257.23 700.664C1270.49 683.998 1282.9 668.403 1298.65 656.192C1328.46 633.108 1358.53 631.276 1396.64 633.598C1331.85 630.968 1304.25 643.755 1265.05 695.044L1264.94 695.181L1264.94 695.181C1249.12 715.896 1228.64 742.723 1204.42 761.666C1202.86 762.87 1201.94 763.592 1201.29 764.104C1200.81 764.483 1200.48 764.745 1200.14 765.002C1199.37 765.584 1198.59 766.135 1196.01 767.933L1196.01 767.934L1194.96 768.669L1193.97 769.36C1191.83 770.997 1184.38 775.586 1182.99 776.355C1169.9 783.351 1164.39 786.149 1147.22 791.493C1134.78 795.135 1122.11 797.939 1109.29 799.887L1108.3 800.02L1107.35 800.149L1105.67 800.375C1100.19 801.115 1098.65 801.322 1096.44 801.51C1069.33 804.308 1044.84 803.315 1025.31 800.027C1016.73 798.693 1008.24 796.824 999.89 794.431C981.278 788.633 963.304 780.959 946.245 771.529C879.438 735.981 799.507 660.754 734.073 599.169L734.07 599.167L734.069 599.165C725.285 590.898 716.762 582.877 708.568 575.23C683.495 551.951 658.017 529.188 631.418 507.741C599.486 481.859 571.614 461.573 537.162 442.015C536.353 441.586 535.517 441.14 534.652 440.679C522.93 434.43 505.905 425.354 478.827 417.224C470.774 414.854 462.565 413.054 454.259 411.837C452.195 411.515 450.116 411.305 448.029 411.208C443.854 410.766 439.652 410.64 435.458 410.83C433.363 410.791 431.267 410.894 429.186 411.138C425.001 411.375 420.835 411.875 416.713 412.635C413.766 413.011 410.867 413.672 407.968 414.335L407.967 414.335C406.763 414.61 405.559 414.885 404.352 415.139C387.987 419.154 372.238 425.674 357.035 433.215ZM268.098 460.006C281.724 450.54 295.508 441.343 309.452 432.417C396.848 376.456 449.009 363.235 539.038 408.634C568.371 423.857 596.597 441.122 623.509 460.3C624.026 460.665 624.543 461.028 625.061 461.392C625.544 461.731 626.028 462.07 626.512 462.409C628.894 464.078 631.279 465.75 633.644 467.463L643.639 474.808L648.637 478.474L653.579 482.237L663.462 489.75C676.528 499.907 689.487 510.227 702.338 520.711C717.004 532.644 731.947 545.064 747.081 557.642L747.087 557.648L747.122 557.677L747.124 557.678L747.126 557.68L747.128 557.682L747.13 557.683L747.132 557.685L747.134 557.687L747.134 557.687L747.135 557.688L747.136 557.688C842.942 637.318 946.404 723.312 1035.92 732.916C1061.95 735.714 1100.47 733.727 1123.49 730.551C1126.41 730.221 1129.27 729.673 1132.13 729.126C1133.38 728.886 1134.63 728.646 1135.89 728.425C1168.94 721.84 1199.81 707.051 1225.64 685.419C1238.21 675.435 1248.65 663.845 1258.93 652.437C1281.08 627.843 1302.47 604.092 1342.84 599.084C1359.28 597.014 1375.96 598.133 1392.48 599.49C1367.1 596.874 1342.3 594.943 1318.29 603.435C1293.1 612.28 1275.44 630.941 1256.74 650.707C1242.55 665.709 1227.75 681.347 1208.6 693.813C1207.23 694.695 1206.15 695.4 1205.25 695.981L1205.24 695.984L1205.24 695.987C1203.23 697.284 1202.19 697.96 1201.13 698.611C1199.97 699.318 1198.8 699.995 1196.35 701.407L1196.35 701.408C1195.39 701.961 1194.24 702.627 1192.81 703.452C1164.69 718.492 1139.83 724.731 1110.61 727.39C1087.68 729.222 1059.34 730.188 1036.53 727.557C950.418 717.916 847.686 632.406 752.166 552.899C736.807 540.115 721.635 527.486 706.748 515.352C693.859 504.831 680.835 494.493 667.676 484.336L657.737 476.795L652.767 473.017L647.727 469.338L637.648 461.965C635.657 460.529 633.641 459.117 631.627 457.706L631.624 457.704L631.621 457.702L631.618 457.7L631.616 457.698L631.613 457.696L631.61 457.694L631.607 457.692L631.605 457.69L631.602 457.688L631.599 457.686L631.596 457.684L631.594 457.682L631.582 457.674C630.199 456.704 628.816 455.736 627.442 454.76C579.845 421.449 542.342 401.807 519.187 392.293C513.475 389.817 501.31 385.298 495.514 383.675C487.468 381.143 479.266 379.134 470.96 377.659C462.641 376.149 454.215 375.307 445.761 375.141C437.286 374.975 428.812 375.551 420.437 376.862C418.799 377.072 409.574 378.849 407.992 379.282C407.345 379.446 406.697 379.608 406.049 379.77C402.604 380.633 399.157 381.495 395.798 382.626C381.323 386.907 362.746 395.217 349.601 402.45C304.513 427.547 261.809 458.771 220.563 488.93L220.562 488.931L220.561 488.931C148.844 541.37 81.5328 590.587 13.7473 598.776L7.55952 599.518L13.7613 598.902C83.0903 591.995 152.468 542.384 225.433 490.209L225.436 490.206L225.468 490.183L225.481 490.174C239.545 480.117 253.742 469.966 268.098 460.006ZM617.153 414.006C589.666 397.594 561.023 383.197 531.45 370.93C439.434 333.506 389.233 349.65 267.44 432.053C253.514 441.481 240.039 450.806 226.919 459.884L226.909 459.891L226.897 459.899C149.944 513.147 85.2078 557.942 13.453 565.675C83.6466 556.559 145.537 512.741 222.267 458.416C235.976 448.71 250.159 438.669 264.948 428.43C400.11 334.961 448.337 324.678 561.73 376.932L567.19 379.59L578.109 384.892C580.954 386.27 583.747 387.758 586.536 389.245L586.545 389.25C586.951 389.466 587.357 389.682 587.763 389.898L588.288 390.177C588.483 390.281 588.679 390.385 588.875 390.488C589.974 391.07 591.076 391.648 592.179 392.226C594.655 393.524 597.133 394.823 599.584 396.168L610.139 402.128C610.893 402.556 611.65 402.983 612.407 403.41L612.414 403.414L612.415 403.414L612.416 403.415L612.417 403.416L612.418 403.416L612.419 403.417L612.42 403.417L612.42 403.418L612.421 403.418L612.422 403.419L612.423 403.419L612.424 403.42L612.425 403.421L612.426 403.421L612.427 403.422L612.428 403.422L612.429 403.423C615.18 404.974 617.944 406.533 620.639 408.186C648.455 424.653 675.263 442.686 701.54 461.349C721.419 475.55 741.693 490.612 762.191 505.841C840.584 564.083 922.251 624.757 997.636 648.945L997.89 649.017L998.253 649.119L998.297 649.132C1001.66 650.081 1012.32 653.084 1017.88 654.108C1018.92 654.313 1019.96 654.525 1021 654.737C1023.86 655.321 1026.73 655.905 1029.62 656.346C1060.44 661.593 1093.85 661.803 1125.28 659.438C1160.43 656.78 1188.49 647.029 1215.48 630.716C1230.7 621.461 1242.83 610.976 1254.55 600.85L1254.55 600.849L1254.55 600.849L1254.55 600.849C1266.58 590.449 1278.17 580.427 1292.23 572.502C1323.6 554.746 1351.15 559.534 1386.49 565.677L1386.64 565.703C1385.73 565.564 1384.81 565.425 1383.9 565.286L1383.9 565.285L1383.89 565.285L1383.89 565.285C1368.92 563.005 1353.84 560.709 1338.73 561.17C1302.17 562.194 1280.96 580.97 1256.88 602.289C1235.53 621.191 1211.92 642.093 1173.35 654.388C1157.86 659.34 1141.86 662.513 1125.64 663.845C1093.98 666.531 1060.14 666.671 1028.74 661.649C1025.68 661.222 1022.63 660.632 1019.59 660.04C1018.64 659.857 1017.69 659.673 1016.74 659.494C1015.42 659.262 1014.11 658.957 1012.8 658.651L1012.8 658.651C1012.13 658.495 1011.47 658.339 1010.8 658.193C1000.86 655.952 991.083 653.093 981.509 649.631C909.951 624.003 823.071 559.595 750.626 505.888C731.756 491.899 713.865 478.636 697.48 466.973C671.33 448.338 644.717 430.375 617.153 414.006ZM568.954 350.392C611.862 368.426 653.159 391.328 692.581 415.727C716.139 430.163 739.28 445.192 762.48 460.259C765.474 462.203 768.469 464.148 771.466 466.092C797.687 483.105 824.075 499.837 850.925 515.884C899.922 545.152 966.054 580.743 1022.14 592.383C1038.46 595.839 1051.76 596.496 1069.2 596.58C1077.04 596.58 1084.84 596.58 1092.59 596.692C1112.26 597.112 1136.96 597.588 1163.04 593.027C1205.09 585.629 1230.02 567.994 1252.29 552.243C1276.35 535.226 1297.3 520.409 1333.36 523.075C1348.9 524.194 1364.16 528.195 1379.14 532.281C1356.18 525.481 1333.57 519.13 1309.96 522.487C1287.12 525.594 1269.88 537.275 1250.75 550.244C1237.73 559.063 1223.84 568.478 1206.71 576.196C1166.81 594.26 1123.19 592.99 1092.91 592.109L1092.7 592.103C1087.13 591.944 1081.85 591.895 1076.71 591.848C1041.28 591.522 1012.26 591.254 936.166 555.127C908.168 541.696 880.996 526.419 854.341 510.358C827.687 494.297 801.34 477.536 775.19 460.51C773.223 459.23 771.256 457.948 769.289 456.667L769.283 456.663L769.281 456.662L769.28 456.661L769.279 456.66L769.277 456.659L769.276 456.658L769.275 456.657L769.274 456.657C745.093 440.907 720.88 425.137 696.249 409.977C669.608 393.581 642.394 378.009 614.354 363.963C580.042 347.175 536.126 327.966 498.833 320.369C493.653 319.334 486.331 317.949 481.278 317.403C441.995 312.149 414.112 321.076 401.418 325.14L401.306 325.176C400.884 325.311 400.48 325.44 400.092 325.564L399.853 325.64L399.699 325.688C399.505 325.75 399.315 325.809 399.131 325.867C397.633 326.357 390.017 329.113 388.015 329.966C373.43 335.871 359.243 342.713 345.542 350.448C301.12 375.24 260.959 402.984 222.888 429.284C152.98 477.578 90.1228 521 20.8872 532.323C91.5655 522.36 156.162 478.838 227.438 430.817C265.163 405.4 304.759 378.722 348.118 355.093C426.807 312.129 476.28 311.108 568.954 350.392ZM606.57 327.588C489.551 279.741 443.438 286.974 389.233 308.365C360.787 319.599 332.48 336.136 309.116 350.378C285.169 364.879 261.737 380.748 238.333 396.598L238.333 396.599C172.301 441.318 106.5 485.881 30.0145 499.123C104.879 484.354 168.096 440.484 234.213 394.601L234.214 394.6L234.215 394.6L234.216 394.599L234.217 394.598L234.218 394.597L234.219 394.597L234.22 394.596L234.221 394.595L234.223 394.595L234.224 394.594L234.225 394.593L234.226 394.592L234.227 394.592C269.819 369.892 306.251 344.609 345.793 322.971C376.102 306.365 402.686 294.697 436.494 287.995C493.289 278.3 555.193 299.355 609.118 321.278C637.354 332.848 664.75 346.167 691.713 360.157C719.101 374.44 747.544 390.366 776.36 406.5C843.312 443.988 912.272 482.599 974.664 504.342C1018.04 519.079 1057.64 521.368 1093.89 523.463L1093.89 523.463C1098.8 523.747 1103.64 524.027 1108.43 524.334C1123.48 525.429 1138.59 525.699 1153.67 525.145C1192.77 523.254 1220.28 510.212 1244.58 498.693C1261.44 490.699 1276.76 483.438 1293.33 481.146C1321.92 477.45 1345.87 488.215 1368.78 498.512L1370.04 499.081C1369.43 498.822 1368.81 498.56 1368.19 498.295L1368.04 498.232L1367.97 498.202C1345.33 488.588 1314.64 475.554 1282.59 485.217C1270.34 488.734 1258.48 494.621 1245.68 500.971C1221.43 513.007 1193.83 526.704 1153.88 529.077C1138.66 529.797 1123.41 529.685 1108.2 528.741C1103.4 528.484 1098.56 528.254 1093.66 528.022C1056.67 526.265 1016.93 524.379 972.802 509.91C958.299 504.985 944.146 499.389 930.146 493.401C878.555 471.272 823.596 440.651 770.569 411.107L770.568 411.106L770.568 411.106L770.567 411.105L770.566 411.105L770.565 411.105L770.565 411.104L770.564 411.104L770.563 411.104L770.562 411.103L770.562 411.103L770.561 411.103L770.56 411.102C742.395 395.41 714.774 380.021 688.493 366.369C661.671 352.379 634.484 339.102 606.57 327.588ZM475.733 261.428C477.125 261.369 478.11 261.392 481.177 261.463L481.183 261.463L481.26 261.465L481.369 261.468C482.688 261.498 484.379 261.537 486.625 261.582C557.446 266.52 621.661 291.787 686.015 320.509C711.269 331.718 738.492 344.546 766.621 357.803C819.7 382.816 876.008 409.351 928.41 429.396C998.391 456.494 1036.78 457.398 1065.28 458.069C1070.63 458.195 1075.62 458.313 1080.41 458.593C1083.86 458.803 1088.66 459.23 1094.39 459.741L1094.4 459.741L1094.41 459.742C1113.88 461.476 1144.13 464.169 1169.03 462.581C1170.62 462.581 1172.23 462.434 1173.86 462.286L1173.86 462.286C1174.12 462.263 1174.37 462.24 1174.63 462.217C1183.9 461.564 1193.12 460.316 1202.23 458.481C1213.15 456.377 1223.85 452.994 1234.48 449.63C1248.67 445.142 1262.76 440.686 1277.13 439.343C1307.61 436.545 1333.06 450.367 1359.26 466.442C1340.45 454.284 1321.24 442.658 1299.23 438.671C1276.77 434.593 1258.05 440.029 1236.15 446.386C1224.17 449.865 1211.23 453.62 1196.21 456.243C1179.89 458.672 1163.38 459.608 1146.88 459.041C1127.52 458.486 1109.43 456.669 1095.8 455.301L1095.8 455.3C1089.85 454.703 1084.75 454.191 1080.76 453.907C1072.65 453.344 1065.87 453.116 1059.51 452.903C1045.8 452.443 1034.02 452.048 1014.97 448.492C970.254 440.098 928.536 424.905 849.469 388.866C819.768 375.448 791.804 362.177 765.09 349.5L765.082 349.497L765.067 349.49L765.046 349.48L765.027 349.471L765.02 349.467L765.001 349.458L764.992 349.454L764.988 349.452L764.968 349.442L764.963 349.44C667.257 303.072 586.27 264.638 498.174 255.873C443.479 250.781 396.582 268.367 348.845 294.599C307.337 317.28 268.821 342.838 231.877 367.353C165.889 411.141 104.915 451.601 40.8634 466.4C106.598 452.837 170.226 411.762 237.838 368.114L237.839 368.113L237.843 368.111C274.219 344.628 311.748 320.401 351.379 299.314C391.052 278.104 431.02 262.155 475.733 261.428ZM124.341 408.788C121.975 409.921 106.954 416.567 104.518 417.532C101.947 418.536 99.8363 419.363 98.0648 420.057C92.9928 422.045 90.7054 422.941 88.3936 423.769C86.4952 424.449 84.5803 425.083 81.0932 426.237C79.9311 426.622 78.5944 427.065 77.0256 427.586C76.1093 427.891 75.1139 428.222 74.0278 428.584C73.4699 428.769 73.0782 428.905 72.7423 429.021C70.8696 429.667 70.7313 429.715 53.211 434.46C56.9432 433.337 59.8811 432.455 62.2125 431.755L62.2136 431.754C69.7157 429.502 70.9373 429.135 72.1381 428.709C72.6005 428.545 73.0599 428.373 73.8737 428.081C76.7668 427.041 79.0022 426.242 80.7968 425.601C84.4078 424.311 86.2345 423.659 88.0438 422.961C89.8806 422.253 91.6993 421.498 95.3493 419.982L95.3651 419.976L95.3713 419.973L95.3889 419.966L95.4079 419.958L95.424 419.951L95.4299 419.949L95.4314 419.948L95.4445 419.942L95.4903 419.923C97.6183 419.04 100.361 417.901 104.07 416.371C106.688 415.279 121.485 408.396 123.669 407.305C170.33 383.476 208.344 357.745 246.987 331.589C279.969 309.264 313.408 286.63 353.073 264.604C424.175 224.941 465.836 219.905 520.125 226.172C610.255 236.898 701.061 274.265 788.566 310.274C851.614 336.219 912.947 361.458 971.08 375.519C1003.46 383.42 1028.21 385.406 1053.87 387.464C1068.24 388.616 1082.9 389.792 1099.34 392.042C1101.93 392.399 1104.5 392.772 1107.07 393.145L1107.08 393.147L1107.1 393.149C1111.65 393.81 1116.17 394.467 1120.73 395.022C1169.04 401.091 1194 398.135 1218.52 395.232C1221.7 394.856 1224.87 394.481 1228.08 394.126C1250.15 391.776 1260.92 390.978 1282.1 396.183C1297.86 400.953 1311.04 406.927 1330.06 420.918C1335.79 425.255 1341.39 429.802 1346.86 434.488C1289.75 388.046 1259.48 392.312 1219.92 397.887C1209.27 399.387 1197.95 400.982 1185.25 401.709C1156.27 403.318 1127.21 400.464 1098.71 396.421C1080.2 394.093 1065 393.083 1050.54 392.123L1050.54 392.123C1016.59 389.869 986.734 387.886 927.753 369.755C876.203 353.734 827.105 333.576 778.242 313.514L778.241 313.514L778.239 313.513L778.235 313.511C707.757 284.574 637.768 255.839 561.619 240.009C479.878 223.22 436.284 225.459 355.593 269.29C317.52 289.885 284.478 311.563 249.036 334.817L249.035 334.817L249.023 334.825L248.999 334.841C230.592 346.917 211.538 359.419 190.795 372.413C169.319 385.732 147.135 397.875 124.341 408.788ZM455.379 208.348C539.385 193.677 663.754 235.785 772.2 272.502L772.201 272.502C798.192 281.302 823.269 289.792 846.655 297.117C939.507 325.975 972.263 327.712 1009.11 329.666C1022.57 330.38 1036.57 331.123 1054.25 333.226C1057.79 333.59 1064.99 334.625 1074.95 336.318L1095.74 340.025C1150.58 349.436 1172.72 349.403 1195.13 349.369L1195.13 349.369L1195.13 349.369C1203.47 349.357 1211.85 349.344 1221.96 349.819C1222.21 349.832 1222.48 349.846 1222.77 349.861C1225.8 350.015 1230.84 350.272 1237.61 351.218C1254.77 354.062 1260.09 356.183 1272.24 361.025L1272.73 361.221C1279.13 364.083 1285.34 367.354 1291.31 371.014C1306.57 380.22 1320.61 392 1332.92 403.192C1302.58 374.302 1274.22 353.722 1232.67 348.294C1229.68 347.865 1226.7 347.649 1223.69 347.43C1223.17 347.392 1222.64 347.354 1222.11 347.314C1211.67 346.625 1203.01 346.473 1194.36 346.322C1171.93 345.93 1149.59 345.539 1096.53 335.786C1093.73 335.254 1091.13 334.756 1088.68 334.287C1061.04 328.996 1053.16 327.486 1012.7 324.594C982.223 322.468 967.776 321.166 945.041 316.801C889.854 305.019 829.43 284.675 768.553 264.178C664.196 229.043 558.509 193.46 475.594 199.786C466.695 200.403 457.841 201.553 449.079 203.228C447.991 203.465 447.04 203.671 446.202 203.853C441.538 204.865 440.37 205.118 438.65 205.592C383.053 219.434 322.274 259.438 260.068 300.381C205.96 335.994 150.771 372.319 96.9723 392.755C94.8072 393.582 93.1176 394.232 91.733 394.765L91.7025 394.776C89.213 395.735 87.7122 396.312 86.2002 396.858C83.9104 397.685 81.5943 398.44 75.7787 400.335L75.7684 400.338L75.7475 400.345L75.7439 400.346C73.4692 401.087 70.6607 402.003 67.1121 403.164L77.2194 400.128C142.926 380.411 205.774 340.009 266.246 301.134L266.247 301.133C331.883 258.938 394.721 218.543 455.379 208.348ZM456.288 185.278C439.542 187.593 423.137 191.924 407.431 198.177C363.575 214.92 317.826 244.054 270.007 274.508C225.401 302.915 178.994 332.469 130.64 354.183C109.706 363.374 101.062 366.266 89.5786 370.108C87.3929 370.839 85.1043 371.604 82.6085 372.455C84.4282 371.783 86.2058 371.134 87.9681 370.491L88.061 370.457C103.414 364.851 117.644 359.655 148.531 343.97C183.62 326.281 221.064 301.733 258.875 276.943L258.876 276.942C323.191 234.776 388.568 191.914 445.229 180.927C462 177.429 491.93 175.135 528.02 178.129C597.546 184.111 680.27 207.543 758.27 229.637L758.273 229.638C821.101 247.435 880.865 264.364 928.2 270.605C941.688 272.368 955.266 273.363 968.867 273.585C1009.05 275.205 1041.89 281.209 1068.87 286.142C1076.84 287.6 1084.3 288.964 1091.29 290.094C1108.66 292.868 1123.12 294.765 1137.97 296.714L1137.98 296.715C1156.83 299.187 1176.31 301.743 1203.17 306.281C1220.18 309.35 1236.62 314.982 1251.93 322.985C1276.82 335.996 1297.08 352.868 1317.42 372.455C1297.2 354.015 1275.59 336.765 1251.1 324.636C1226.88 312.703 1207.9 309.929 1194.85 308.021L1194.77 308.009L1194.38 307.952L1194.34 307.945L1193.28 307.79L1193.26 307.787C1193.06 307.758 1192.86 307.728 1192.66 307.699L1192.53 307.68C1176.82 305.425 1160.12 303.41 1143.38 301.391L1143.38 301.391L1143.37 301.39L1143.37 301.389C1117.96 298.324 1092.47 295.25 1070.24 291.311C1011.48 281.125 985.958 280.16 964.018 279.33C937.319 278.321 915.929 277.512 846.431 260.532C814.182 252.594 780.864 243.203 747.305 233.745L747.297 233.742L747.29 233.741L747.284 233.739C672.088 212.545 595.684 191.011 527.39 184.704C503.737 182.356 479.9 182.548 456.288 185.278ZM414.907 173.75C502.347 149.608 616.875 177.39 723.886 203.347L723.89 203.349C766.206 213.613 807.346 223.592 845.171 229.963C878.18 235.496 892.07 235.558 908.022 235.629C926.439 235.712 947.603 235.807 1004.1 244.345L1026.69 247.891C1065.86 254.04 1076.63 255.731 1087.41 257.413C1091.46 258.045 1095.5 258.676 1101.06 259.541C1106.36 260.367 1113.04 261.408 1122.41 262.869C1122.95 262.954 1123.48 263.039 1124.01 263.124C1125.04 263.287 1126.06 263.449 1127.07 263.609C1128.03 263.76 1128.97 263.91 1129.92 264.059L1131.32 264.28C1194.3 274.229 1227.75 279.513 1300.48 342.544C1271.6 316.144 1239.05 290.094 1201.09 276.495C1176.86 267.814 1154.24 264.069 1109.36 256.64C1101.51 255.342 1092.99 253.931 1083.66 252.362C1072.24 250.429 1061.9 248.667 1052.46 247.059L1052.46 247.059C998.166 237.81 973.674 233.639 945.363 231.041C933.184 229.853 921.737 229.645 910.404 229.439C902.105 229.288 893.867 229.139 885.447 228.606C875.396 227.991 865.232 226.732 846.249 223.43C808.494 216.855 768.2 207.035 727.197 197.043L727.191 197.041L727.19 197.041C675.713 184.496 623.122 171.679 573.042 164.671C438.37 145.084 389.653 169.581 305.84 221.849C283.364 235.905 263.356 248.903 244.834 260.936L244.829 260.939C191.897 295.327 151.102 321.831 99.5202 342.599C151.317 323.083 193.776 297.117 240.422 267.793C325.061 214.252 369.816 186.118 414.907 173.75ZM683.438 173.613C600.368 157.199 516.545 140.636 442.01 148.651C378.592 154.316 311.888 197.545 246.158 240.142C214.644 260.566 183.355 280.844 152.759 296.767C141.377 302.825 129.688 308.295 117.929 313.555C143.883 301.076 159.8 292.024 185.503 276.173C202.554 265.489 220.262 253.587 238.384 241.407L238.387 241.405L238.394 241.401C298.004 201.337 362.085 158.267 421.977 145.629C429.606 144.132 440.232 142.3 460.768 141.083C533.676 136.818 610.922 152.161 687.415 167.354L687.417 167.355C740.409 177.88 793.04 188.334 843.617 192.147C855.608 192.998 866.447 193.409 877.683 193.836C916.73 195.319 960.574 196.984 1074.2 217.876C1159.23 233.489 1204.91 246.402 1282.04 313.555C1204.36 249.55 1160.47 237.042 1073.46 222.227C960.508 202.907 917.93 201.549 878.888 200.304L878.887 200.304L878.886 200.304L878.885 200.304L878.883 200.304L878.882 200.304L878.879 200.304L878.876 200.304C867.258 199.933 855.952 199.572 843.197 198.751C792.161 195.097 737.962 184.387 683.438 173.613ZM369.452 146.945C397.758 135.641 438.762 129.205 469.154 128.576C530.442 126.197 612.799 138.047 691.405 149.967C756.398 159.742 796.58 161.132 836.577 162.516C878.269 163.958 919.76 165.393 988.943 176.311C1064.05 188.79 1127.35 201.129 1200.67 243.464C1202.68 244.57 1214.67 251.859 1216.61 253.132C1232.37 263.147 1247.6 273.957 1262.26 285.519C1209.07 241.31 1158.43 214.616 1099.38 195.729C1097.91 195.29 1096.55 194.875 1095.21 194.467C1088 192.278 1081.5 190.3 1063.19 185.936C1051.04 183.026 1038.85 180.438 1026.61 177.962C939.369 160.178 886.929 158.026 834.091 155.857L834.086 155.856L834.081 155.856L834.075 155.855L834.068 155.855C812.382 154.965 790.627 154.072 766.37 152.094C739.404 149.908 706.898 145.207 672.005 140.161C605.711 130.574 530.802 119.741 468.902 122.546C443.77 123.404 418.813 127.069 394.496 133.472C392.624 134.048 390.743 134.596 388.861 135.145C384.707 136.356 380.554 137.566 376.507 139.068C322.483 158.943 273.863 193.333 223.82 228.728C213.59 235.964 203.301 243.241 192.894 250.445L191.223 251.574C181.599 258.073 177.591 260.78 173.537 263.415C170.647 265.294 167.734 267.136 162.748 270.29L162.738 270.296C161.492 271.084 160.116 271.955 158.579 272.928C157.139 273.839 155.558 274.841 153.809 275.95C150.346 278.092 146.836 280.156 143.325 282.221C141.47 283.311 139.614 284.402 137.766 285.505C139.021 284.803 140.22 284.132 141.369 283.489L141.372 283.488C161.801 272.062 166.527 269.419 193.762 251.816C207.445 242.768 220.112 234.216 232.094 226.127C281.82 192.555 319.736 166.956 369.452 146.945ZM389.802 118.001C389.483 118.1 389.165 118.204 388.603 118.376C386.217 119.107 384.22 119.717 382.535 120.232C374.896 122.564 373.65 122.945 371.482 123.805C315.209 143.924 268.929 178.137 217.692 216.013C198.99 229.839 179.627 244.153 158.877 258.448C180.163 242.857 199.357 228.024 217.34 214.126L217.342 214.124C300.536 149.83 357.842 105.542 476.784 98.7203C536.078 95.2502 599.831 101.473 658.053 107.156C697.483 111.005 734.376 114.606 765.628 114.781C768.34 114.794 771.565 114.77 775.289 114.742L775.321 114.742C808.239 114.495 880.129 113.956 981.733 135.892C1086.88 158.669 1159.09 190.469 1241.07 258.448C1174.28 206.25 1118.2 178.577 1050.68 158.403C994.151 141.503 913.152 126.477 837.78 122.63C809.905 121.24 793.989 121.383 779.33 121.514C758.409 121.702 740.046 121.867 693.127 117.523C687.433 116.957 681.795 116.392 676.211 115.833C571.054 105.301 485.031 96.6853 405.976 113.956L401.39 115.085C391.894 117.422 390.839 117.682 389.802 118.001ZM485.827 74.3349C508.953 71.5369 532.22 70.04 555.543 69.3124C588.521 68.2453 619.153 68.7001 652.938 69.2018L652.95 69.2022C676.742 69.5554 702.098 69.9317 730.938 69.8161C765.911 69.5303 800.867 71.3992 835.61 75.4122C881.961 80.7122 927.787 89.8847 972.605 102.833C1062.45 128.016 1146.56 172.785 1218.68 232.44C1217.01 231.015 1215.48 229.701 1213.97 228.392C1207.63 222.928 1201.4 217.556 1184.76 204.599C1183.04 203.27 1172.43 195.379 1170.67 194.12C1158.42 185.434 1158.15 185.257 1156.01 183.838L1156.01 183.837C1154.88 183.087 1153.22 181.99 1148.99 179.108C1145.38 176.691 1141.74 174.358 1138.07 172.012L1138.04 171.991C1136.78 171.181 1135.51 170.37 1134.24 169.553C1129.28 166.363 1124.27 163.383 1119.2 160.431C1118.45 159.995 1117.7 159.557 1116.95 159.119L1116.95 159.115C1112.63 156.596 1108.32 154.074 1103.92 151.716C1083.34 140.421 1062.17 130.249 1040.49 121.245C980.725 96.5797 911.275 77.8746 836.38 68.8369C807.211 65.3494 777.88 63.388 748.507 62.9608C701.509 62.7693 669.29 62.444 644.966 62.1984C603.511 61.7798 584.989 61.5928 555.319 62.695C531.87 63.5904 508.407 65.2973 485.085 68.2912C437.992 74.1111 391.612 85.1635 349.699 106.163C339.13 111.381 329.008 117.355 319.041 123.609C270.095 153.903 223.17 195.483 185.159 229.164L185.158 229.165C183.901 230.28 182.653 231.385 181.415 232.482L184.154 230.191L187.324 227.541C221.345 199.088 255.31 170.681 291.714 145.938C347.123 108.136 392.578 85.4013 485.827 74.3349ZM836.184 18.0802C881.039 26.9377 924.934 40.1031 967.258 57.3929C1009.61 74.6996 1050.15 96.1385 1088.29 121.399C1107.4 133.971 1125.86 147.472 1143.68 161.901C1161.49 176.329 1178.58 191.546 1194.95 207.551C1130.39 141.83 1053.37 89.6266 968.388 53.9903C883.407 18.3541 792.173 -5.3138e-05 700.014 -6.11947e-05C607.855 -6.92515e-05 516.621 18.354 431.64 53.9903C346.66 89.6265 269.637 141.83 205.073 207.551C272.27 141.923 349.545 91.4314 432.77 57.3929C475.093 40.1031 518.988 26.9377 563.844 18.0801C653.774 0.527034 746.253 0.527042 836.184 18.0802Z" fill="url(#paint0_radial)"/>
</g>
<defs>
<radialGradient id="paint0_radial" cx="0" cy="0" r="1" gradientUnits="userSpaceOnUse" gradientTransform="translate(896.895 755.122) rotate(-111.698) scale(768.668 3672.48)">
<stop stop-color="#DFEFFD"/>
<stop offset="0.632269" stop-color="#00A3FF" stop-opacity="0"/>
</radialGradient>
</defs>
</svg>
